<mxfile host="app.diagrams.net" modified="2020-11-01T08:18:32.759Z" agent="5.0 (Windows NT 10.0; Win64; x64) AppleWebKit/537.36 (KHTML, like Gecko) Chrome/86.0.4240.75 Safari/537.36" etag="9si7xAhW0SwQa8sa0y3p" version="13.8.7" type="github">
  <diagram id="kPPUYfFS527ivzW1LZ5I" name="Page-1">
    <mxGraphModel dx="1396" dy="915" grid="0" gridSize="10" guides="1" tooltips="1" connect="1" arrows="1" fold="1" page="0" pageScale="1" pageWidth="827" pageHeight="1169" math="0" shadow="0">
      <root>
        <mxCell id="0" />
        <mxCell id="1" parent="0" />
        <mxCell id="U9mmGLhQqzgiAe78-ZDL-180" value="" style="rounded=1;whiteSpace=wrap;html=1;shadow=0;sketch=1;fontFamily=Comic Sans MS;fontSize=20;fillColor=none;dashed=1;" parent="1" vertex="1">
          <mxGeometry x="370.5" y="808" width="189" height="175" as="geometry" />
        </mxCell>
        <mxCell id="U9mmGLhQqzgiAe78-ZDL-160" value="" style="rounded=1;whiteSpace=wrap;html=1;shadow=0;sketch=1;fontFamily=Comic Sans MS;fontSize=20;fillColor=none;dashed=1;" parent="1" vertex="1">
          <mxGeometry x="-294" y="1093" width="525" height="341" as="geometry" />
        </mxCell>
        <mxCell id="U9mmGLhQqzgiAe78-ZDL-11" style="rounded=0;orthogonalLoop=1;jettySize=auto;html=1;exitX=0;exitY=1;exitDx=0;exitDy=0;entryX=1;entryY=0;entryDx=0;entryDy=0;fontFamily=Comic Sans MS;fontSize=20;shape=link;" parent="1" source="U9mmGLhQqzgiAe78-ZDL-1" target="U9mmGLhQqzgiAe78-ZDL-2" edge="1">
          <mxGeometry relative="1" as="geometry" />
        </mxCell>
        <mxCell id="U9mmGLhQqzgiAe78-ZDL-12" style="edgeStyle=none;shape=link;rounded=0;orthogonalLoop=1;jettySize=auto;html=1;exitX=1;exitY=1;exitDx=0;exitDy=0;fontFamily=Comic Sans MS;fontSize=20;" parent="1" source="U9mmGLhQqzgiAe78-ZDL-1" target="U9mmGLhQqzgiAe78-ZDL-3" edge="1">
          <mxGeometry relative="1" as="geometry" />
        </mxCell>
        <mxCell id="U9mmGLhQqzgiAe78-ZDL-1" value="10" style="ellipse;whiteSpace=wrap;html=1;shadow=0;sketch=1;fillStyle=hachure;fillColor=#FFE6CC;fontSize=20;fontFamily=Comic Sans MS;" parent="1" vertex="1">
          <mxGeometry x="-46.75" y="-170" width="68" height="57" as="geometry" />
        </mxCell>
        <mxCell id="U9mmGLhQqzgiAe78-ZDL-14" style="edgeStyle=none;shape=link;rounded=0;orthogonalLoop=1;jettySize=auto;html=1;exitX=0;exitY=1;exitDx=0;exitDy=0;fontFamily=Comic Sans MS;fontSize=20;" parent="1" source="U9mmGLhQqzgiAe78-ZDL-2" target="U9mmGLhQqzgiAe78-ZDL-4" edge="1">
          <mxGeometry relative="1" as="geometry" />
        </mxCell>
        <mxCell id="U9mmGLhQqzgiAe78-ZDL-15" style="edgeStyle=none;shape=link;rounded=0;orthogonalLoop=1;jettySize=auto;html=1;exitX=1;exitY=1;exitDx=0;exitDy=0;fontFamily=Comic Sans MS;fontSize=20;" parent="1" source="U9mmGLhQqzgiAe78-ZDL-2" target="U9mmGLhQqzgiAe78-ZDL-5" edge="1">
          <mxGeometry relative="1" as="geometry" />
        </mxCell>
        <mxCell id="U9mmGLhQqzgiAe78-ZDL-2" value="5" style="ellipse;whiteSpace=wrap;html=1;shadow=0;sketch=1;fillStyle=hachure;fillColor=#FFE6CC;fontSize=20;fontFamily=Comic Sans MS;" parent="1" vertex="1">
          <mxGeometry x="-145.75" y="-97" width="68" height="57" as="geometry" />
        </mxCell>
        <mxCell id="U9mmGLhQqzgiAe78-ZDL-16" style="edgeStyle=none;shape=link;rounded=0;orthogonalLoop=1;jettySize=auto;html=1;exitX=0;exitY=1;exitDx=0;exitDy=0;fontFamily=Comic Sans MS;fontSize=20;" parent="1" source="U9mmGLhQqzgiAe78-ZDL-3" target="U9mmGLhQqzgiAe78-ZDL-6" edge="1">
          <mxGeometry relative="1" as="geometry" />
        </mxCell>
        <mxCell id="U9mmGLhQqzgiAe78-ZDL-17" style="edgeStyle=none;shape=link;rounded=0;orthogonalLoop=1;jettySize=auto;html=1;exitX=1;exitY=1;exitDx=0;exitDy=0;fontFamily=Comic Sans MS;fontSize=20;" parent="1" source="U9mmGLhQqzgiAe78-ZDL-3" target="U9mmGLhQqzgiAe78-ZDL-7" edge="1">
          <mxGeometry relative="1" as="geometry" />
        </mxCell>
        <mxCell id="U9mmGLhQqzgiAe78-ZDL-3" value="12" style="ellipse;whiteSpace=wrap;html=1;shadow=0;sketch=1;fillStyle=hachure;fillColor=#FFE6CC;fontSize=20;fontFamily=Comic Sans MS;" parent="1" vertex="1">
          <mxGeometry x="50.25" y="-97" width="68" height="57" as="geometry" />
        </mxCell>
        <mxCell id="U9mmGLhQqzgiAe78-ZDL-18" style="edgeStyle=none;shape=link;rounded=0;orthogonalLoop=1;jettySize=auto;html=1;exitX=0;exitY=1;exitDx=0;exitDy=0;entryX=0.632;entryY=0.035;entryDx=0;entryDy=0;entryPerimeter=0;fontFamily=Comic Sans MS;fontSize=20;" parent="1" source="U9mmGLhQqzgiAe78-ZDL-4" target="U9mmGLhQqzgiAe78-ZDL-8" edge="1">
          <mxGeometry relative="1" as="geometry" />
        </mxCell>
        <mxCell id="U9mmGLhQqzgiAe78-ZDL-19" style="edgeStyle=none;shape=link;rounded=0;orthogonalLoop=1;jettySize=auto;html=1;exitX=0.5;exitY=1;exitDx=0;exitDy=0;entryX=0.5;entryY=0;entryDx=0;entryDy=0;fontFamily=Comic Sans MS;fontSize=20;" parent="1" source="U9mmGLhQqzgiAe78-ZDL-4" target="U9mmGLhQqzgiAe78-ZDL-9" edge="1">
          <mxGeometry relative="1" as="geometry" />
        </mxCell>
        <mxCell id="U9mmGLhQqzgiAe78-ZDL-4" value="3" style="ellipse;whiteSpace=wrap;html=1;shadow=0;sketch=1;fillStyle=hachure;fillColor=#FFE6CC;fontSize=20;fontFamily=Comic Sans MS;" parent="1" vertex="1">
          <mxGeometry x="-224.75" y="-11" width="68" height="57" as="geometry" />
        </mxCell>
        <mxCell id="U9mmGLhQqzgiAe78-ZDL-21" style="edgeStyle=none;shape=link;rounded=0;orthogonalLoop=1;jettySize=auto;html=1;exitX=0.5;exitY=1;exitDx=0;exitDy=0;entryX=0.5;entryY=0;entryDx=0;entryDy=0;fontFamily=Comic Sans MS;fontSize=20;" parent="1" source="U9mmGLhQqzgiAe78-ZDL-5" target="U9mmGLhQqzgiAe78-ZDL-10" edge="1">
          <mxGeometry relative="1" as="geometry" />
        </mxCell>
        <mxCell id="U9mmGLhQqzgiAe78-ZDL-5" value="2" style="ellipse;whiteSpace=wrap;html=1;shadow=0;sketch=1;fillStyle=hachure;fillColor=#FFE6CC;fontSize=20;fontFamily=Comic Sans MS;" parent="1" vertex="1">
          <mxGeometry x="-98.75" y="-6" width="68" height="57" as="geometry" />
        </mxCell>
        <mxCell id="U9mmGLhQqzgiAe78-ZDL-6" value="1" style="ellipse;whiteSpace=wrap;html=1;shadow=0;sketch=1;fillStyle=hachure;fillColor=#FFE6CC;fontSize=20;fontFamily=Comic Sans MS;" parent="1" vertex="1">
          <mxGeometry x="-7.75" y="-8" width="68" height="57" as="geometry" />
        </mxCell>
        <mxCell id="U9mmGLhQqzgiAe78-ZDL-7" value="8" style="ellipse;whiteSpace=wrap;html=1;shadow=0;sketch=1;fillStyle=hachure;fillColor=#FFE6CC;fontSize=20;fontFamily=Comic Sans MS;" parent="1" vertex="1">
          <mxGeometry x="114.25" y="-8" width="68" height="57" as="geometry" />
        </mxCell>
        <mxCell id="U9mmGLhQqzgiAe78-ZDL-8" value="7" style="ellipse;whiteSpace=wrap;html=1;shadow=0;sketch=1;fillStyle=hachure;fillColor=#FFE6CC;fontSize=20;fontFamily=Comic Sans MS;" parent="1" vertex="1">
          <mxGeometry x="-290.75" y="81" width="68" height="57" as="geometry" />
        </mxCell>
        <mxCell id="U9mmGLhQqzgiAe78-ZDL-9" value="9" style="ellipse;whiteSpace=wrap;html=1;shadow=0;sketch=1;fillStyle=hachure;fillColor=#FFE6CC;fontSize=20;fontFamily=Comic Sans MS;" parent="1" vertex="1">
          <mxGeometry x="-201.75" y="87" width="68" height="57" as="geometry" />
        </mxCell>
        <mxCell id="U9mmGLhQqzgiAe78-ZDL-10" value="4" style="ellipse;whiteSpace=wrap;html=1;shadow=0;sketch=1;fillStyle=hachure;fillColor=#FFE6CC;fontSize=20;fontFamily=Comic Sans MS;" parent="1" vertex="1">
          <mxGeometry x="-126.75" y="85" width="68" height="57" as="geometry" />
        </mxCell>
        <mxCell id="U9mmGLhQqzgiAe78-ZDL-22" style="rounded=0;orthogonalLoop=1;jettySize=auto;html=1;exitX=0;exitY=1;exitDx=0;exitDy=0;entryX=1;entryY=0;entryDx=0;entryDy=0;fontFamily=Comic Sans MS;fontSize=20;shape=link;" parent="1" source="U9mmGLhQqzgiAe78-ZDL-24" target="U9mmGLhQqzgiAe78-ZDL-27" edge="1">
          <mxGeometry relative="1" as="geometry" />
        </mxCell>
        <mxCell id="U9mmGLhQqzgiAe78-ZDL-23" style="edgeStyle=none;shape=link;rounded=0;orthogonalLoop=1;jettySize=auto;html=1;exitX=1;exitY=1;exitDx=0;exitDy=0;fontFamily=Comic Sans MS;fontSize=20;" parent="1" source="U9mmGLhQqzgiAe78-ZDL-24" target="U9mmGLhQqzgiAe78-ZDL-30" edge="1">
          <mxGeometry relative="1" as="geometry" />
        </mxCell>
        <mxCell id="U9mmGLhQqzgiAe78-ZDL-24" value="10" style="ellipse;whiteSpace=wrap;html=1;shadow=0;sketch=1;fillStyle=hachure;fillColor=#FFE6CC;fontSize=20;fontFamily=Comic Sans MS;" parent="1" vertex="1">
          <mxGeometry x="608.5" y="-170" width="68" height="57" as="geometry" />
        </mxCell>
        <mxCell id="U9mmGLhQqzgiAe78-ZDL-25" style="edgeStyle=none;shape=link;rounded=0;orthogonalLoop=1;jettySize=auto;html=1;exitX=0;exitY=1;exitDx=0;exitDy=0;fontFamily=Comic Sans MS;fontSize=20;" parent="1" source="U9mmGLhQqzgiAe78-ZDL-27" target="U9mmGLhQqzgiAe78-ZDL-33" edge="1">
          <mxGeometry relative="1" as="geometry" />
        </mxCell>
        <mxCell id="U9mmGLhQqzgiAe78-ZDL-26" style="edgeStyle=none;shape=link;rounded=0;orthogonalLoop=1;jettySize=auto;html=1;exitX=1;exitY=1;exitDx=0;exitDy=0;fontFamily=Comic Sans MS;fontSize=20;" parent="1" source="U9mmGLhQqzgiAe78-ZDL-27" target="U9mmGLhQqzgiAe78-ZDL-35" edge="1">
          <mxGeometry relative="1" as="geometry" />
        </mxCell>
        <mxCell id="U9mmGLhQqzgiAe78-ZDL-27" value="5" style="ellipse;whiteSpace=wrap;html=1;shadow=0;sketch=1;fillStyle=hachure;fillColor=#FFE6CC;fontSize=20;fontFamily=Comic Sans MS;" parent="1" vertex="1">
          <mxGeometry x="509.5" y="-97" width="68" height="57" as="geometry" />
        </mxCell>
        <mxCell id="U9mmGLhQqzgiAe78-ZDL-28" style="edgeStyle=none;shape=link;rounded=0;orthogonalLoop=1;jettySize=auto;html=1;exitX=0;exitY=1;exitDx=0;exitDy=0;fontFamily=Comic Sans MS;fontSize=20;" parent="1" source="U9mmGLhQqzgiAe78-ZDL-30" target="U9mmGLhQqzgiAe78-ZDL-36" edge="1">
          <mxGeometry relative="1" as="geometry" />
        </mxCell>
        <mxCell id="U9mmGLhQqzgiAe78-ZDL-29" style="edgeStyle=none;shape=link;rounded=0;orthogonalLoop=1;jettySize=auto;html=1;exitX=1;exitY=1;exitDx=0;exitDy=0;fontFamily=Comic Sans MS;fontSize=20;" parent="1" source="U9mmGLhQqzgiAe78-ZDL-30" target="U9mmGLhQqzgiAe78-ZDL-37" edge="1">
          <mxGeometry relative="1" as="geometry" />
        </mxCell>
        <mxCell id="U9mmGLhQqzgiAe78-ZDL-30" value="12" style="ellipse;whiteSpace=wrap;html=1;shadow=0;sketch=1;fillStyle=hachure;fillColor=#FFE6CC;fontSize=20;fontFamily=Comic Sans MS;" parent="1" vertex="1">
          <mxGeometry x="705.5" y="-97" width="68" height="57" as="geometry" />
        </mxCell>
        <mxCell id="U9mmGLhQqzgiAe78-ZDL-31" style="edgeStyle=none;shape=link;rounded=0;orthogonalLoop=1;jettySize=auto;html=1;exitX=0;exitY=1;exitDx=0;exitDy=0;entryX=0.632;entryY=0.035;entryDx=0;entryDy=0;entryPerimeter=0;fontFamily=Comic Sans MS;fontSize=20;" parent="1" source="U9mmGLhQqzgiAe78-ZDL-33" target="U9mmGLhQqzgiAe78-ZDL-38" edge="1">
          <mxGeometry relative="1" as="geometry" />
        </mxCell>
        <mxCell id="U9mmGLhQqzgiAe78-ZDL-32" style="edgeStyle=none;shape=link;rounded=0;orthogonalLoop=1;jettySize=auto;html=1;exitX=0.5;exitY=1;exitDx=0;exitDy=0;entryX=0.5;entryY=0;entryDx=0;entryDy=0;fontFamily=Comic Sans MS;fontSize=20;" parent="1" source="U9mmGLhQqzgiAe78-ZDL-33" target="U9mmGLhQqzgiAe78-ZDL-39" edge="1">
          <mxGeometry relative="1" as="geometry" />
        </mxCell>
        <mxCell id="U9mmGLhQqzgiAe78-ZDL-33" value="3" style="ellipse;whiteSpace=wrap;html=1;shadow=0;sketch=1;fillStyle=hachure;fillColor=#FFE6CC;fontSize=20;fontFamily=Comic Sans MS;" parent="1" vertex="1">
          <mxGeometry x="430.5" y="-11" width="68" height="57" as="geometry" />
        </mxCell>
        <mxCell id="U9mmGLhQqzgiAe78-ZDL-34" style="edgeStyle=none;shape=link;rounded=0;orthogonalLoop=1;jettySize=auto;html=1;exitX=0.5;exitY=1;exitDx=0;exitDy=0;entryX=0.5;entryY=0;entryDx=0;entryDy=0;fontFamily=Comic Sans MS;fontSize=20;" parent="1" source="U9mmGLhQqzgiAe78-ZDL-35" target="U9mmGLhQqzgiAe78-ZDL-40" edge="1">
          <mxGeometry relative="1" as="geometry" />
        </mxCell>
        <mxCell id="U9mmGLhQqzgiAe78-ZDL-35" value="2" style="ellipse;whiteSpace=wrap;html=1;shadow=0;sketch=1;fillStyle=hachure;fontSize=20;fontFamily=Comic Sans MS;fillColor=#FF3333;" parent="1" vertex="1">
          <mxGeometry x="556.5" y="-6" width="68" height="57" as="geometry" />
        </mxCell>
        <mxCell id="U9mmGLhQqzgiAe78-ZDL-36" value="1" style="ellipse;whiteSpace=wrap;html=1;shadow=0;sketch=1;fillStyle=hachure;fillColor=#FFE6CC;fontSize=20;fontFamily=Comic Sans MS;" parent="1" vertex="1">
          <mxGeometry x="647.5" y="-8" width="68" height="57" as="geometry" />
        </mxCell>
        <mxCell id="U9mmGLhQqzgiAe78-ZDL-37" value="8" style="ellipse;whiteSpace=wrap;html=1;shadow=0;sketch=1;fillStyle=hachure;fillColor=#FFE6CC;fontSize=20;fontFamily=Comic Sans MS;" parent="1" vertex="1">
          <mxGeometry x="769.5" y="-8" width="68" height="57" as="geometry" />
        </mxCell>
        <mxCell id="U9mmGLhQqzgiAe78-ZDL-38" value="7" style="ellipse;whiteSpace=wrap;html=1;shadow=0;sketch=1;fillStyle=hachure;fillColor=#FFE6CC;fontSize=20;fontFamily=Comic Sans MS;" parent="1" vertex="1">
          <mxGeometry x="364.5" y="81" width="68" height="57" as="geometry" />
        </mxCell>
        <mxCell id="U9mmGLhQqzgiAe78-ZDL-39" value="9" style="ellipse;whiteSpace=wrap;html=1;shadow=0;sketch=1;fillStyle=hachure;fillColor=#FFE6CC;fontSize=20;fontFamily=Comic Sans MS;" parent="1" vertex="1">
          <mxGeometry x="453.5" y="87" width="68" height="57" as="geometry" />
        </mxCell>
        <mxCell id="U9mmGLhQqzgiAe78-ZDL-40" value="4" style="ellipse;whiteSpace=wrap;html=1;shadow=0;sketch=1;fillStyle=hachure;fillColor=#FFE6CC;fontSize=20;fontFamily=Comic Sans MS;" parent="1" vertex="1">
          <mxGeometry x="528.5" y="85" width="68" height="57" as="geometry" />
        </mxCell>
        <mxCell id="U9mmGLhQqzgiAe78-ZDL-41" style="rounded=0;orthogonalLoop=1;jettySize=auto;html=1;exitX=0;exitY=1;exitDx=0;exitDy=0;entryX=1;entryY=0;entryDx=0;entryDy=0;fontFamily=Comic Sans MS;fontSize=20;shape=link;" parent="1" source="U9mmGLhQqzgiAe78-ZDL-43" target="U9mmGLhQqzgiAe78-ZDL-46" edge="1">
          <mxGeometry relative="1" as="geometry" />
        </mxCell>
        <mxCell id="U9mmGLhQqzgiAe78-ZDL-42" style="edgeStyle=none;shape=link;rounded=0;orthogonalLoop=1;jettySize=auto;html=1;exitX=1;exitY=1;exitDx=0;exitDy=0;fontFamily=Comic Sans MS;fontSize=20;" parent="1" source="U9mmGLhQqzgiAe78-ZDL-43" target="U9mmGLhQqzgiAe78-ZDL-49" edge="1">
          <mxGeometry relative="1" as="geometry" />
        </mxCell>
        <mxCell id="U9mmGLhQqzgiAe78-ZDL-43" value="10" style="ellipse;whiteSpace=wrap;html=1;shadow=0;sketch=1;fillStyle=hachure;fillColor=#FFE6CC;fontSize=20;fontFamily=Comic Sans MS;" parent="1" vertex="1">
          <mxGeometry x="1251" y="-170" width="68" height="57" as="geometry" />
        </mxCell>
        <mxCell id="U9mmGLhQqzgiAe78-ZDL-44" style="edgeStyle=none;shape=link;rounded=0;orthogonalLoop=1;jettySize=auto;html=1;exitX=0;exitY=1;exitDx=0;exitDy=0;fontFamily=Comic Sans MS;fontSize=20;" parent="1" source="U9mmGLhQqzgiAe78-ZDL-46" target="U9mmGLhQqzgiAe78-ZDL-52" edge="1">
          <mxGeometry relative="1" as="geometry" />
        </mxCell>
        <mxCell id="U9mmGLhQqzgiAe78-ZDL-45" style="edgeStyle=none;shape=link;rounded=0;orthogonalLoop=1;jettySize=auto;html=1;exitX=1;exitY=1;exitDx=0;exitDy=0;fontFamily=Comic Sans MS;fontSize=20;" parent="1" source="U9mmGLhQqzgiAe78-ZDL-46" target="U9mmGLhQqzgiAe78-ZDL-54" edge="1">
          <mxGeometry relative="1" as="geometry" />
        </mxCell>
        <mxCell id="U9mmGLhQqzgiAe78-ZDL-46" value="5" style="ellipse;whiteSpace=wrap;html=1;shadow=0;sketch=1;fillStyle=hachure;fillColor=#FFE6CC;fontSize=20;fontFamily=Comic Sans MS;" parent="1" vertex="1">
          <mxGeometry x="1152" y="-97" width="68" height="57" as="geometry" />
        </mxCell>
        <mxCell id="U9mmGLhQqzgiAe78-ZDL-47" style="edgeStyle=none;shape=link;rounded=0;orthogonalLoop=1;jettySize=auto;html=1;exitX=0;exitY=1;exitDx=0;exitDy=0;fontFamily=Comic Sans MS;fontSize=20;" parent="1" source="U9mmGLhQqzgiAe78-ZDL-49" target="U9mmGLhQqzgiAe78-ZDL-55" edge="1">
          <mxGeometry relative="1" as="geometry" />
        </mxCell>
        <mxCell id="U9mmGLhQqzgiAe78-ZDL-48" style="edgeStyle=none;shape=link;rounded=0;orthogonalLoop=1;jettySize=auto;html=1;exitX=1;exitY=1;exitDx=0;exitDy=0;fontFamily=Comic Sans MS;fontSize=20;" parent="1" source="U9mmGLhQqzgiAe78-ZDL-49" target="U9mmGLhQqzgiAe78-ZDL-56" edge="1">
          <mxGeometry relative="1" as="geometry" />
        </mxCell>
        <mxCell id="U9mmGLhQqzgiAe78-ZDL-49" value="12" style="ellipse;whiteSpace=wrap;html=1;shadow=0;sketch=1;fillStyle=hachure;fillColor=#FFE6CC;fontSize=20;fontFamily=Comic Sans MS;" parent="1" vertex="1">
          <mxGeometry x="1348" y="-97" width="68" height="57" as="geometry" />
        </mxCell>
        <mxCell id="U9mmGLhQqzgiAe78-ZDL-50" style="edgeStyle=none;shape=link;rounded=0;orthogonalLoop=1;jettySize=auto;html=1;exitX=0;exitY=1;exitDx=0;exitDy=0;entryX=0.632;entryY=0.035;entryDx=0;entryDy=0;entryPerimeter=0;fontFamily=Comic Sans MS;fontSize=20;" parent="1" source="U9mmGLhQqzgiAe78-ZDL-52" target="U9mmGLhQqzgiAe78-ZDL-57" edge="1">
          <mxGeometry relative="1" as="geometry" />
        </mxCell>
        <mxCell id="U9mmGLhQqzgiAe78-ZDL-51" style="edgeStyle=none;shape=link;rounded=0;orthogonalLoop=1;jettySize=auto;html=1;exitX=0.5;exitY=1;exitDx=0;exitDy=0;entryX=0.5;entryY=0;entryDx=0;entryDy=0;fontFamily=Comic Sans MS;fontSize=20;" parent="1" source="U9mmGLhQqzgiAe78-ZDL-52" target="U9mmGLhQqzgiAe78-ZDL-58" edge="1">
          <mxGeometry relative="1" as="geometry" />
        </mxCell>
        <mxCell id="U9mmGLhQqzgiAe78-ZDL-52" value="3" style="ellipse;whiteSpace=wrap;html=1;shadow=0;sketch=1;fillStyle=hachure;fillColor=#FFE6CC;fontSize=20;fontFamily=Comic Sans MS;" parent="1" vertex="1">
          <mxGeometry x="1073" y="-11" width="68" height="57" as="geometry" />
        </mxCell>
        <mxCell id="U9mmGLhQqzgiAe78-ZDL-53" style="edgeStyle=none;shape=link;rounded=0;orthogonalLoop=1;jettySize=auto;html=1;exitX=0.5;exitY=1;exitDx=0;exitDy=0;entryX=0.5;entryY=0;entryDx=0;entryDy=0;fontFamily=Comic Sans MS;fontSize=20;" parent="1" source="U9mmGLhQqzgiAe78-ZDL-54" target="U9mmGLhQqzgiAe78-ZDL-59" edge="1">
          <mxGeometry relative="1" as="geometry" />
        </mxCell>
        <mxCell id="U9mmGLhQqzgiAe78-ZDL-54" value="4" style="ellipse;whiteSpace=wrap;html=1;shadow=0;sketch=1;fillStyle=hachure;fillColor=#FFE6CC;fontSize=20;fontFamily=Comic Sans MS;" parent="1" vertex="1">
          <mxGeometry x="1199" y="-6" width="68" height="57" as="geometry" />
        </mxCell>
        <mxCell id="U9mmGLhQqzgiAe78-ZDL-55" value="1" style="ellipse;whiteSpace=wrap;html=1;shadow=0;sketch=1;fillStyle=hachure;fillColor=#FFE6CC;fontSize=20;fontFamily=Comic Sans MS;" parent="1" vertex="1">
          <mxGeometry x="1290" y="-8" width="68" height="57" as="geometry" />
        </mxCell>
        <mxCell id="U9mmGLhQqzgiAe78-ZDL-56" value="8" style="ellipse;whiteSpace=wrap;html=1;shadow=0;sketch=1;fillStyle=hachure;fillColor=#FFE6CC;fontSize=20;fontFamily=Comic Sans MS;" parent="1" vertex="1">
          <mxGeometry x="1412" y="-8" width="68" height="57" as="geometry" />
        </mxCell>
        <mxCell id="U9mmGLhQqzgiAe78-ZDL-57" value="7" style="ellipse;whiteSpace=wrap;html=1;shadow=0;sketch=1;fillStyle=hachure;fillColor=#FFE6CC;fontSize=20;fontFamily=Comic Sans MS;" parent="1" vertex="1">
          <mxGeometry x="1007" y="81" width="68" height="57" as="geometry" />
        </mxCell>
        <mxCell id="U9mmGLhQqzgiAe78-ZDL-58" value="9" style="ellipse;whiteSpace=wrap;html=1;shadow=0;sketch=1;fillStyle=hachure;fillColor=#FFE6CC;fontSize=20;fontFamily=Comic Sans MS;" parent="1" vertex="1">
          <mxGeometry x="1096" y="87" width="68" height="57" as="geometry" />
        </mxCell>
        <mxCell id="U9mmGLhQqzgiAe78-ZDL-59" value="2" style="ellipse;whiteSpace=wrap;html=1;shadow=0;sketch=1;fillStyle=hachure;fillColor=#FFE6CC;fontSize=20;fontFamily=Comic Sans MS;" parent="1" vertex="1">
          <mxGeometry x="1171" y="85" width="68" height="57" as="geometry" />
        </mxCell>
        <mxCell id="U9mmGLhQqzgiAe78-ZDL-60" style="rounded=0;orthogonalLoop=1;jettySize=auto;html=1;exitX=0;exitY=1;exitDx=0;exitDy=0;entryX=1;entryY=0;entryDx=0;entryDy=0;fontFamily=Comic Sans MS;fontSize=20;shape=link;" parent="1" source="U9mmGLhQqzgiAe78-ZDL-62" target="U9mmGLhQqzgiAe78-ZDL-65" edge="1">
          <mxGeometry relative="1" as="geometry" />
        </mxCell>
        <mxCell id="U9mmGLhQqzgiAe78-ZDL-61" style="edgeStyle=none;shape=link;rounded=0;orthogonalLoop=1;jettySize=auto;html=1;exitX=1;exitY=1;exitDx=0;exitDy=0;fontFamily=Comic Sans MS;fontSize=20;" parent="1" source="U9mmGLhQqzgiAe78-ZDL-62" target="U9mmGLhQqzgiAe78-ZDL-68" edge="1">
          <mxGeometry relative="1" as="geometry" />
        </mxCell>
        <mxCell id="U9mmGLhQqzgiAe78-ZDL-62" value="10" style="ellipse;whiteSpace=wrap;html=1;shadow=0;sketch=1;fillStyle=hachure;fillColor=#FFE6CC;fontSize=20;fontFamily=Comic Sans MS;" parent="1" vertex="1">
          <mxGeometry x="-50" y="220" width="68" height="57" as="geometry" />
        </mxCell>
        <mxCell id="U9mmGLhQqzgiAe78-ZDL-63" style="edgeStyle=none;shape=link;rounded=0;orthogonalLoop=1;jettySize=auto;html=1;exitX=0;exitY=1;exitDx=0;exitDy=0;fontFamily=Comic Sans MS;fontSize=20;" parent="1" source="U9mmGLhQqzgiAe78-ZDL-65" target="U9mmGLhQqzgiAe78-ZDL-71" edge="1">
          <mxGeometry relative="1" as="geometry" />
        </mxCell>
        <mxCell id="U9mmGLhQqzgiAe78-ZDL-64" style="edgeStyle=none;shape=link;rounded=0;orthogonalLoop=1;jettySize=auto;html=1;exitX=1;exitY=1;exitDx=0;exitDy=0;fontFamily=Comic Sans MS;fontSize=20;" parent="1" source="U9mmGLhQqzgiAe78-ZDL-65" target="U9mmGLhQqzgiAe78-ZDL-73" edge="1">
          <mxGeometry relative="1" as="geometry" />
        </mxCell>
        <mxCell id="U9mmGLhQqzgiAe78-ZDL-65" value="5" style="ellipse;whiteSpace=wrap;html=1;shadow=0;sketch=1;fillStyle=hachure;fillColor=#FFE6CC;fontSize=20;fontFamily=Comic Sans MS;" parent="1" vertex="1">
          <mxGeometry x="-149" y="293" width="68" height="57" as="geometry" />
        </mxCell>
        <mxCell id="U9mmGLhQqzgiAe78-ZDL-66" style="edgeStyle=none;shape=link;rounded=0;orthogonalLoop=1;jettySize=auto;html=1;exitX=0;exitY=1;exitDx=0;exitDy=0;fontFamily=Comic Sans MS;fontSize=20;" parent="1" source="U9mmGLhQqzgiAe78-ZDL-68" target="U9mmGLhQqzgiAe78-ZDL-74" edge="1">
          <mxGeometry relative="1" as="geometry" />
        </mxCell>
        <mxCell id="U9mmGLhQqzgiAe78-ZDL-67" style="edgeStyle=none;shape=link;rounded=0;orthogonalLoop=1;jettySize=auto;html=1;exitX=1;exitY=1;exitDx=0;exitDy=0;fontFamily=Comic Sans MS;fontSize=20;" parent="1" source="U9mmGLhQqzgiAe78-ZDL-68" target="U9mmGLhQqzgiAe78-ZDL-75" edge="1">
          <mxGeometry relative="1" as="geometry" />
        </mxCell>
        <mxCell id="U9mmGLhQqzgiAe78-ZDL-68" value="12" style="ellipse;whiteSpace=wrap;html=1;shadow=0;sketch=1;fillStyle=hachure;fillColor=#FFE6CC;fontSize=20;fontFamily=Comic Sans MS;" parent="1" vertex="1">
          <mxGeometry x="47" y="293" width="68" height="57" as="geometry" />
        </mxCell>
        <mxCell id="U9mmGLhQqzgiAe78-ZDL-69" style="edgeStyle=none;shape=link;rounded=0;orthogonalLoop=1;jettySize=auto;html=1;exitX=0;exitY=1;exitDx=0;exitDy=0;entryX=0.632;entryY=0.035;entryDx=0;entryDy=0;entryPerimeter=0;fontFamily=Comic Sans MS;fontSize=20;" parent="1" source="U9mmGLhQqzgiAe78-ZDL-71" target="U9mmGLhQqzgiAe78-ZDL-76" edge="1">
          <mxGeometry relative="1" as="geometry" />
        </mxCell>
        <mxCell id="U9mmGLhQqzgiAe78-ZDL-70" style="edgeStyle=none;shape=link;rounded=0;orthogonalLoop=1;jettySize=auto;html=1;exitX=0.5;exitY=1;exitDx=0;exitDy=0;entryX=0.5;entryY=0;entryDx=0;entryDy=0;fontFamily=Comic Sans MS;fontSize=20;" parent="1" source="U9mmGLhQqzgiAe78-ZDL-71" target="U9mmGLhQqzgiAe78-ZDL-77" edge="1">
          <mxGeometry relative="1" as="geometry" />
        </mxCell>
        <mxCell id="U9mmGLhQqzgiAe78-ZDL-71" value="3" style="ellipse;whiteSpace=wrap;html=1;shadow=0;sketch=1;fillStyle=hachure;fontSize=20;fontFamily=Comic Sans MS;fillColor=#FF3333;" parent="1" vertex="1">
          <mxGeometry x="-228" y="379" width="68" height="57" as="geometry" />
        </mxCell>
        <mxCell id="U9mmGLhQqzgiAe78-ZDL-72" style="edgeStyle=none;shape=link;rounded=0;orthogonalLoop=1;jettySize=auto;html=1;exitX=0.5;exitY=1;exitDx=0;exitDy=0;entryX=0.5;entryY=0;entryDx=0;entryDy=0;fontFamily=Comic Sans MS;fontSize=20;" parent="1" source="U9mmGLhQqzgiAe78-ZDL-73" target="U9mmGLhQqzgiAe78-ZDL-78" edge="1">
          <mxGeometry relative="1" as="geometry" />
        </mxCell>
        <mxCell id="U9mmGLhQqzgiAe78-ZDL-73" value="4" style="ellipse;whiteSpace=wrap;html=1;shadow=0;sketch=1;fillStyle=hachure;fillColor=#FFE6CC;fontSize=20;fontFamily=Comic Sans MS;" parent="1" vertex="1">
          <mxGeometry x="-102" y="384" width="68" height="57" as="geometry" />
        </mxCell>
        <mxCell id="U9mmGLhQqzgiAe78-ZDL-74" value="1" style="ellipse;whiteSpace=wrap;html=1;shadow=0;sketch=1;fillStyle=hachure;fillColor=#FFE6CC;fontSize=20;fontFamily=Comic Sans MS;" parent="1" vertex="1">
          <mxGeometry x="-11" y="382" width="68" height="57" as="geometry" />
        </mxCell>
        <mxCell id="U9mmGLhQqzgiAe78-ZDL-75" value="8" style="ellipse;whiteSpace=wrap;html=1;shadow=0;sketch=1;fillStyle=hachure;fillColor=#FFE6CC;fontSize=20;fontFamily=Comic Sans MS;" parent="1" vertex="1">
          <mxGeometry x="111" y="382" width="68" height="57" as="geometry" />
        </mxCell>
        <mxCell id="U9mmGLhQqzgiAe78-ZDL-76" value="7" style="ellipse;whiteSpace=wrap;html=1;shadow=0;sketch=1;fillStyle=hachure;fillColor=#FFE6CC;fontSize=20;fontFamily=Comic Sans MS;" parent="1" vertex="1">
          <mxGeometry x="-294" y="471" width="68" height="57" as="geometry" />
        </mxCell>
        <mxCell id="U9mmGLhQqzgiAe78-ZDL-77" value="9" style="ellipse;whiteSpace=wrap;html=1;shadow=0;sketch=1;fillStyle=hachure;fillColor=#FFE6CC;fontSize=20;fontFamily=Comic Sans MS;" parent="1" vertex="1">
          <mxGeometry x="-205" y="477" width="68" height="57" as="geometry" />
        </mxCell>
        <mxCell id="U9mmGLhQqzgiAe78-ZDL-78" value="2" style="ellipse;whiteSpace=wrap;html=1;shadow=0;sketch=1;fillStyle=hachure;fillColor=#FFE6CC;fontSize=20;fontFamily=Comic Sans MS;" parent="1" vertex="1">
          <mxGeometry x="-130" y="475" width="68" height="57" as="geometry" />
        </mxCell>
        <mxCell id="U9mmGLhQqzgiAe78-ZDL-80" style="rounded=0;orthogonalLoop=1;jettySize=auto;html=1;exitX=0;exitY=1;exitDx=0;exitDy=0;entryX=1;entryY=0;entryDx=0;entryDy=0;fontFamily=Comic Sans MS;fontSize=20;shape=link;" parent="1" source="U9mmGLhQqzgiAe78-ZDL-82" target="U9mmGLhQqzgiAe78-ZDL-85" edge="1">
          <mxGeometry relative="1" as="geometry" />
        </mxCell>
        <mxCell id="U9mmGLhQqzgiAe78-ZDL-81" style="edgeStyle=none;shape=link;rounded=0;orthogonalLoop=1;jettySize=auto;html=1;exitX=1;exitY=1;exitDx=0;exitDy=0;fontFamily=Comic Sans MS;fontSize=20;" parent="1" source="U9mmGLhQqzgiAe78-ZDL-82" target="U9mmGLhQqzgiAe78-ZDL-88" edge="1">
          <mxGeometry relative="1" as="geometry" />
        </mxCell>
        <mxCell id="U9mmGLhQqzgiAe78-ZDL-82" value="10" style="ellipse;whiteSpace=wrap;html=1;shadow=0;sketch=1;fillStyle=hachure;fillColor=#FFE6CC;fontSize=20;fontFamily=Comic Sans MS;" parent="1" vertex="1">
          <mxGeometry x="614.5" y="218" width="68" height="57" as="geometry" />
        </mxCell>
        <mxCell id="U9mmGLhQqzgiAe78-ZDL-83" style="edgeStyle=none;shape=link;rounded=0;orthogonalLoop=1;jettySize=auto;html=1;exitX=0;exitY=1;exitDx=0;exitDy=0;fontFamily=Comic Sans MS;fontSize=20;" parent="1" source="U9mmGLhQqzgiAe78-ZDL-85" target="U9mmGLhQqzgiAe78-ZDL-91" edge="1">
          <mxGeometry relative="1" as="geometry" />
        </mxCell>
        <mxCell id="U9mmGLhQqzgiAe78-ZDL-84" style="edgeStyle=none;shape=link;rounded=0;orthogonalLoop=1;jettySize=auto;html=1;exitX=1;exitY=1;exitDx=0;exitDy=0;fontFamily=Comic Sans MS;fontSize=20;" parent="1" source="U9mmGLhQqzgiAe78-ZDL-85" target="U9mmGLhQqzgiAe78-ZDL-93" edge="1">
          <mxGeometry relative="1" as="geometry" />
        </mxCell>
        <mxCell id="U9mmGLhQqzgiAe78-ZDL-85" value="5" style="ellipse;whiteSpace=wrap;html=1;shadow=0;sketch=1;fillStyle=hachure;fillColor=#FFE6CC;fontSize=20;fontFamily=Comic Sans MS;" parent="1" vertex="1">
          <mxGeometry x="515.5" y="291" width="68" height="57" as="geometry" />
        </mxCell>
        <mxCell id="U9mmGLhQqzgiAe78-ZDL-86" style="edgeStyle=none;shape=link;rounded=0;orthogonalLoop=1;jettySize=auto;html=1;exitX=0;exitY=1;exitDx=0;exitDy=0;fontFamily=Comic Sans MS;fontSize=20;" parent="1" source="U9mmGLhQqzgiAe78-ZDL-88" target="U9mmGLhQqzgiAe78-ZDL-94" edge="1">
          <mxGeometry relative="1" as="geometry" />
        </mxCell>
        <mxCell id="U9mmGLhQqzgiAe78-ZDL-87" style="edgeStyle=none;shape=link;rounded=0;orthogonalLoop=1;jettySize=auto;html=1;exitX=1;exitY=1;exitDx=0;exitDy=0;fontFamily=Comic Sans MS;fontSize=20;" parent="1" source="U9mmGLhQqzgiAe78-ZDL-88" target="U9mmGLhQqzgiAe78-ZDL-95" edge="1">
          <mxGeometry relative="1" as="geometry" />
        </mxCell>
        <mxCell id="U9mmGLhQqzgiAe78-ZDL-88" value="12" style="ellipse;whiteSpace=wrap;html=1;shadow=0;sketch=1;fillStyle=hachure;fillColor=#FFE6CC;fontSize=20;fontFamily=Comic Sans MS;" parent="1" vertex="1">
          <mxGeometry x="711.5" y="291" width="68" height="57" as="geometry" />
        </mxCell>
        <mxCell id="U9mmGLhQqzgiAe78-ZDL-89" style="edgeStyle=none;shape=link;rounded=0;orthogonalLoop=1;jettySize=auto;html=1;exitX=0;exitY=1;exitDx=0;exitDy=0;entryX=0.632;entryY=0.035;entryDx=0;entryDy=0;entryPerimeter=0;fontFamily=Comic Sans MS;fontSize=20;" parent="1" source="U9mmGLhQqzgiAe78-ZDL-91" target="U9mmGLhQqzgiAe78-ZDL-96" edge="1">
          <mxGeometry relative="1" as="geometry" />
        </mxCell>
        <mxCell id="U9mmGLhQqzgiAe78-ZDL-90" style="edgeStyle=none;shape=link;rounded=0;orthogonalLoop=1;jettySize=auto;html=1;exitX=0.5;exitY=1;exitDx=0;exitDy=0;entryX=0.5;entryY=0;entryDx=0;entryDy=0;fontFamily=Comic Sans MS;fontSize=20;" parent="1" source="U9mmGLhQqzgiAe78-ZDL-91" target="U9mmGLhQqzgiAe78-ZDL-97" edge="1">
          <mxGeometry relative="1" as="geometry" />
        </mxCell>
        <mxCell id="U9mmGLhQqzgiAe78-ZDL-91" value="9" style="ellipse;whiteSpace=wrap;html=1;shadow=0;sketch=1;fillStyle=hachure;fontSize=20;fontFamily=Comic Sans MS;fillColor=#FFE6CC;" parent="1" vertex="1">
          <mxGeometry x="436.5" y="377" width="68" height="57" as="geometry" />
        </mxCell>
        <mxCell id="U9mmGLhQqzgiAe78-ZDL-92" style="edgeStyle=none;shape=link;rounded=0;orthogonalLoop=1;jettySize=auto;html=1;exitX=0.5;exitY=1;exitDx=0;exitDy=0;entryX=0.5;entryY=0;entryDx=0;entryDy=0;fontFamily=Comic Sans MS;fontSize=20;" parent="1" source="U9mmGLhQqzgiAe78-ZDL-93" target="U9mmGLhQqzgiAe78-ZDL-98" edge="1">
          <mxGeometry relative="1" as="geometry" />
        </mxCell>
        <mxCell id="U9mmGLhQqzgiAe78-ZDL-93" value="4" style="ellipse;whiteSpace=wrap;html=1;shadow=0;sketch=1;fillStyle=hachure;fillColor=#FFE6CC;fontSize=20;fontFamily=Comic Sans MS;" parent="1" vertex="1">
          <mxGeometry x="562.5" y="382" width="68" height="57" as="geometry" />
        </mxCell>
        <mxCell id="U9mmGLhQqzgiAe78-ZDL-94" value="1" style="ellipse;whiteSpace=wrap;html=1;shadow=0;sketch=1;fillStyle=hachure;fillColor=#FFE6CC;fontSize=20;fontFamily=Comic Sans MS;" parent="1" vertex="1">
          <mxGeometry x="653.5" y="380" width="68" height="57" as="geometry" />
        </mxCell>
        <mxCell id="U9mmGLhQqzgiAe78-ZDL-95" value="8" style="ellipse;whiteSpace=wrap;html=1;shadow=0;sketch=1;fillStyle=hachure;fillColor=#FFE6CC;fontSize=20;fontFamily=Comic Sans MS;" parent="1" vertex="1">
          <mxGeometry x="775.5" y="380" width="68" height="57" as="geometry" />
        </mxCell>
        <mxCell id="U9mmGLhQqzgiAe78-ZDL-96" value="7" style="ellipse;whiteSpace=wrap;html=1;shadow=0;sketch=1;fillStyle=hachure;fillColor=#FFE6CC;fontSize=20;fontFamily=Comic Sans MS;" parent="1" vertex="1">
          <mxGeometry x="370.5" y="469" width="68" height="57" as="geometry" />
        </mxCell>
        <mxCell id="U9mmGLhQqzgiAe78-ZDL-97" value="3" style="ellipse;whiteSpace=wrap;html=1;shadow=0;sketch=1;fillStyle=hachure;fillColor=#FFE6CC;fontSize=20;fontFamily=Comic Sans MS;" parent="1" vertex="1">
          <mxGeometry x="459.5" y="475" width="68" height="57" as="geometry" />
        </mxCell>
        <mxCell id="U9mmGLhQqzgiAe78-ZDL-98" value="2" style="ellipse;whiteSpace=wrap;html=1;shadow=0;sketch=1;fillStyle=hachure;fillColor=#FFE6CC;fontSize=20;fontFamily=Comic Sans MS;" parent="1" vertex="1">
          <mxGeometry x="534.5" y="473" width="68" height="57" as="geometry" />
        </mxCell>
        <mxCell id="U9mmGLhQqzgiAe78-ZDL-99" style="rounded=0;orthogonalLoop=1;jettySize=auto;html=1;exitX=0;exitY=1;exitDx=0;exitDy=0;entryX=1;entryY=0;entryDx=0;entryDy=0;fontFamily=Comic Sans MS;fontSize=20;shape=link;" parent="1" source="U9mmGLhQqzgiAe78-ZDL-101" target="U9mmGLhQqzgiAe78-ZDL-104" edge="1">
          <mxGeometry relative="1" as="geometry" />
        </mxCell>
        <mxCell id="U9mmGLhQqzgiAe78-ZDL-100" style="edgeStyle=none;shape=link;rounded=0;orthogonalLoop=1;jettySize=auto;html=1;exitX=1;exitY=1;exitDx=0;exitDy=0;fontFamily=Comic Sans MS;fontSize=20;" parent="1" source="U9mmGLhQqzgiAe78-ZDL-101" target="U9mmGLhQqzgiAe78-ZDL-107" edge="1">
          <mxGeometry relative="1" as="geometry" />
        </mxCell>
        <mxCell id="U9mmGLhQqzgiAe78-ZDL-101" value="10" style="ellipse;whiteSpace=wrap;html=1;shadow=0;sketch=1;fillStyle=hachure;fillColor=#FFE6CC;fontSize=20;fontFamily=Comic Sans MS;" parent="1" vertex="1">
          <mxGeometry x="1240" y="220" width="68" height="57" as="geometry" />
        </mxCell>
        <mxCell id="U9mmGLhQqzgiAe78-ZDL-102" style="edgeStyle=none;shape=link;rounded=0;orthogonalLoop=1;jettySize=auto;html=1;exitX=0;exitY=1;exitDx=0;exitDy=0;fontFamily=Comic Sans MS;fontSize=20;" parent="1" source="U9mmGLhQqzgiAe78-ZDL-104" target="U9mmGLhQqzgiAe78-ZDL-110" edge="1">
          <mxGeometry relative="1" as="geometry" />
        </mxCell>
        <mxCell id="U9mmGLhQqzgiAe78-ZDL-103" style="edgeStyle=none;shape=link;rounded=0;orthogonalLoop=1;jettySize=auto;html=1;exitX=1;exitY=1;exitDx=0;exitDy=0;fontFamily=Comic Sans MS;fontSize=20;" parent="1" source="U9mmGLhQqzgiAe78-ZDL-104" target="U9mmGLhQqzgiAe78-ZDL-112" edge="1">
          <mxGeometry relative="1" as="geometry" />
        </mxCell>
        <mxCell id="U9mmGLhQqzgiAe78-ZDL-104" value="5" style="ellipse;whiteSpace=wrap;html=1;shadow=0;sketch=1;fillStyle=hachure;fillColor=#FFE6CC;fontSize=20;fontFamily=Comic Sans MS;" parent="1" vertex="1">
          <mxGeometry x="1141" y="293" width="68" height="57" as="geometry" />
        </mxCell>
        <mxCell id="U9mmGLhQqzgiAe78-ZDL-105" style="edgeStyle=none;shape=link;rounded=0;orthogonalLoop=1;jettySize=auto;html=1;exitX=0;exitY=1;exitDx=0;exitDy=0;fontFamily=Comic Sans MS;fontSize=20;" parent="1" source="U9mmGLhQqzgiAe78-ZDL-107" target="U9mmGLhQqzgiAe78-ZDL-113" edge="1">
          <mxGeometry relative="1" as="geometry" />
        </mxCell>
        <mxCell id="U9mmGLhQqzgiAe78-ZDL-106" style="edgeStyle=none;shape=link;rounded=0;orthogonalLoop=1;jettySize=auto;html=1;exitX=1;exitY=1;exitDx=0;exitDy=0;fontFamily=Comic Sans MS;fontSize=20;" parent="1" source="U9mmGLhQqzgiAe78-ZDL-107" target="U9mmGLhQqzgiAe78-ZDL-114" edge="1">
          <mxGeometry relative="1" as="geometry" />
        </mxCell>
        <mxCell id="U9mmGLhQqzgiAe78-ZDL-107" value="12" style="ellipse;whiteSpace=wrap;html=1;shadow=0;sketch=1;fillStyle=hachure;fontSize=20;fontFamily=Comic Sans MS;fillColor=#FF3333;" parent="1" vertex="1">
          <mxGeometry x="1337" y="293" width="68" height="57" as="geometry" />
        </mxCell>
        <mxCell id="U9mmGLhQqzgiAe78-ZDL-108" style="edgeStyle=none;shape=link;rounded=0;orthogonalLoop=1;jettySize=auto;html=1;exitX=0;exitY=1;exitDx=0;exitDy=0;entryX=0.632;entryY=0.035;entryDx=0;entryDy=0;entryPerimeter=0;fontFamily=Comic Sans MS;fontSize=20;" parent="1" source="U9mmGLhQqzgiAe78-ZDL-110" target="U9mmGLhQqzgiAe78-ZDL-115" edge="1">
          <mxGeometry relative="1" as="geometry" />
        </mxCell>
        <mxCell id="U9mmGLhQqzgiAe78-ZDL-109" style="edgeStyle=none;shape=link;rounded=0;orthogonalLoop=1;jettySize=auto;html=1;exitX=0.5;exitY=1;exitDx=0;exitDy=0;entryX=0.5;entryY=0;entryDx=0;entryDy=0;fontFamily=Comic Sans MS;fontSize=20;" parent="1" source="U9mmGLhQqzgiAe78-ZDL-110" target="U9mmGLhQqzgiAe78-ZDL-116" edge="1">
          <mxGeometry relative="1" as="geometry" />
        </mxCell>
        <mxCell id="U9mmGLhQqzgiAe78-ZDL-110" value="9" style="ellipse;whiteSpace=wrap;html=1;shadow=0;sketch=1;fillStyle=hachure;fontSize=20;fontFamily=Comic Sans MS;fillColor=#FFE6CC;" parent="1" vertex="1">
          <mxGeometry x="1062" y="379" width="68" height="57" as="geometry" />
        </mxCell>
        <mxCell id="U9mmGLhQqzgiAe78-ZDL-111" style="edgeStyle=none;shape=link;rounded=0;orthogonalLoop=1;jettySize=auto;html=1;exitX=0.5;exitY=1;exitDx=0;exitDy=0;entryX=0.5;entryY=0;entryDx=0;entryDy=0;fontFamily=Comic Sans MS;fontSize=20;" parent="1" source="U9mmGLhQqzgiAe78-ZDL-112" target="U9mmGLhQqzgiAe78-ZDL-117" edge="1">
          <mxGeometry relative="1" as="geometry" />
        </mxCell>
        <mxCell id="U9mmGLhQqzgiAe78-ZDL-112" value="4" style="ellipse;whiteSpace=wrap;html=1;shadow=0;sketch=1;fillStyle=hachure;fillColor=#FFE6CC;fontSize=20;fontFamily=Comic Sans MS;" parent="1" vertex="1">
          <mxGeometry x="1188" y="384" width="68" height="57" as="geometry" />
        </mxCell>
        <mxCell id="U9mmGLhQqzgiAe78-ZDL-113" value="1" style="ellipse;whiteSpace=wrap;html=1;shadow=0;sketch=1;fillStyle=hachure;fillColor=#FFE6CC;fontSize=20;fontFamily=Comic Sans MS;" parent="1" vertex="1">
          <mxGeometry x="1279" y="382" width="68" height="57" as="geometry" />
        </mxCell>
        <mxCell id="U9mmGLhQqzgiAe78-ZDL-114" value="8" style="ellipse;whiteSpace=wrap;html=1;shadow=0;sketch=1;fillStyle=hachure;fillColor=#FFE6CC;fontSize=20;fontFamily=Comic Sans MS;" parent="1" vertex="1">
          <mxGeometry x="1401" y="382" width="68" height="57" as="geometry" />
        </mxCell>
        <mxCell id="U9mmGLhQqzgiAe78-ZDL-115" value="7" style="ellipse;whiteSpace=wrap;html=1;shadow=0;sketch=1;fillStyle=hachure;fillColor=#FFE6CC;fontSize=20;fontFamily=Comic Sans MS;" parent="1" vertex="1">
          <mxGeometry x="996" y="471" width="68" height="57" as="geometry" />
        </mxCell>
        <mxCell id="U9mmGLhQqzgiAe78-ZDL-116" value="3" style="ellipse;whiteSpace=wrap;html=1;shadow=0;sketch=1;fillStyle=hachure;fillColor=#FFE6CC;fontSize=20;fontFamily=Comic Sans MS;" parent="1" vertex="1">
          <mxGeometry x="1085" y="477" width="68" height="57" as="geometry" />
        </mxCell>
        <mxCell id="U9mmGLhQqzgiAe78-ZDL-117" value="2" style="ellipse;whiteSpace=wrap;html=1;shadow=0;sketch=1;fillStyle=hachure;fillColor=#FFE6CC;fontSize=20;fontFamily=Comic Sans MS;" parent="1" vertex="1">
          <mxGeometry x="1160" y="475" width="68" height="57" as="geometry" />
        </mxCell>
        <mxCell id="U9mmGLhQqzgiAe78-ZDL-118" style="rounded=0;orthogonalLoop=1;jettySize=auto;html=1;exitX=0;exitY=1;exitDx=0;exitDy=0;entryX=1;entryY=0;entryDx=0;entryDy=0;fontFamily=Comic Sans MS;fontSize=20;shape=link;" parent="1" source="U9mmGLhQqzgiAe78-ZDL-120" target="U9mmGLhQqzgiAe78-ZDL-123" edge="1">
          <mxGeometry relative="1" as="geometry" />
        </mxCell>
        <mxCell id="U9mmGLhQqzgiAe78-ZDL-119" style="edgeStyle=none;shape=link;rounded=0;orthogonalLoop=1;jettySize=auto;html=1;exitX=1;exitY=1;exitDx=0;exitDy=0;fontFamily=Comic Sans MS;fontSize=20;" parent="1" source="U9mmGLhQqzgiAe78-ZDL-120" target="U9mmGLhQqzgiAe78-ZDL-126" edge="1">
          <mxGeometry relative="1" as="geometry" />
        </mxCell>
        <mxCell id="U9mmGLhQqzgiAe78-ZDL-120" value="10" style="ellipse;whiteSpace=wrap;html=1;shadow=0;sketch=1;fillStyle=hachure;fillColor=#FFE6CC;fontSize=20;fontFamily=Comic Sans MS;" parent="1" vertex="1">
          <mxGeometry x="-25" y="645" width="68" height="57" as="geometry" />
        </mxCell>
        <mxCell id="U9mmGLhQqzgiAe78-ZDL-121" style="edgeStyle=none;shape=link;rounded=0;orthogonalLoop=1;jettySize=auto;html=1;exitX=0;exitY=1;exitDx=0;exitDy=0;fontFamily=Comic Sans MS;fontSize=20;" parent="1" source="U9mmGLhQqzgiAe78-ZDL-123" target="U9mmGLhQqzgiAe78-ZDL-129" edge="1">
          <mxGeometry relative="1" as="geometry" />
        </mxCell>
        <mxCell id="U9mmGLhQqzgiAe78-ZDL-122" style="edgeStyle=none;shape=link;rounded=0;orthogonalLoop=1;jettySize=auto;html=1;exitX=1;exitY=1;exitDx=0;exitDy=0;fontFamily=Comic Sans MS;fontSize=20;" parent="1" source="U9mmGLhQqzgiAe78-ZDL-123" target="U9mmGLhQqzgiAe78-ZDL-131" edge="1">
          <mxGeometry relative="1" as="geometry" />
        </mxCell>
        <mxCell id="U9mmGLhQqzgiAe78-ZDL-123" value="5" style="ellipse;whiteSpace=wrap;html=1;shadow=0;sketch=1;fillStyle=hachure;fontSize=20;fontFamily=Comic Sans MS;fillColor=#FF3333;" parent="1" vertex="1">
          <mxGeometry x="-124" y="718" width="68" height="57" as="geometry" />
        </mxCell>
        <mxCell id="U9mmGLhQqzgiAe78-ZDL-124" style="edgeStyle=none;shape=link;rounded=0;orthogonalLoop=1;jettySize=auto;html=1;exitX=0;exitY=1;exitDx=0;exitDy=0;fontFamily=Comic Sans MS;fontSize=20;" parent="1" source="U9mmGLhQqzgiAe78-ZDL-126" target="U9mmGLhQqzgiAe78-ZDL-132" edge="1">
          <mxGeometry relative="1" as="geometry" />
        </mxCell>
        <mxCell id="U9mmGLhQqzgiAe78-ZDL-125" style="edgeStyle=none;shape=link;rounded=0;orthogonalLoop=1;jettySize=auto;html=1;exitX=1;exitY=1;exitDx=0;exitDy=0;fontFamily=Comic Sans MS;fontSize=20;" parent="1" source="U9mmGLhQqzgiAe78-ZDL-126" target="U9mmGLhQqzgiAe78-ZDL-133" edge="1">
          <mxGeometry relative="1" as="geometry" />
        </mxCell>
        <mxCell id="U9mmGLhQqzgiAe78-ZDL-126" value="12" style="ellipse;whiteSpace=wrap;html=1;shadow=0;sketch=1;fillStyle=hachure;fontSize=20;fontFamily=Comic Sans MS;fillColor=#FFE6CC;" parent="1" vertex="1">
          <mxGeometry x="72" y="718" width="68" height="57" as="geometry" />
        </mxCell>
        <mxCell id="U9mmGLhQqzgiAe78-ZDL-127" style="edgeStyle=none;shape=link;rounded=0;orthogonalLoop=1;jettySize=auto;html=1;exitX=0;exitY=1;exitDx=0;exitDy=0;entryX=0.632;entryY=0.035;entryDx=0;entryDy=0;entryPerimeter=0;fontFamily=Comic Sans MS;fontSize=20;" parent="1" source="U9mmGLhQqzgiAe78-ZDL-129" target="U9mmGLhQqzgiAe78-ZDL-134" edge="1">
          <mxGeometry relative="1" as="geometry" />
        </mxCell>
        <mxCell id="U9mmGLhQqzgiAe78-ZDL-128" style="edgeStyle=none;shape=link;rounded=0;orthogonalLoop=1;jettySize=auto;html=1;exitX=0.5;exitY=1;exitDx=0;exitDy=0;entryX=0.5;entryY=0;entryDx=0;entryDy=0;fontFamily=Comic Sans MS;fontSize=20;" parent="1" source="U9mmGLhQqzgiAe78-ZDL-129" target="U9mmGLhQqzgiAe78-ZDL-135" edge="1">
          <mxGeometry relative="1" as="geometry" />
        </mxCell>
        <mxCell id="U9mmGLhQqzgiAe78-ZDL-129" value="9" style="ellipse;whiteSpace=wrap;html=1;shadow=0;sketch=1;fillStyle=hachure;fontSize=20;fontFamily=Comic Sans MS;fillColor=#FFE6CC;" parent="1" vertex="1">
          <mxGeometry x="-203" y="804" width="68" height="57" as="geometry" />
        </mxCell>
        <mxCell id="U9mmGLhQqzgiAe78-ZDL-130" style="edgeStyle=none;shape=link;rounded=0;orthogonalLoop=1;jettySize=auto;html=1;exitX=0.5;exitY=1;exitDx=0;exitDy=0;entryX=0.5;entryY=0;entryDx=0;entryDy=0;fontFamily=Comic Sans MS;fontSize=20;" parent="1" source="U9mmGLhQqzgiAe78-ZDL-131" target="U9mmGLhQqzgiAe78-ZDL-136" edge="1">
          <mxGeometry relative="1" as="geometry" />
        </mxCell>
        <mxCell id="U9mmGLhQqzgiAe78-ZDL-131" value="4" style="ellipse;whiteSpace=wrap;html=1;shadow=0;sketch=1;fillStyle=hachure;fillColor=#FFE6CC;fontSize=20;fontFamily=Comic Sans MS;" parent="1" vertex="1">
          <mxGeometry x="-77" y="809" width="68" height="57" as="geometry" />
        </mxCell>
        <mxCell id="U9mmGLhQqzgiAe78-ZDL-132" value="1" style="ellipse;whiteSpace=wrap;html=1;shadow=0;sketch=1;fillStyle=hachure;fillColor=#FFE6CC;fontSize=20;fontFamily=Comic Sans MS;" parent="1" vertex="1">
          <mxGeometry x="14" y="807" width="68" height="57" as="geometry" />
        </mxCell>
        <mxCell id="U9mmGLhQqzgiAe78-ZDL-133" value="8" style="ellipse;whiteSpace=wrap;html=1;shadow=0;sketch=1;fillStyle=hachure;fillColor=#FFE6CC;fontSize=20;fontFamily=Comic Sans MS;" parent="1" vertex="1">
          <mxGeometry x="136" y="807" width="68" height="57" as="geometry" />
        </mxCell>
        <mxCell id="U9mmGLhQqzgiAe78-ZDL-134" value="7" style="ellipse;whiteSpace=wrap;html=1;shadow=0;sketch=1;fillStyle=hachure;fillColor=#FFE6CC;fontSize=20;fontFamily=Comic Sans MS;" parent="1" vertex="1">
          <mxGeometry x="-269" y="896" width="68" height="57" as="geometry" />
        </mxCell>
        <mxCell id="U9mmGLhQqzgiAe78-ZDL-135" value="3" style="ellipse;whiteSpace=wrap;html=1;shadow=0;sketch=1;fillStyle=hachure;fillColor=#FFE6CC;fontSize=20;fontFamily=Comic Sans MS;" parent="1" vertex="1">
          <mxGeometry x="-180" y="902" width="68" height="57" as="geometry" />
        </mxCell>
        <mxCell id="U9mmGLhQqzgiAe78-ZDL-136" value="2" style="ellipse;whiteSpace=wrap;html=1;shadow=0;sketch=1;fillStyle=hachure;fillColor=#FFE6CC;fontSize=20;fontFamily=Comic Sans MS;" parent="1" vertex="1">
          <mxGeometry x="-105" y="900" width="68" height="57" as="geometry" />
        </mxCell>
        <mxCell id="U9mmGLhQqzgiAe78-ZDL-137" value="" style="rounded=1;whiteSpace=wrap;html=1;shadow=0;sketch=1;fontFamily=Comic Sans MS;fontSize=20;fillColor=none;dashed=1;" parent="1" vertex="1">
          <mxGeometry x="523.5" y="-8" width="119" height="155" as="geometry" />
        </mxCell>
        <mxCell id="U9mmGLhQqzgiAe78-ZDL-138" value="" style="rounded=1;whiteSpace=wrap;html=1;shadow=0;sketch=1;fontFamily=Comic Sans MS;fontSize=20;fillColor=none;dashed=1;" parent="1" vertex="1">
          <mxGeometry x="-305" y="373" width="174" height="167" as="geometry" />
        </mxCell>
        <mxCell id="U9mmGLhQqzgiAe78-ZDL-139" value="" style="rounded=1;whiteSpace=wrap;html=1;shadow=0;sketch=1;fontFamily=Comic Sans MS;fontSize=20;fillColor=none;dashed=1;" parent="1" vertex="1">
          <mxGeometry x="1269" y="286" width="215" height="167" as="geometry" />
        </mxCell>
        <mxCell id="U9mmGLhQqzgiAe78-ZDL-140" value="" style="rounded=1;whiteSpace=wrap;html=1;shadow=0;sketch=1;fontFamily=Comic Sans MS;fontSize=20;fillColor=none;dashed=1;" parent="1" vertex="1">
          <mxGeometry x="-294" y="705" width="302" height="268" as="geometry" />
        </mxCell>
        <mxCell id="U9mmGLhQqzgiAe78-ZDL-141" style="rounded=0;orthogonalLoop=1;jettySize=auto;html=1;exitX=0;exitY=1;exitDx=0;exitDy=0;entryX=1;entryY=0;entryDx=0;entryDy=0;fontFamily=Comic Sans MS;fontSize=20;shape=link;" parent="1" source="U9mmGLhQqzgiAe78-ZDL-143" target="U9mmGLhQqzgiAe78-ZDL-146" edge="1">
          <mxGeometry relative="1" as="geometry" />
        </mxCell>
        <mxCell id="U9mmGLhQqzgiAe78-ZDL-142" style="edgeStyle=none;shape=link;rounded=0;orthogonalLoop=1;jettySize=auto;html=1;exitX=1;exitY=1;exitDx=0;exitDy=0;fontFamily=Comic Sans MS;fontSize=20;" parent="1" source="U9mmGLhQqzgiAe78-ZDL-143" target="U9mmGLhQqzgiAe78-ZDL-149" edge="1">
          <mxGeometry relative="1" as="geometry" />
        </mxCell>
        <mxCell id="U9mmGLhQqzgiAe78-ZDL-143" value="10" style="ellipse;whiteSpace=wrap;html=1;shadow=0;sketch=1;fillStyle=hachure;fontSize=20;fontFamily=Comic Sans MS;fillColor=#FF3333;" parent="1" vertex="1">
          <mxGeometry x="-25" y="1106" width="68" height="57" as="geometry" />
        </mxCell>
        <mxCell id="U9mmGLhQqzgiAe78-ZDL-144" style="edgeStyle=none;shape=link;rounded=0;orthogonalLoop=1;jettySize=auto;html=1;exitX=0;exitY=1;exitDx=0;exitDy=0;fontFamily=Comic Sans MS;fontSize=20;" parent="1" source="U9mmGLhQqzgiAe78-ZDL-146" target="U9mmGLhQqzgiAe78-ZDL-152" edge="1">
          <mxGeometry relative="1" as="geometry" />
        </mxCell>
        <mxCell id="U9mmGLhQqzgiAe78-ZDL-145" style="edgeStyle=none;shape=link;rounded=0;orthogonalLoop=1;jettySize=auto;html=1;exitX=1;exitY=1;exitDx=0;exitDy=0;fontFamily=Comic Sans MS;fontSize=20;" parent="1" source="U9mmGLhQqzgiAe78-ZDL-146" target="U9mmGLhQqzgiAe78-ZDL-154" edge="1">
          <mxGeometry relative="1" as="geometry" />
        </mxCell>
        <mxCell id="U9mmGLhQqzgiAe78-ZDL-146" value="9" style="ellipse;whiteSpace=wrap;html=1;shadow=0;sketch=1;fillStyle=hachure;fontSize=20;fontFamily=Comic Sans MS;fillColor=#FFE6CC;" parent="1" vertex="1">
          <mxGeometry x="-124" y="1179" width="68" height="57" as="geometry" />
        </mxCell>
        <mxCell id="U9mmGLhQqzgiAe78-ZDL-147" style="edgeStyle=none;shape=link;rounded=0;orthogonalLoop=1;jettySize=auto;html=1;exitX=0;exitY=1;exitDx=0;exitDy=0;fontFamily=Comic Sans MS;fontSize=20;" parent="1" source="U9mmGLhQqzgiAe78-ZDL-149" target="U9mmGLhQqzgiAe78-ZDL-155" edge="1">
          <mxGeometry relative="1" as="geometry" />
        </mxCell>
        <mxCell id="U9mmGLhQqzgiAe78-ZDL-148" style="edgeStyle=none;shape=link;rounded=0;orthogonalLoop=1;jettySize=auto;html=1;exitX=1;exitY=1;exitDx=0;exitDy=0;fontFamily=Comic Sans MS;fontSize=20;" parent="1" source="U9mmGLhQqzgiAe78-ZDL-149" target="U9mmGLhQqzgiAe78-ZDL-156" edge="1">
          <mxGeometry relative="1" as="geometry" />
        </mxCell>
        <mxCell id="U9mmGLhQqzgiAe78-ZDL-149" value="12" style="ellipse;whiteSpace=wrap;html=1;shadow=0;sketch=1;fillStyle=hachure;fontSize=20;fontFamily=Comic Sans MS;fillColor=#FFE6CC;" parent="1" vertex="1">
          <mxGeometry x="72" y="1179" width="68" height="57" as="geometry" />
        </mxCell>
        <mxCell id="U9mmGLhQqzgiAe78-ZDL-150" style="edgeStyle=none;shape=link;rounded=0;orthogonalLoop=1;jettySize=auto;html=1;exitX=0;exitY=1;exitDx=0;exitDy=0;entryX=0.632;entryY=0.035;entryDx=0;entryDy=0;entryPerimeter=0;fontFamily=Comic Sans MS;fontSize=20;" parent="1" source="U9mmGLhQqzgiAe78-ZDL-152" target="U9mmGLhQqzgiAe78-ZDL-157" edge="1">
          <mxGeometry relative="1" as="geometry" />
        </mxCell>
        <mxCell id="U9mmGLhQqzgiAe78-ZDL-151" style="edgeStyle=none;shape=link;rounded=0;orthogonalLoop=1;jettySize=auto;html=1;exitX=0.5;exitY=1;exitDx=0;exitDy=0;entryX=0.5;entryY=0;entryDx=0;entryDy=0;fontFamily=Comic Sans MS;fontSize=20;" parent="1" source="U9mmGLhQqzgiAe78-ZDL-152" target="U9mmGLhQqzgiAe78-ZDL-158" edge="1">
          <mxGeometry relative="1" as="geometry" />
        </mxCell>
        <mxCell id="U9mmGLhQqzgiAe78-ZDL-152" value="7" style="ellipse;whiteSpace=wrap;html=1;shadow=0;sketch=1;fillStyle=hachure;fontSize=20;fontFamily=Comic Sans MS;fillColor=#FFE6CC;" parent="1" vertex="1">
          <mxGeometry x="-203" y="1265" width="68" height="57" as="geometry" />
        </mxCell>
        <mxCell id="U9mmGLhQqzgiAe78-ZDL-153" style="edgeStyle=none;shape=link;rounded=0;orthogonalLoop=1;jettySize=auto;html=1;exitX=0.5;exitY=1;exitDx=0;exitDy=0;entryX=0.5;entryY=0;entryDx=0;entryDy=0;fontFamily=Comic Sans MS;fontSize=20;" parent="1" source="U9mmGLhQqzgiAe78-ZDL-154" target="U9mmGLhQqzgiAe78-ZDL-159" edge="1">
          <mxGeometry relative="1" as="geometry" />
        </mxCell>
        <mxCell id="U9mmGLhQqzgiAe78-ZDL-154" value="4" style="ellipse;whiteSpace=wrap;html=1;shadow=0;sketch=1;fillStyle=hachure;fillColor=#FFE6CC;fontSize=20;fontFamily=Comic Sans MS;" parent="1" vertex="1">
          <mxGeometry x="-77" y="1270" width="68" height="57" as="geometry" />
        </mxCell>
        <mxCell id="U9mmGLhQqzgiAe78-ZDL-155" value="1" style="ellipse;whiteSpace=wrap;html=1;shadow=0;sketch=1;fillStyle=hachure;fillColor=#FFE6CC;fontSize=20;fontFamily=Comic Sans MS;" parent="1" vertex="1">
          <mxGeometry x="14" y="1268" width="68" height="57" as="geometry" />
        </mxCell>
        <mxCell id="U9mmGLhQqzgiAe78-ZDL-156" value="8" style="ellipse;whiteSpace=wrap;html=1;shadow=0;sketch=1;fillStyle=hachure;fillColor=#FFE6CC;fontSize=20;fontFamily=Comic Sans MS;" parent="1" vertex="1">
          <mxGeometry x="136" y="1268" width="68" height="57" as="geometry" />
        </mxCell>
        <mxCell id="U9mmGLhQqzgiAe78-ZDL-157" value="5" style="ellipse;whiteSpace=wrap;html=1;shadow=0;sketch=1;fillStyle=hachure;fillColor=#FFE6CC;fontSize=20;fontFamily=Comic Sans MS;" parent="1" vertex="1">
          <mxGeometry x="-269" y="1357" width="68" height="57" as="geometry" />
        </mxCell>
        <mxCell id="U9mmGLhQqzgiAe78-ZDL-158" value="3" style="ellipse;whiteSpace=wrap;html=1;shadow=0;sketch=1;fillStyle=hachure;fillColor=#FFE6CC;fontSize=20;fontFamily=Comic Sans MS;" parent="1" vertex="1">
          <mxGeometry x="-180" y="1363" width="68" height="57" as="geometry" />
        </mxCell>
        <mxCell id="U9mmGLhQqzgiAe78-ZDL-159" value="2" style="ellipse;whiteSpace=wrap;html=1;shadow=0;sketch=1;fillStyle=hachure;fillColor=#FFE6CC;fontSize=20;fontFamily=Comic Sans MS;" parent="1" vertex="1">
          <mxGeometry x="-105" y="1361" width="68" height="57" as="geometry" />
        </mxCell>
        <mxCell id="U9mmGLhQqzgiAe78-ZDL-161" style="rounded=0;orthogonalLoop=1;jettySize=auto;html=1;exitX=0;exitY=1;exitDx=0;exitDy=0;entryX=1;entryY=0;entryDx=0;entryDy=0;fontFamily=Comic Sans MS;fontSize=20;shape=link;" parent="1" source="U9mmGLhQqzgiAe78-ZDL-163" target="U9mmGLhQqzgiAe78-ZDL-166" edge="1">
          <mxGeometry relative="1" as="geometry" />
        </mxCell>
        <mxCell id="U9mmGLhQqzgiAe78-ZDL-162" style="edgeStyle=none;shape=link;rounded=0;orthogonalLoop=1;jettySize=auto;html=1;exitX=1;exitY=1;exitDx=0;exitDy=0;fontFamily=Comic Sans MS;fontSize=20;" parent="1" source="U9mmGLhQqzgiAe78-ZDL-163" target="U9mmGLhQqzgiAe78-ZDL-169" edge="1">
          <mxGeometry relative="1" as="geometry" />
        </mxCell>
        <mxCell id="U9mmGLhQqzgiAe78-ZDL-163" value="10" style="ellipse;whiteSpace=wrap;html=1;shadow=0;sketch=1;fillStyle=hachure;fillColor=#FFE6CC;fontSize=20;fontFamily=Comic Sans MS;" parent="1" vertex="1">
          <mxGeometry x="639.5" y="655" width="68" height="57" as="geometry" />
        </mxCell>
        <mxCell id="U9mmGLhQqzgiAe78-ZDL-164" style="edgeStyle=none;shape=link;rounded=0;orthogonalLoop=1;jettySize=auto;html=1;exitX=0;exitY=1;exitDx=0;exitDy=0;fontFamily=Comic Sans MS;fontSize=20;" parent="1" source="U9mmGLhQqzgiAe78-ZDL-166" target="U9mmGLhQqzgiAe78-ZDL-172" edge="1">
          <mxGeometry relative="1" as="geometry" />
        </mxCell>
        <mxCell id="U9mmGLhQqzgiAe78-ZDL-165" style="edgeStyle=none;shape=link;rounded=0;orthogonalLoop=1;jettySize=auto;html=1;exitX=1;exitY=1;exitDx=0;exitDy=0;fontFamily=Comic Sans MS;fontSize=20;" parent="1" source="U9mmGLhQqzgiAe78-ZDL-166" target="U9mmGLhQqzgiAe78-ZDL-174" edge="1">
          <mxGeometry relative="1" as="geometry" />
        </mxCell>
        <mxCell id="U9mmGLhQqzgiAe78-ZDL-166" value="9" style="ellipse;whiteSpace=wrap;html=1;shadow=0;sketch=1;fillStyle=hachure;fontSize=20;fontFamily=Comic Sans MS;fillColor=#FF3333;" parent="1" vertex="1">
          <mxGeometry x="540.5" y="728" width="68" height="57" as="geometry" />
        </mxCell>
        <mxCell id="U9mmGLhQqzgiAe78-ZDL-167" style="edgeStyle=none;shape=link;rounded=0;orthogonalLoop=1;jettySize=auto;html=1;exitX=0;exitY=1;exitDx=0;exitDy=0;fontFamily=Comic Sans MS;fontSize=20;" parent="1" source="U9mmGLhQqzgiAe78-ZDL-169" target="U9mmGLhQqzgiAe78-ZDL-175" edge="1">
          <mxGeometry relative="1" as="geometry" />
        </mxCell>
        <mxCell id="U9mmGLhQqzgiAe78-ZDL-168" style="edgeStyle=none;shape=link;rounded=0;orthogonalLoop=1;jettySize=auto;html=1;exitX=1;exitY=1;exitDx=0;exitDy=0;fontFamily=Comic Sans MS;fontSize=20;" parent="1" source="U9mmGLhQqzgiAe78-ZDL-169" target="U9mmGLhQqzgiAe78-ZDL-176" edge="1">
          <mxGeometry relative="1" as="geometry" />
        </mxCell>
        <mxCell id="U9mmGLhQqzgiAe78-ZDL-169" value="12" style="ellipse;whiteSpace=wrap;html=1;shadow=0;sketch=1;fillStyle=hachure;fontSize=20;fontFamily=Comic Sans MS;fillColor=#FFE6CC;" parent="1" vertex="1">
          <mxGeometry x="736.5" y="728" width="68" height="57" as="geometry" />
        </mxCell>
        <mxCell id="U9mmGLhQqzgiAe78-ZDL-170" style="edgeStyle=none;shape=link;rounded=0;orthogonalLoop=1;jettySize=auto;html=1;exitX=0;exitY=1;exitDx=0;exitDy=0;entryX=0.632;entryY=0.035;entryDx=0;entryDy=0;entryPerimeter=0;fontFamily=Comic Sans MS;fontSize=20;" parent="1" source="U9mmGLhQqzgiAe78-ZDL-172" target="U9mmGLhQqzgiAe78-ZDL-177" edge="1">
          <mxGeometry relative="1" as="geometry" />
        </mxCell>
        <mxCell id="U9mmGLhQqzgiAe78-ZDL-171" style="edgeStyle=none;shape=link;rounded=0;orthogonalLoop=1;jettySize=auto;html=1;exitX=0.5;exitY=1;exitDx=0;exitDy=0;entryX=0.5;entryY=0;entryDx=0;entryDy=0;fontFamily=Comic Sans MS;fontSize=20;" parent="1" source="U9mmGLhQqzgiAe78-ZDL-172" target="U9mmGLhQqzgiAe78-ZDL-178" edge="1">
          <mxGeometry relative="1" as="geometry" />
        </mxCell>
        <mxCell id="U9mmGLhQqzgiAe78-ZDL-172" value="5" style="ellipse;whiteSpace=wrap;html=1;shadow=0;sketch=1;fillStyle=hachure;fontSize=20;fontFamily=Comic Sans MS;fillColor=#97D077;" parent="1" vertex="1">
          <mxGeometry x="461.5" y="814" width="68" height="57" as="geometry" />
        </mxCell>
        <mxCell id="U9mmGLhQqzgiAe78-ZDL-173" style="edgeStyle=none;shape=link;rounded=0;orthogonalLoop=1;jettySize=auto;html=1;exitX=0.5;exitY=1;exitDx=0;exitDy=0;entryX=0.5;entryY=0;entryDx=0;entryDy=0;fontFamily=Comic Sans MS;fontSize=20;" parent="1" source="U9mmGLhQqzgiAe78-ZDL-174" target="U9mmGLhQqzgiAe78-ZDL-179" edge="1">
          <mxGeometry relative="1" as="geometry" />
        </mxCell>
        <mxCell id="U9mmGLhQqzgiAe78-ZDL-174" value="4" style="ellipse;whiteSpace=wrap;html=1;shadow=0;sketch=1;fillStyle=hachure;fillColor=#FFE6CC;fontSize=20;fontFamily=Comic Sans MS;" parent="1" vertex="1">
          <mxGeometry x="587.5" y="819" width="68" height="57" as="geometry" />
        </mxCell>
        <mxCell id="U9mmGLhQqzgiAe78-ZDL-175" value="1" style="ellipse;whiteSpace=wrap;html=1;shadow=0;sketch=1;fillStyle=hachure;fillColor=#FFE6CC;fontSize=20;fontFamily=Comic Sans MS;" parent="1" vertex="1">
          <mxGeometry x="678.5" y="817" width="68" height="57" as="geometry" />
        </mxCell>
        <mxCell id="U9mmGLhQqzgiAe78-ZDL-176" value="8" style="ellipse;whiteSpace=wrap;html=1;shadow=0;sketch=1;fillStyle=hachure;fillColor=#FFE6CC;fontSize=20;fontFamily=Comic Sans MS;" parent="1" vertex="1">
          <mxGeometry x="800.5" y="817" width="68" height="57" as="geometry" />
        </mxCell>
        <mxCell id="U9mmGLhQqzgiAe78-ZDL-177" value="7" style="ellipse;whiteSpace=wrap;html=1;shadow=0;sketch=1;fillStyle=hachure;fillColor=#FFE6CC;fontSize=20;fontFamily=Comic Sans MS;" parent="1" vertex="1">
          <mxGeometry x="395.5" y="906" width="68" height="57" as="geometry" />
        </mxCell>
        <mxCell id="U9mmGLhQqzgiAe78-ZDL-178" value="3" style="ellipse;whiteSpace=wrap;html=1;shadow=0;sketch=1;fillStyle=hachure;fillColor=#FFE6CC;fontSize=20;fontFamily=Comic Sans MS;" parent="1" vertex="1">
          <mxGeometry x="484.5" y="912" width="68" height="57" as="geometry" />
        </mxCell>
        <mxCell id="U9mmGLhQqzgiAe78-ZDL-179" value="2" style="ellipse;whiteSpace=wrap;html=1;shadow=0;sketch=1;fillStyle=hachure;fillColor=#FFE6CC;fontSize=20;fontFamily=Comic Sans MS;" parent="1" vertex="1">
          <mxGeometry x="559.5" y="910" width="68" height="57" as="geometry" />
        </mxCell>
        <mxCell id="U9mmGLhQqzgiAe78-ZDL-181" value="" style="rounded=1;whiteSpace=wrap;html=1;shadow=0;sketch=1;fontFamily=Comic Sans MS;fontSize=20;fillColor=none;dashed=1;" parent="1" vertex="1">
          <mxGeometry x="998" y="788" width="189" height="175" as="geometry" />
        </mxCell>
        <mxCell id="U9mmGLhQqzgiAe78-ZDL-182" style="rounded=0;orthogonalLoop=1;jettySize=auto;html=1;exitX=0;exitY=1;exitDx=0;exitDy=0;entryX=1;entryY=0;entryDx=0;entryDy=0;fontFamily=Comic Sans MS;fontSize=20;shape=link;" parent="1" source="U9mmGLhQqzgiAe78-ZDL-184" target="U9mmGLhQqzgiAe78-ZDL-187" edge="1">
          <mxGeometry relative="1" as="geometry" />
        </mxCell>
        <mxCell id="U9mmGLhQqzgiAe78-ZDL-183" style="edgeStyle=none;shape=link;rounded=0;orthogonalLoop=1;jettySize=auto;html=1;exitX=1;exitY=1;exitDx=0;exitDy=0;fontFamily=Comic Sans MS;fontSize=20;" parent="1" source="U9mmGLhQqzgiAe78-ZDL-184" target="U9mmGLhQqzgiAe78-ZDL-190" edge="1">
          <mxGeometry relative="1" as="geometry" />
        </mxCell>
        <mxCell id="U9mmGLhQqzgiAe78-ZDL-184" value="10" style="ellipse;whiteSpace=wrap;html=1;shadow=0;sketch=1;fillStyle=hachure;fillColor=#FFE6CC;fontSize=20;fontFamily=Comic Sans MS;" parent="1" vertex="1">
          <mxGeometry x="1267" y="635" width="68" height="57" as="geometry" />
        </mxCell>
        <mxCell id="U9mmGLhQqzgiAe78-ZDL-185" style="edgeStyle=none;shape=link;rounded=0;orthogonalLoop=1;jettySize=auto;html=1;exitX=0;exitY=1;exitDx=0;exitDy=0;fontFamily=Comic Sans MS;fontSize=20;" parent="1" source="U9mmGLhQqzgiAe78-ZDL-187" target="U9mmGLhQqzgiAe78-ZDL-193" edge="1">
          <mxGeometry relative="1" as="geometry" />
        </mxCell>
        <mxCell id="U9mmGLhQqzgiAe78-ZDL-186" style="edgeStyle=none;shape=link;rounded=0;orthogonalLoop=1;jettySize=auto;html=1;exitX=1;exitY=1;exitDx=0;exitDy=0;fontFamily=Comic Sans MS;fontSize=20;" parent="1" source="U9mmGLhQqzgiAe78-ZDL-187" target="U9mmGLhQqzgiAe78-ZDL-195" edge="1">
          <mxGeometry relative="1" as="geometry" />
        </mxCell>
        <mxCell id="U9mmGLhQqzgiAe78-ZDL-187" value="9" style="ellipse;whiteSpace=wrap;html=1;shadow=0;sketch=1;fillStyle=hachure;fontSize=20;fontFamily=Comic Sans MS;fillColor=#FF3333;" parent="1" vertex="1">
          <mxGeometry x="1168" y="708" width="68" height="57" as="geometry" />
        </mxCell>
        <mxCell id="U9mmGLhQqzgiAe78-ZDL-188" style="edgeStyle=none;shape=link;rounded=0;orthogonalLoop=1;jettySize=auto;html=1;exitX=0;exitY=1;exitDx=0;exitDy=0;fontFamily=Comic Sans MS;fontSize=20;" parent="1" source="U9mmGLhQqzgiAe78-ZDL-190" target="U9mmGLhQqzgiAe78-ZDL-196" edge="1">
          <mxGeometry relative="1" as="geometry" />
        </mxCell>
        <mxCell id="U9mmGLhQqzgiAe78-ZDL-189" style="edgeStyle=none;shape=link;rounded=0;orthogonalLoop=1;jettySize=auto;html=1;exitX=1;exitY=1;exitDx=0;exitDy=0;fontFamily=Comic Sans MS;fontSize=20;" parent="1" source="U9mmGLhQqzgiAe78-ZDL-190" target="U9mmGLhQqzgiAe78-ZDL-197" edge="1">
          <mxGeometry relative="1" as="geometry" />
        </mxCell>
        <mxCell id="U9mmGLhQqzgiAe78-ZDL-190" value="12" style="ellipse;whiteSpace=wrap;html=1;shadow=0;sketch=1;fillStyle=hachure;fontSize=20;fontFamily=Comic Sans MS;fillColor=#FFE6CC;" parent="1" vertex="1">
          <mxGeometry x="1364" y="708" width="68" height="57" as="geometry" />
        </mxCell>
        <mxCell id="U9mmGLhQqzgiAe78-ZDL-191" style="edgeStyle=none;shape=link;rounded=0;orthogonalLoop=1;jettySize=auto;html=1;exitX=0;exitY=1;exitDx=0;exitDy=0;entryX=0.632;entryY=0.035;entryDx=0;entryDy=0;entryPerimeter=0;fontFamily=Comic Sans MS;fontSize=20;" parent="1" source="U9mmGLhQqzgiAe78-ZDL-193" target="U9mmGLhQqzgiAe78-ZDL-198" edge="1">
          <mxGeometry relative="1" as="geometry" />
        </mxCell>
        <mxCell id="U9mmGLhQqzgiAe78-ZDL-192" style="edgeStyle=none;shape=link;rounded=0;orthogonalLoop=1;jettySize=auto;html=1;exitX=0.5;exitY=1;exitDx=0;exitDy=0;entryX=0.5;entryY=0;entryDx=0;entryDy=0;fontFamily=Comic Sans MS;fontSize=20;" parent="1" source="U9mmGLhQqzgiAe78-ZDL-193" target="U9mmGLhQqzgiAe78-ZDL-199" edge="1">
          <mxGeometry relative="1" as="geometry" />
        </mxCell>
        <mxCell id="U9mmGLhQqzgiAe78-ZDL-193" value="7" style="ellipse;whiteSpace=wrap;html=1;shadow=0;sketch=1;fillStyle=hachure;fontSize=20;fontFamily=Comic Sans MS;fillColor=#FFE6CC;" parent="1" vertex="1">
          <mxGeometry x="1089" y="794" width="68" height="57" as="geometry" />
        </mxCell>
        <mxCell id="U9mmGLhQqzgiAe78-ZDL-194" style="edgeStyle=none;shape=link;rounded=0;orthogonalLoop=1;jettySize=auto;html=1;exitX=0.5;exitY=1;exitDx=0;exitDy=0;entryX=0.5;entryY=0;entryDx=0;entryDy=0;fontFamily=Comic Sans MS;fontSize=20;" parent="1" source="U9mmGLhQqzgiAe78-ZDL-195" target="U9mmGLhQqzgiAe78-ZDL-200" edge="1">
          <mxGeometry relative="1" as="geometry" />
        </mxCell>
        <mxCell id="U9mmGLhQqzgiAe78-ZDL-195" value="4" style="ellipse;whiteSpace=wrap;html=1;shadow=0;sketch=1;fillStyle=hachure;fillColor=#FFE6CC;fontSize=20;fontFamily=Comic Sans MS;" parent="1" vertex="1">
          <mxGeometry x="1215" y="799" width="68" height="57" as="geometry" />
        </mxCell>
        <mxCell id="U9mmGLhQqzgiAe78-ZDL-196" value="1" style="ellipse;whiteSpace=wrap;html=1;shadow=0;sketch=1;fillStyle=hachure;fillColor=#FFE6CC;fontSize=20;fontFamily=Comic Sans MS;" parent="1" vertex="1">
          <mxGeometry x="1306" y="797" width="68" height="57" as="geometry" />
        </mxCell>
        <mxCell id="U9mmGLhQqzgiAe78-ZDL-197" value="8" style="ellipse;whiteSpace=wrap;html=1;shadow=0;sketch=1;fillStyle=hachure;fillColor=#FFE6CC;fontSize=20;fontFamily=Comic Sans MS;" parent="1" vertex="1">
          <mxGeometry x="1428" y="797" width="68" height="57" as="geometry" />
        </mxCell>
        <mxCell id="U9mmGLhQqzgiAe78-ZDL-198" value="5" style="ellipse;whiteSpace=wrap;html=1;shadow=0;sketch=1;fillStyle=hachure;fillColor=#FFE6CC;fontSize=20;fontFamily=Comic Sans MS;" parent="1" vertex="1">
          <mxGeometry x="1023" y="886" width="68" height="57" as="geometry" />
        </mxCell>
        <mxCell id="U9mmGLhQqzgiAe78-ZDL-199" value="3" style="ellipse;whiteSpace=wrap;html=1;shadow=0;sketch=1;fillStyle=hachure;fillColor=#FFE6CC;fontSize=20;fontFamily=Comic Sans MS;" parent="1" vertex="1">
          <mxGeometry x="1112" y="892" width="68" height="57" as="geometry" />
        </mxCell>
        <mxCell id="U9mmGLhQqzgiAe78-ZDL-200" value="2" style="ellipse;whiteSpace=wrap;html=1;shadow=0;sketch=1;fillStyle=hachure;fillColor=#FFE6CC;fontSize=20;fontFamily=Comic Sans MS;" parent="1" vertex="1">
          <mxGeometry x="1187" y="890" width="68" height="57" as="geometry" />
        </mxCell>
        <mxCell id="U9mmGLhQqzgiAe78-ZDL-201" value="" style="rounded=1;whiteSpace=wrap;html=1;shadow=0;sketch=1;fontFamily=Comic Sans MS;fontSize=20;fillColor=none;dashed=1;" parent="1" vertex="1">
          <mxGeometry x="642.5" y="1158" width="223" height="172" as="geometry" />
        </mxCell>
        <mxCell id="U9mmGLhQqzgiAe78-ZDL-202" style="rounded=0;orthogonalLoop=1;jettySize=auto;html=1;exitX=0;exitY=1;exitDx=0;exitDy=0;entryX=1;entryY=0;entryDx=0;entryDy=0;fontFamily=Comic Sans MS;fontSize=20;shape=link;" parent="1" source="U9mmGLhQqzgiAe78-ZDL-204" target="U9mmGLhQqzgiAe78-ZDL-207" edge="1">
          <mxGeometry relative="1" as="geometry" />
        </mxCell>
        <mxCell id="U9mmGLhQqzgiAe78-ZDL-203" style="edgeStyle=none;shape=link;rounded=0;orthogonalLoop=1;jettySize=auto;html=1;exitX=1;exitY=1;exitDx=0;exitDy=0;fontFamily=Comic Sans MS;fontSize=20;" parent="1" source="U9mmGLhQqzgiAe78-ZDL-204" target="U9mmGLhQqzgiAe78-ZDL-210" edge="1">
          <mxGeometry relative="1" as="geometry" />
        </mxCell>
        <mxCell id="U9mmGLhQqzgiAe78-ZDL-204" value="12" style="ellipse;whiteSpace=wrap;html=1;shadow=0;sketch=1;fillStyle=hachure;fontSize=20;fontFamily=Comic Sans MS;fillColor=#FFE6CC;" parent="1" vertex="1">
          <mxGeometry x="614.5" y="1093" width="68" height="57" as="geometry" />
        </mxCell>
        <mxCell id="U9mmGLhQqzgiAe78-ZDL-205" style="edgeStyle=none;shape=link;rounded=0;orthogonalLoop=1;jettySize=auto;html=1;exitX=0;exitY=1;exitDx=0;exitDy=0;fontFamily=Comic Sans MS;fontSize=20;" parent="1" source="U9mmGLhQqzgiAe78-ZDL-207" target="U9mmGLhQqzgiAe78-ZDL-213" edge="1">
          <mxGeometry relative="1" as="geometry" />
        </mxCell>
        <mxCell id="U9mmGLhQqzgiAe78-ZDL-206" style="edgeStyle=none;shape=link;rounded=0;orthogonalLoop=1;jettySize=auto;html=1;exitX=1;exitY=1;exitDx=0;exitDy=0;fontFamily=Comic Sans MS;fontSize=20;" parent="1" source="U9mmGLhQqzgiAe78-ZDL-207" target="U9mmGLhQqzgiAe78-ZDL-215" edge="1">
          <mxGeometry relative="1" as="geometry" />
        </mxCell>
        <mxCell id="U9mmGLhQqzgiAe78-ZDL-207" value="9" style="ellipse;whiteSpace=wrap;html=1;shadow=0;sketch=1;fillStyle=hachure;fontSize=20;fontFamily=Comic Sans MS;fillColor=#FFE6CC;" parent="1" vertex="1">
          <mxGeometry x="515.5" y="1166" width="68" height="57" as="geometry" />
        </mxCell>
        <mxCell id="U9mmGLhQqzgiAe78-ZDL-208" style="edgeStyle=none;shape=link;rounded=0;orthogonalLoop=1;jettySize=auto;html=1;exitX=0;exitY=1;exitDx=0;exitDy=0;fontFamily=Comic Sans MS;fontSize=20;" parent="1" source="U9mmGLhQqzgiAe78-ZDL-210" target="U9mmGLhQqzgiAe78-ZDL-216" edge="1">
          <mxGeometry relative="1" as="geometry" />
        </mxCell>
        <mxCell id="U9mmGLhQqzgiAe78-ZDL-209" style="edgeStyle=none;shape=link;rounded=0;orthogonalLoop=1;jettySize=auto;html=1;exitX=1;exitY=1;exitDx=0;exitDy=0;fontFamily=Comic Sans MS;fontSize=20;" parent="1" source="U9mmGLhQqzgiAe78-ZDL-210" target="U9mmGLhQqzgiAe78-ZDL-217" edge="1">
          <mxGeometry relative="1" as="geometry" />
        </mxCell>
        <mxCell id="U9mmGLhQqzgiAe78-ZDL-210" value="10" style="ellipse;whiteSpace=wrap;html=1;shadow=0;sketch=1;fillStyle=hachure;fontSize=20;fontFamily=Comic Sans MS;fillColor=#FF3333;" parent="1" vertex="1">
          <mxGeometry x="711.5" y="1166" width="68" height="57" as="geometry" />
        </mxCell>
        <mxCell id="U9mmGLhQqzgiAe78-ZDL-211" style="edgeStyle=none;shape=link;rounded=0;orthogonalLoop=1;jettySize=auto;html=1;exitX=0;exitY=1;exitDx=0;exitDy=0;entryX=0.632;entryY=0.035;entryDx=0;entryDy=0;entryPerimeter=0;fontFamily=Comic Sans MS;fontSize=20;" parent="1" source="U9mmGLhQqzgiAe78-ZDL-213" target="U9mmGLhQqzgiAe78-ZDL-218" edge="1">
          <mxGeometry relative="1" as="geometry" />
        </mxCell>
        <mxCell id="U9mmGLhQqzgiAe78-ZDL-212" style="edgeStyle=none;shape=link;rounded=0;orthogonalLoop=1;jettySize=auto;html=1;exitX=0.5;exitY=1;exitDx=0;exitDy=0;entryX=0.5;entryY=0;entryDx=0;entryDy=0;fontFamily=Comic Sans MS;fontSize=20;" parent="1" source="U9mmGLhQqzgiAe78-ZDL-213" target="U9mmGLhQqzgiAe78-ZDL-219" edge="1">
          <mxGeometry relative="1" as="geometry" />
        </mxCell>
        <mxCell id="U9mmGLhQqzgiAe78-ZDL-213" value="7" style="ellipse;whiteSpace=wrap;html=1;shadow=0;sketch=1;fillStyle=hachure;fontSize=20;fontFamily=Comic Sans MS;fillColor=#FFE6CC;" parent="1" vertex="1">
          <mxGeometry x="436.5" y="1252" width="68" height="57" as="geometry" />
        </mxCell>
        <mxCell id="U9mmGLhQqzgiAe78-ZDL-214" style="edgeStyle=none;shape=link;rounded=0;orthogonalLoop=1;jettySize=auto;html=1;exitX=0.5;exitY=1;exitDx=0;exitDy=0;entryX=0.5;entryY=0;entryDx=0;entryDy=0;fontFamily=Comic Sans MS;fontSize=20;" parent="1" source="U9mmGLhQqzgiAe78-ZDL-215" target="U9mmGLhQqzgiAe78-ZDL-220" edge="1">
          <mxGeometry relative="1" as="geometry" />
        </mxCell>
        <mxCell id="U9mmGLhQqzgiAe78-ZDL-215" value="4" style="ellipse;whiteSpace=wrap;html=1;shadow=0;sketch=1;fillStyle=hachure;fillColor=#FFE6CC;fontSize=20;fontFamily=Comic Sans MS;" parent="1" vertex="1">
          <mxGeometry x="562.5" y="1257" width="68" height="57" as="geometry" />
        </mxCell>
        <mxCell id="U9mmGLhQqzgiAe78-ZDL-216" value="1" style="ellipse;whiteSpace=wrap;html=1;shadow=0;sketch=1;fillStyle=hachure;fillColor=#FFE6CC;fontSize=20;fontFamily=Comic Sans MS;" parent="1" vertex="1">
          <mxGeometry x="653.5" y="1255" width="68" height="57" as="geometry" />
        </mxCell>
        <mxCell id="U9mmGLhQqzgiAe78-ZDL-217" value="8" style="ellipse;whiteSpace=wrap;html=1;shadow=0;sketch=1;fillStyle=hachure;fillColor=#FFE6CC;fontSize=20;fontFamily=Comic Sans MS;" parent="1" vertex="1">
          <mxGeometry x="775.5" y="1255" width="68" height="57" as="geometry" />
        </mxCell>
        <mxCell id="U9mmGLhQqzgiAe78-ZDL-218" value="5" style="ellipse;whiteSpace=wrap;html=1;shadow=0;sketch=1;fillStyle=hachure;fillColor=#FFE6CC;fontSize=20;fontFamily=Comic Sans MS;" parent="1" vertex="1">
          <mxGeometry x="370.5" y="1344" width="68" height="57" as="geometry" />
        </mxCell>
        <mxCell id="U9mmGLhQqzgiAe78-ZDL-219" value="3" style="ellipse;whiteSpace=wrap;html=1;shadow=0;sketch=1;fillStyle=hachure;fillColor=#FFE6CC;fontSize=20;fontFamily=Comic Sans MS;" parent="1" vertex="1">
          <mxGeometry x="459.5" y="1350" width="68" height="57" as="geometry" />
        </mxCell>
        <mxCell id="U9mmGLhQqzgiAe78-ZDL-220" value="2" style="ellipse;whiteSpace=wrap;html=1;shadow=0;sketch=1;fillStyle=hachure;fillColor=#FFE6CC;fontSize=20;fontFamily=Comic Sans MS;" parent="1" vertex="1">
          <mxGeometry x="534.5" y="1348" width="68" height="57" as="geometry" />
        </mxCell>
        <mxCell id="U9mmGLhQqzgiAe78-ZDL-222" style="rounded=0;orthogonalLoop=1;jettySize=auto;html=1;exitX=0;exitY=1;exitDx=0;exitDy=0;entryX=1;entryY=0;entryDx=0;entryDy=0;fontFamily=Comic Sans MS;fontSize=20;shape=link;" parent="1" source="U9mmGLhQqzgiAe78-ZDL-224" target="U9mmGLhQqzgiAe78-ZDL-227" edge="1">
          <mxGeometry relative="1" as="geometry" />
        </mxCell>
        <mxCell id="U9mmGLhQqzgiAe78-ZDL-223" style="edgeStyle=none;shape=link;rounded=0;orthogonalLoop=1;jettySize=auto;html=1;exitX=1;exitY=1;exitDx=0;exitDy=0;fontFamily=Comic Sans MS;fontSize=20;" parent="1" source="U9mmGLhQqzgiAe78-ZDL-224" target="U9mmGLhQqzgiAe78-ZDL-230" edge="1">
          <mxGeometry relative="1" as="geometry" />
        </mxCell>
        <mxCell id="U9mmGLhQqzgiAe78-ZDL-224" value="12" style="ellipse;whiteSpace=wrap;html=1;shadow=0;sketch=1;fillStyle=hachure;fontSize=20;fontFamily=Comic Sans MS;fillColor=#FFE6CC;" parent="1" vertex="1">
          <mxGeometry x="1248" y="1091" width="68" height="57" as="geometry" />
        </mxCell>
        <mxCell id="U9mmGLhQqzgiAe78-ZDL-225" style="edgeStyle=none;shape=link;rounded=0;orthogonalLoop=1;jettySize=auto;html=1;exitX=0;exitY=1;exitDx=0;exitDy=0;fontFamily=Comic Sans MS;fontSize=20;" parent="1" source="U9mmGLhQqzgiAe78-ZDL-227" target="U9mmGLhQqzgiAe78-ZDL-233" edge="1">
          <mxGeometry relative="1" as="geometry" />
        </mxCell>
        <mxCell id="U9mmGLhQqzgiAe78-ZDL-226" style="edgeStyle=none;shape=link;rounded=0;orthogonalLoop=1;jettySize=auto;html=1;exitX=1;exitY=1;exitDx=0;exitDy=0;fontFamily=Comic Sans MS;fontSize=20;" parent="1" source="U9mmGLhQqzgiAe78-ZDL-227" target="U9mmGLhQqzgiAe78-ZDL-235" edge="1">
          <mxGeometry relative="1" as="geometry" />
        </mxCell>
        <mxCell id="U9mmGLhQqzgiAe78-ZDL-227" value="9" style="ellipse;whiteSpace=wrap;html=1;shadow=0;sketch=1;fillStyle=hachure;fontSize=20;fontFamily=Comic Sans MS;fillColor=#FFE6CC;" parent="1" vertex="1">
          <mxGeometry x="1149" y="1164" width="68" height="57" as="geometry" />
        </mxCell>
        <mxCell id="U9mmGLhQqzgiAe78-ZDL-228" style="edgeStyle=none;shape=link;rounded=0;orthogonalLoop=1;jettySize=auto;html=1;exitX=0;exitY=1;exitDx=0;exitDy=0;fontFamily=Comic Sans MS;fontSize=20;" parent="1" source="U9mmGLhQqzgiAe78-ZDL-230" target="U9mmGLhQqzgiAe78-ZDL-236" edge="1">
          <mxGeometry relative="1" as="geometry" />
        </mxCell>
        <mxCell id="U9mmGLhQqzgiAe78-ZDL-229" style="edgeStyle=none;shape=link;rounded=0;orthogonalLoop=1;jettySize=auto;html=1;exitX=1;exitY=1;exitDx=0;exitDy=0;fontFamily=Comic Sans MS;fontSize=20;" parent="1" source="U9mmGLhQqzgiAe78-ZDL-230" target="U9mmGLhQqzgiAe78-ZDL-237" edge="1">
          <mxGeometry relative="1" as="geometry" />
        </mxCell>
        <mxCell id="U9mmGLhQqzgiAe78-ZDL-230" value="10" style="ellipse;whiteSpace=wrap;html=1;shadow=0;sketch=1;fillStyle=hachure;fontSize=20;fontFamily=Comic Sans MS;fillColor=#FFE6CC;" parent="1" vertex="1">
          <mxGeometry x="1345" y="1164" width="68" height="57" as="geometry" />
        </mxCell>
        <mxCell id="U9mmGLhQqzgiAe78-ZDL-231" style="edgeStyle=none;shape=link;rounded=0;orthogonalLoop=1;jettySize=auto;html=1;exitX=0;exitY=1;exitDx=0;exitDy=0;entryX=0.632;entryY=0.035;entryDx=0;entryDy=0;entryPerimeter=0;fontFamily=Comic Sans MS;fontSize=20;" parent="1" source="U9mmGLhQqzgiAe78-ZDL-233" target="U9mmGLhQqzgiAe78-ZDL-238" edge="1">
          <mxGeometry relative="1" as="geometry" />
        </mxCell>
        <mxCell id="U9mmGLhQqzgiAe78-ZDL-232" style="edgeStyle=none;shape=link;rounded=0;orthogonalLoop=1;jettySize=auto;html=1;exitX=0.5;exitY=1;exitDx=0;exitDy=0;entryX=0.5;entryY=0;entryDx=0;entryDy=0;fontFamily=Comic Sans MS;fontSize=20;" parent="1" source="U9mmGLhQqzgiAe78-ZDL-233" target="U9mmGLhQqzgiAe78-ZDL-239" edge="1">
          <mxGeometry relative="1" as="geometry" />
        </mxCell>
        <mxCell id="U9mmGLhQqzgiAe78-ZDL-233" value="7" style="ellipse;whiteSpace=wrap;html=1;shadow=0;sketch=1;fillStyle=hachure;fontSize=20;fontFamily=Comic Sans MS;fillColor=#FFE6CC;" parent="1" vertex="1">
          <mxGeometry x="1070" y="1250" width="68" height="57" as="geometry" />
        </mxCell>
        <mxCell id="U9mmGLhQqzgiAe78-ZDL-234" style="edgeStyle=none;shape=link;rounded=0;orthogonalLoop=1;jettySize=auto;html=1;exitX=0.5;exitY=1;exitDx=0;exitDy=0;entryX=0.5;entryY=0;entryDx=0;entryDy=0;fontFamily=Comic Sans MS;fontSize=20;" parent="1" source="U9mmGLhQqzgiAe78-ZDL-235" target="U9mmGLhQqzgiAe78-ZDL-240" edge="1">
          <mxGeometry relative="1" as="geometry" />
        </mxCell>
        <mxCell id="U9mmGLhQqzgiAe78-ZDL-235" value="4" style="ellipse;whiteSpace=wrap;html=1;shadow=0;sketch=1;fillStyle=hachure;fillColor=#FFE6CC;fontSize=20;fontFamily=Comic Sans MS;" parent="1" vertex="1">
          <mxGeometry x="1196" y="1255" width="68" height="57" as="geometry" />
        </mxCell>
        <mxCell id="U9mmGLhQqzgiAe78-ZDL-236" value="1" style="ellipse;whiteSpace=wrap;html=1;shadow=0;sketch=1;fillStyle=hachure;fillColor=#FFE6CC;fontSize=20;fontFamily=Comic Sans MS;" parent="1" vertex="1">
          <mxGeometry x="1287" y="1253" width="68" height="57" as="geometry" />
        </mxCell>
        <mxCell id="U9mmGLhQqzgiAe78-ZDL-237" value="8" style="ellipse;whiteSpace=wrap;html=1;shadow=0;sketch=1;fillStyle=hachure;fillColor=#FFE6CC;fontSize=20;fontFamily=Comic Sans MS;" parent="1" vertex="1">
          <mxGeometry x="1409" y="1253" width="68" height="57" as="geometry" />
        </mxCell>
        <mxCell id="U9mmGLhQqzgiAe78-ZDL-238" value="5" style="ellipse;whiteSpace=wrap;html=1;shadow=0;sketch=1;fillStyle=hachure;fillColor=#FFE6CC;fontSize=20;fontFamily=Comic Sans MS;" parent="1" vertex="1">
          <mxGeometry x="1004" y="1342" width="68" height="57" as="geometry" />
        </mxCell>
        <mxCell id="U9mmGLhQqzgiAe78-ZDL-239" value="3" style="ellipse;whiteSpace=wrap;html=1;shadow=0;sketch=1;fillStyle=hachure;fillColor=#FFE6CC;fontSize=20;fontFamily=Comic Sans MS;" parent="1" vertex="1">
          <mxGeometry x="1093" y="1348" width="68" height="57" as="geometry" />
        </mxCell>
        <mxCell id="U9mmGLhQqzgiAe78-ZDL-240" value="2" style="ellipse;whiteSpace=wrap;html=1;shadow=0;sketch=1;fillStyle=hachure;fillColor=#FFE6CC;fontSize=20;fontFamily=Comic Sans MS;" parent="1" vertex="1">
          <mxGeometry x="1168" y="1346" width="68" height="57" as="geometry" />
        </mxCell>
        <mxCell id="U9mmGLhQqzgiAe78-ZDL-242" value="" style="rounded=0;whiteSpace=wrap;html=1;shadow=0;dashed=1;sketch=1;fontFamily=Comic Sans MS;fontSize=20;fillColor=#FFB366;" parent="1" vertex="1">
          <mxGeometry x="21.5" y="1947" width="212" height="14" as="geometry" />
        </mxCell>
        <mxCell id="U9mmGLhQqzgiAe78-ZDL-13" value="" style="rounded=1;whiteSpace=wrap;html=1;shadow=0;dashed=1;sketch=1;fontFamily=Comic Sans MS;fontSize=20;fillColor=#FF0000;" vertex="1" parent="1">
          <mxGeometry x="110.5" y="1944" width="16" height="18" as="geometry" />
        </mxCell>
        <mxCell id="U9mmGLhQqzgiAe78-ZDL-79" style="edgeStyle=none;rounded=0;orthogonalLoop=1;jettySize=auto;html=1;exitX=0.5;exitY=1;exitDx=0;exitDy=0;entryX=0.5;entryY=0;entryDx=0;entryDy=0;fontFamily=Comic Sans MS;fontSize=20;" edge="1" parent="1" source="U9mmGLhQqzgiAe78-ZDL-20" target="U9mmGLhQqzgiAe78-ZDL-13">
          <mxGeometry relative="1" as="geometry" />
        </mxCell>
        <mxCell id="U9mmGLhQqzgiAe78-ZDL-20" value="root" style="text;html=1;strokeColor=none;fillColor=none;align=center;verticalAlign=middle;whiteSpace=wrap;rounded=0;shadow=0;dashed=1;sketch=1;fontFamily=Comic Sans MS;fontSize=20;" vertex="1" parent="1">
          <mxGeometry x="97.75" y="1880" width="40" height="20" as="geometry" />
        </mxCell>
        <mxCell id="U9mmGLhQqzgiAe78-ZDL-243" style="edgeStyle=none;rounded=0;orthogonalLoop=1;jettySize=auto;html=1;fontFamily=Comic Sans MS;fontSize=20;" edge="1" parent="1">
          <mxGeometry relative="1" as="geometry">
            <mxPoint x="-174" y="1727" as="targetPoint" />
            <mxPoint x="-112" y="1685" as="sourcePoint" />
          </mxGeometry>
        </mxCell>
        <mxCell id="U9mmGLhQqzgiAe78-ZDL-248" style="edgeStyle=none;rounded=0;orthogonalLoop=1;jettySize=auto;html=1;exitX=0;exitY=1;exitDx=0;exitDy=0;fontFamily=Comic Sans MS;fontSize=20;" edge="1" parent="1" source="U9mmGLhQqzgiAe78-ZDL-221" target="U9mmGLhQqzgiAe78-ZDL-246">
          <mxGeometry relative="1" as="geometry" />
        </mxCell>
        <mxCell id="U9mmGLhQqzgiAe78-ZDL-249" style="edgeStyle=none;rounded=0;orthogonalLoop=1;jettySize=auto;html=1;exitX=1;exitY=1;exitDx=0;exitDy=0;fontFamily=Comic Sans MS;fontSize=20;" edge="1" parent="1" source="U9mmGLhQqzgiAe78-ZDL-221" target="U9mmGLhQqzgiAe78-ZDL-247">
          <mxGeometry relative="1" as="geometry" />
        </mxCell>
        <mxCell id="U9mmGLhQqzgiAe78-ZDL-221" value="" style="ellipse;whiteSpace=wrap;html=1;shadow=0;dashed=1;sketch=1;fontFamily=Comic Sans MS;fontSize=20;fillColor=#D5E8D4;" vertex="1" parent="1">
          <mxGeometry x="-206" y="1719" width="35" height="32" as="geometry" />
        </mxCell>
        <mxCell id="U9mmGLhQqzgiAe78-ZDL-245" value="root" style="text;html=1;strokeColor=none;fillColor=none;align=center;verticalAlign=middle;whiteSpace=wrap;rounded=0;shadow=0;dashed=1;sketch=1;fontFamily=Comic Sans MS;fontSize=20;" vertex="1" parent="1">
          <mxGeometry x="-110" y="1676" width="40" height="20" as="geometry" />
        </mxCell>
        <mxCell id="U9mmGLhQqzgiAe78-ZDL-246" value="" style="ellipse;whiteSpace=wrap;html=1;shadow=0;dashed=1;sketch=1;fontFamily=Comic Sans MS;fontSize=20;fillColor=#D5E8D4;" vertex="1" parent="1">
          <mxGeometry x="-259.75" y="1785" width="35" height="32" as="geometry" />
        </mxCell>
        <mxCell id="U9mmGLhQqzgiAe78-ZDL-247" value="" style="ellipse;whiteSpace=wrap;html=1;shadow=0;dashed=1;sketch=1;fontFamily=Comic Sans MS;fontSize=20;fillColor=#D5E8D4;" vertex="1" parent="1">
          <mxGeometry x="-160" y="1785" width="35" height="32" as="geometry" />
        </mxCell>
        <mxCell id="U9mmGLhQqzgiAe78-ZDL-250" value="..." style="text;html=1;strokeColor=none;fillColor=none;align=center;verticalAlign=middle;whiteSpace=wrap;rounded=0;shadow=0;dashed=1;sketch=1;fontFamily=Comic Sans MS;fontSize=30;fontStyle=1" vertex="1" parent="1">
          <mxGeometry x="-279" y="1825" width="51" height="26" as="geometry" />
        </mxCell>
        <mxCell id="U9mmGLhQqzgiAe78-ZDL-251" value="..." style="text;html=1;strokeColor=none;fillColor=none;align=center;verticalAlign=middle;whiteSpace=wrap;rounded=0;shadow=0;dashed=1;sketch=1;fontFamily=Comic Sans MS;fontSize=30;fontStyle=1" vertex="1" parent="1">
          <mxGeometry x="-163" y="1825" width="51" height="26" as="geometry" />
        </mxCell>
        <mxCell id="U9mmGLhQqzgiAe78-ZDL-257" value="" style="shape=flexArrow;endArrow=classic;html=1;fontFamily=Comic Sans MS;fontSize=30;" edge="1" parent="1">
          <mxGeometry width="50" height="50" relative="1" as="geometry">
            <mxPoint x="-35" y="1799" as="sourcePoint" />
            <mxPoint x="39" y="1799" as="targetPoint" />
          </mxGeometry>
        </mxCell>
        <mxCell id="U9mmGLhQqzgiAe78-ZDL-258" value="" style="rounded=0;whiteSpace=wrap;html=1;shadow=0;dashed=1;sketch=1;fillColor=#D5E8D4;fontFamily=Comic Sans MS;fontSize=30;" vertex="1" parent="1">
          <mxGeometry x="55" y="2041" width="161.75" height="14" as="geometry" />
        </mxCell>
        <mxCell id="U9mmGLhQqzgiAe78-ZDL-261" style="edgeStyle=none;rounded=0;orthogonalLoop=1;jettySize=auto;html=1;exitX=0.75;exitY=1;exitDx=0;exitDy=0;entryX=0;entryY=0;entryDx=0;entryDy=0;fontFamily=Comic Sans MS;fontSize=20;" edge="1" parent="1" source="U9mmGLhQqzgiAe78-ZDL-259" target="U9mmGLhQqzgiAe78-ZDL-258">
          <mxGeometry relative="1" as="geometry" />
        </mxCell>
        <mxCell id="U9mmGLhQqzgiAe78-ZDL-259" value="low" style="text;html=1;strokeColor=none;fillColor=none;align=center;verticalAlign=middle;whiteSpace=wrap;rounded=0;shadow=0;dashed=1;sketch=1;fontFamily=Comic Sans MS;fontSize=20;" vertex="1" parent="1">
          <mxGeometry x="27" y="1991" width="40" height="20" as="geometry" />
        </mxCell>
        <mxCell id="U9mmGLhQqzgiAe78-ZDL-264" style="edgeStyle=none;rounded=0;orthogonalLoop=1;jettySize=auto;html=1;exitX=0.5;exitY=1;exitDx=0;exitDy=0;entryX=1;entryY=0;entryDx=0;entryDy=0;fontFamily=Comic Sans MS;fontSize=20;" edge="1" parent="1" source="U9mmGLhQqzgiAe78-ZDL-260" target="U9mmGLhQqzgiAe78-ZDL-258">
          <mxGeometry relative="1" as="geometry" />
        </mxCell>
        <mxCell id="U9mmGLhQqzgiAe78-ZDL-260" value="high" style="text;html=1;strokeColor=none;fillColor=none;align=center;verticalAlign=middle;whiteSpace=wrap;rounded=0;shadow=0;dashed=1;sketch=1;fontFamily=Comic Sans MS;fontSize=20;" vertex="1" parent="1">
          <mxGeometry x="197" y="1986" width="40" height="20" as="geometry" />
        </mxCell>
        <mxCell id="U9mmGLhQqzgiAe78-ZDL-265" value="" style="rounded=0;whiteSpace=wrap;html=1;shadow=0;dashed=1;sketch=1;fontFamily=Comic Sans MS;fontSize=20;fillColor=#FFB366;" vertex="1" parent="1">
          <mxGeometry x="161" y="2273" width="209" height="14" as="geometry" />
        </mxCell>
        <mxCell id="U9mmGLhQqzgiAe78-ZDL-266" value="" style="rounded=1;whiteSpace=wrap;html=1;shadow=0;dashed=1;sketch=1;fontFamily=Comic Sans MS;fontSize=20;fillColor=#FF0000;" vertex="1" parent="1">
          <mxGeometry x="250" y="2270" width="16" height="18" as="geometry" />
        </mxCell>
        <mxCell id="U9mmGLhQqzgiAe78-ZDL-274" style="edgeStyle=none;rounded=0;orthogonalLoop=1;jettySize=auto;html=1;exitX=0.5;exitY=0;exitDx=0;exitDy=0;entryX=0.25;entryY=1;entryDx=0;entryDy=0;fontFamily=Comic Sans MS;fontSize=20;" edge="1" parent="1" source="U9mmGLhQqzgiAe78-ZDL-268" target="U9mmGLhQqzgiAe78-ZDL-266">
          <mxGeometry relative="1" as="geometry" />
        </mxCell>
        <mxCell id="U9mmGLhQqzgiAe78-ZDL-268" value="root" style="text;html=1;strokeColor=none;fillColor=none;align=center;verticalAlign=middle;whiteSpace=wrap;rounded=0;shadow=0;dashed=1;sketch=1;fontFamily=Comic Sans MS;fontSize=20;" vertex="1" parent="1">
          <mxGeometry x="235" y="2328" width="40" height="20" as="geometry" />
        </mxCell>
        <mxCell id="U9mmGLhQqzgiAe78-ZDL-269" value="" style="rounded=0;whiteSpace=wrap;html=1;shadow=0;dashed=1;sketch=1;fillColor=#D5E8D4;fontFamily=Comic Sans MS;fontSize=30;" vertex="1" parent="1">
          <mxGeometry x="64" y="2273" width="157.88" height="14" as="geometry" />
        </mxCell>
        <mxCell id="U9mmGLhQqzgiAe78-ZDL-270" style="edgeStyle=none;rounded=0;orthogonalLoop=1;jettySize=auto;html=1;exitX=0.75;exitY=1;exitDx=0;exitDy=0;entryX=0;entryY=0;entryDx=0;entryDy=0;fontFamily=Comic Sans MS;fontSize=20;" edge="1" parent="1" source="U9mmGLhQqzgiAe78-ZDL-271" target="U9mmGLhQqzgiAe78-ZDL-269">
          <mxGeometry relative="1" as="geometry" />
        </mxCell>
        <mxCell id="U9mmGLhQqzgiAe78-ZDL-271" value="low" style="text;html=1;strokeColor=none;fillColor=none;align=center;verticalAlign=middle;whiteSpace=wrap;rounded=0;shadow=0;dashed=1;sketch=1;fontFamily=Comic Sans MS;fontSize=20;" vertex="1" parent="1">
          <mxGeometry x="35" y="2228" width="40" height="20" as="geometry" />
        </mxCell>
        <mxCell id="U9mmGLhQqzgiAe78-ZDL-272" style="edgeStyle=none;rounded=0;orthogonalLoop=1;jettySize=auto;html=1;exitX=0.5;exitY=1;exitDx=0;exitDy=0;entryX=1;entryY=0;entryDx=0;entryDy=0;fontFamily=Comic Sans MS;fontSize=20;" edge="1" parent="1" source="U9mmGLhQqzgiAe78-ZDL-273" target="U9mmGLhQqzgiAe78-ZDL-269">
          <mxGeometry relative="1" as="geometry" />
        </mxCell>
        <mxCell id="U9mmGLhQqzgiAe78-ZDL-273" value="high" style="text;html=1;strokeColor=none;fillColor=none;align=center;verticalAlign=middle;whiteSpace=wrap;rounded=0;shadow=0;dashed=1;sketch=1;fontFamily=Comic Sans MS;fontSize=20;" vertex="1" parent="1">
          <mxGeometry x="202.13" y="2218" width="40" height="20" as="geometry" />
        </mxCell>
        <mxCell id="U9mmGLhQqzgiAe78-ZDL-275" value="" style="rounded=0;whiteSpace=wrap;html=1;shadow=0;dashed=1;sketch=1;fontFamily=Comic Sans MS;fontSize=20;fillColor=#FFB366;" vertex="1" parent="1">
          <mxGeometry x="60.25" y="2481" width="209" height="14" as="geometry" />
        </mxCell>
        <mxCell id="U9mmGLhQqzgiAe78-ZDL-276" value="" style="rounded=1;whiteSpace=wrap;html=1;shadow=0;dashed=1;sketch=1;fontFamily=Comic Sans MS;fontSize=20;fillColor=#FF0000;" vertex="1" parent="1">
          <mxGeometry x="149.25" y="2478" width="16" height="18" as="geometry" />
        </mxCell>
        <mxCell id="U9mmGLhQqzgiAe78-ZDL-277" style="edgeStyle=none;rounded=0;orthogonalLoop=1;jettySize=auto;html=1;exitX=0.5;exitY=0;exitDx=0;exitDy=0;entryX=0.25;entryY=1;entryDx=0;entryDy=0;fontFamily=Comic Sans MS;fontSize=20;" edge="1" parent="1" source="U9mmGLhQqzgiAe78-ZDL-278" target="U9mmGLhQqzgiAe78-ZDL-276">
          <mxGeometry relative="1" as="geometry" />
        </mxCell>
        <mxCell id="U9mmGLhQqzgiAe78-ZDL-278" value="root" style="text;html=1;strokeColor=none;fillColor=none;align=center;verticalAlign=middle;whiteSpace=wrap;rounded=0;shadow=0;dashed=1;sketch=1;fontFamily=Comic Sans MS;fontSize=20;" vertex="1" parent="1">
          <mxGeometry x="134.25" y="2536" width="40" height="20" as="geometry" />
        </mxCell>
        <mxCell id="U9mmGLhQqzgiAe78-ZDL-279" value="" style="rounded=0;whiteSpace=wrap;html=1;shadow=0;dashed=1;sketch=1;fillColor=#D5E8D4;fontFamily=Comic Sans MS;fontSize=30;" vertex="1" parent="1">
          <mxGeometry x="209.5" y="2481" width="157.88" height="14" as="geometry" />
        </mxCell>
        <mxCell id="U9mmGLhQqzgiAe78-ZDL-280" style="edgeStyle=none;rounded=0;orthogonalLoop=1;jettySize=auto;html=1;exitX=0.75;exitY=1;exitDx=0;exitDy=0;entryX=0;entryY=0;entryDx=0;entryDy=0;fontFamily=Comic Sans MS;fontSize=20;" edge="1" parent="1" source="U9mmGLhQqzgiAe78-ZDL-281" target="U9mmGLhQqzgiAe78-ZDL-279">
          <mxGeometry relative="1" as="geometry" />
        </mxCell>
        <mxCell id="U9mmGLhQqzgiAe78-ZDL-281" value="low" style="text;html=1;strokeColor=none;fillColor=none;align=center;verticalAlign=middle;whiteSpace=wrap;rounded=0;shadow=0;dashed=1;sketch=1;fontFamily=Comic Sans MS;fontSize=20;" vertex="1" parent="1">
          <mxGeometry x="180.5" y="2436" width="40" height="20" as="geometry" />
        </mxCell>
        <mxCell id="U9mmGLhQqzgiAe78-ZDL-282" style="edgeStyle=none;rounded=0;orthogonalLoop=1;jettySize=auto;html=1;exitX=0.5;exitY=1;exitDx=0;exitDy=0;entryX=1;entryY=0;entryDx=0;entryDy=0;fontFamily=Comic Sans MS;fontSize=20;" edge="1" parent="1" source="U9mmGLhQqzgiAe78-ZDL-283" target="U9mmGLhQqzgiAe78-ZDL-279">
          <mxGeometry relative="1" as="geometry" />
        </mxCell>
        <mxCell id="U9mmGLhQqzgiAe78-ZDL-283" value="high" style="text;html=1;strokeColor=none;fillColor=none;align=center;verticalAlign=middle;whiteSpace=wrap;rounded=0;shadow=0;dashed=1;sketch=1;fontFamily=Comic Sans MS;fontSize=20;" vertex="1" parent="1">
          <mxGeometry x="347.63" y="2426" width="40" height="20" as="geometry" />
        </mxCell>
        <mxCell id="U9mmGLhQqzgiAe78-ZDL-284" value="" style="rounded=0;whiteSpace=wrap;html=1;shadow=0;dashed=1;sketch=1;fontFamily=Comic Sans MS;fontSize=20;fillColor=#FFB366;" vertex="1" parent="1">
          <mxGeometry x="111" y="2785" width="209" height="14" as="geometry" />
        </mxCell>
        <mxCell id="U9mmGLhQqzgiAe78-ZDL-285" value="" style="rounded=1;whiteSpace=wrap;html=1;shadow=0;dashed=1;sketch=1;fontFamily=Comic Sans MS;fontSize=20;fillColor=#FF0000;" vertex="1" parent="1">
          <mxGeometry x="200" y="2782" width="16" height="18" as="geometry" />
        </mxCell>
        <mxCell id="U9mmGLhQqzgiAe78-ZDL-286" style="edgeStyle=none;rounded=0;orthogonalLoop=1;jettySize=auto;html=1;exitX=0.5;exitY=0;exitDx=0;exitDy=0;entryX=0.25;entryY=1;entryDx=0;entryDy=0;fontFamily=Comic Sans MS;fontSize=20;" edge="1" parent="1" source="U9mmGLhQqzgiAe78-ZDL-287" target="U9mmGLhQqzgiAe78-ZDL-285">
          <mxGeometry relative="1" as="geometry" />
        </mxCell>
        <mxCell id="U9mmGLhQqzgiAe78-ZDL-287" value="root" style="text;html=1;strokeColor=none;fillColor=none;align=center;verticalAlign=middle;whiteSpace=wrap;rounded=0;shadow=0;dashed=1;sketch=1;fontFamily=Comic Sans MS;fontSize=20;" vertex="1" parent="1">
          <mxGeometry x="185" y="2840" width="40" height="20" as="geometry" />
        </mxCell>
        <mxCell id="U9mmGLhQqzgiAe78-ZDL-288" value="" style="rounded=0;whiteSpace=wrap;html=1;shadow=0;dashed=1;sketch=1;fillColor=#D5E8D4;fontFamily=Comic Sans MS;fontSize=30;" vertex="1" parent="1">
          <mxGeometry x="151.69" y="2784" width="157.88" height="14" as="geometry" />
        </mxCell>
        <mxCell id="U9mmGLhQqzgiAe78-ZDL-289" style="edgeStyle=none;rounded=0;orthogonalLoop=1;jettySize=auto;html=1;exitX=0.75;exitY=1;exitDx=0;exitDy=0;entryX=0;entryY=0;entryDx=0;entryDy=0;fontFamily=Comic Sans MS;fontSize=20;" edge="1" parent="1" source="U9mmGLhQqzgiAe78-ZDL-290" target="U9mmGLhQqzgiAe78-ZDL-288">
          <mxGeometry relative="1" as="geometry" />
        </mxCell>
        <mxCell id="U9mmGLhQqzgiAe78-ZDL-290" value="low" style="text;html=1;strokeColor=none;fillColor=none;align=center;verticalAlign=middle;whiteSpace=wrap;rounded=0;shadow=0;dashed=1;sketch=1;fontFamily=Comic Sans MS;fontSize=20;" vertex="1" parent="1">
          <mxGeometry x="122.69" y="2739" width="40" height="20" as="geometry" />
        </mxCell>
        <mxCell id="U9mmGLhQqzgiAe78-ZDL-291" style="edgeStyle=none;rounded=0;orthogonalLoop=1;jettySize=auto;html=1;exitX=0.5;exitY=1;exitDx=0;exitDy=0;entryX=1;entryY=0;entryDx=0;entryDy=0;fontFamily=Comic Sans MS;fontSize=20;" edge="1" parent="1" source="U9mmGLhQqzgiAe78-ZDL-292" target="U9mmGLhQqzgiAe78-ZDL-288">
          <mxGeometry relative="1" as="geometry" />
        </mxCell>
        <mxCell id="U9mmGLhQqzgiAe78-ZDL-292" value="high" style="text;html=1;strokeColor=none;fillColor=none;align=center;verticalAlign=middle;whiteSpace=wrap;rounded=0;shadow=0;dashed=1;sketch=1;fontFamily=Comic Sans MS;fontSize=20;" vertex="1" parent="1">
          <mxGeometry x="289.82" y="2729" width="40" height="20" as="geometry" />
        </mxCell>
        <mxCell id="U9mmGLhQqzgiAe78-ZDL-293" value="二叉检索树" style="text;html=1;strokeColor=none;fillColor=none;align=center;verticalAlign=middle;whiteSpace=wrap;rounded=0;shadow=0;dashed=1;sketch=1;fontFamily=Comic Sans MS;fontSize=20;" vertex="1" parent="1">
          <mxGeometry x="-133.75" y="1941" width="118.75" height="36" as="geometry" />
        </mxCell>
        <mxCell id="U9mmGLhQqzgiAe78-ZDL-294" value="区间" style="text;html=1;strokeColor=none;fillColor=none;align=center;verticalAlign=middle;whiteSpace=wrap;rounded=0;shadow=0;dashed=1;sketch=1;fontFamily=Comic Sans MS;fontSize=20;" vertex="1" parent="1">
          <mxGeometry x="-131" y="2027" width="118.75" height="36" as="geometry" />
        </mxCell>
        <mxCell id="U9mmGLhQqzgiAe78-ZDL-296" value="&lt;span&gt;把二叉检索树在区间内的节点按顺序输出&lt;/span&gt;" style="rounded=0;whiteSpace=wrap;html=1;shadow=0;dashed=1;labelBackgroundColor=none;sketch=1;fontFamily=Comic Sans MS;fontSize=20;fillColor=#A9C4EB;" vertex="1" parent="1">
          <mxGeometry x="-124" y="2085" width="381" height="43" as="geometry" />
        </mxCell>
        <mxCell id="U9mmGLhQqzgiAe78-ZDL-297" value="根节点在区间右侧" style="text;html=1;strokeColor=none;fillColor=none;align=center;verticalAlign=middle;whiteSpace=wrap;rounded=0;shadow=0;dashed=1;labelBackgroundColor=none;sketch=1;fontFamily=Comic Sans MS;fontSize=20;" vertex="1" parent="1">
          <mxGeometry x="-153" y="2267" width="188" height="20" as="geometry" />
        </mxCell>
        <mxCell id="U9mmGLhQqzgiAe78-ZDL-299" value="根节点在区间左侧" style="text;html=1;strokeColor=none;fillColor=none;align=center;verticalAlign=middle;whiteSpace=wrap;rounded=0;shadow=0;dashed=1;labelBackgroundColor=none;sketch=1;fontFamily=Comic Sans MS;fontSize=20;" vertex="1" parent="1">
          <mxGeometry x="-149" y="2476" width="188" height="20" as="geometry" />
        </mxCell>
        <mxCell id="U9mmGLhQqzgiAe78-ZDL-300" value="根节点在区间内部" style="text;html=1;strokeColor=none;fillColor=none;align=center;verticalAlign=middle;whiteSpace=wrap;rounded=0;shadow=0;dashed=1;labelBackgroundColor=none;sketch=1;fontFamily=Comic Sans MS;fontSize=20;" vertex="1" parent="1">
          <mxGeometry x="-131" y="2779" width="188" height="20" as="geometry" />
        </mxCell>
        <mxCell id="U9mmGLhQqzgiAe78-ZDL-302" style="edgeStyle=none;rounded=0;orthogonalLoop=1;jettySize=auto;html=1;fontFamily=Comic Sans MS;fontSize=20;" edge="1" parent="1">
          <mxGeometry relative="1" as="geometry">
            <mxPoint x="-101.87" y="3065" as="targetPoint" />
            <mxPoint x="-39.870000000000005" y="3023" as="sourcePoint" />
          </mxGeometry>
        </mxCell>
        <mxCell id="U9mmGLhQqzgiAe78-ZDL-311" style="edgeStyle=none;rounded=0;orthogonalLoop=1;jettySize=auto;html=1;exitX=0;exitY=1;exitDx=0;exitDy=0;entryX=1;entryY=0.5;entryDx=0;entryDy=0;fontFamily=Comic Sans MS;fontSize=20;" edge="1" parent="1" source="U9mmGLhQqzgiAe78-ZDL-305" target="U9mmGLhQqzgiAe78-ZDL-309">
          <mxGeometry relative="1" as="geometry" />
        </mxCell>
        <mxCell id="U9mmGLhQqzgiAe78-ZDL-312" style="edgeStyle=none;rounded=0;orthogonalLoop=1;jettySize=auto;html=1;exitX=1;exitY=1;exitDx=0;exitDy=0;entryX=1;entryY=0.5;entryDx=0;entryDy=0;fontFamily=Comic Sans MS;fontSize=20;" edge="1" parent="1" source="U9mmGLhQqzgiAe78-ZDL-305" target="U9mmGLhQqzgiAe78-ZDL-310">
          <mxGeometry relative="1" as="geometry" />
        </mxCell>
        <mxCell id="U9mmGLhQqzgiAe78-ZDL-305" value="" style="ellipse;whiteSpace=wrap;html=1;shadow=0;dashed=1;sketch=1;fontFamily=Comic Sans MS;fontSize=20;fillColor=#D5E8D4;" vertex="1" parent="1">
          <mxGeometry x="-133.87" y="3057" width="35" height="32" as="geometry" />
        </mxCell>
        <mxCell id="U9mmGLhQqzgiAe78-ZDL-306" value="root" style="text;html=1;strokeColor=none;fillColor=none;align=center;verticalAlign=middle;whiteSpace=wrap;rounded=0;shadow=0;dashed=1;sketch=1;fontFamily=Comic Sans MS;fontSize=20;" vertex="1" parent="1">
          <mxGeometry x="-37.870000000000005" y="3014" width="40" height="20" as="geometry" />
        </mxCell>
        <mxCell id="U9mmGLhQqzgiAe78-ZDL-309" value="" style="triangle;whiteSpace=wrap;html=1;shadow=0;dashed=1;labelBackgroundColor=none;sketch=1;fillColor=#A9C4EB;fontFamily=Comic Sans MS;fontSize=20;rotation=-90;" vertex="1" parent="1">
          <mxGeometry x="-209" y="3119" width="60" height="80" as="geometry" />
        </mxCell>
        <mxCell id="U9mmGLhQqzgiAe78-ZDL-310" value="" style="triangle;whiteSpace=wrap;html=1;shadow=0;dashed=1;labelBackgroundColor=none;sketch=1;fillColor=#A9C4EB;fontFamily=Comic Sans MS;fontSize=20;rotation=-90;" vertex="1" parent="1">
          <mxGeometry x="-90.75" y="3121" width="60" height="80" as="geometry" />
        </mxCell>
        <mxCell id="U9mmGLhQqzgiAe78-ZDL-313" value="左子树" style="text;html=1;strokeColor=none;fillColor=none;align=center;verticalAlign=middle;whiteSpace=wrap;rounded=0;shadow=0;dashed=1;labelBackgroundColor=none;sketch=1;fontFamily=Comic Sans MS;fontSize=20;" vertex="1" parent="1">
          <mxGeometry x="-215.5" y="3199" width="73" height="20" as="geometry" />
        </mxCell>
        <mxCell id="U9mmGLhQqzgiAe78-ZDL-314" value="右子树" style="text;html=1;strokeColor=none;fillColor=none;align=center;verticalAlign=middle;whiteSpace=wrap;rounded=0;shadow=0;dashed=1;labelBackgroundColor=none;sketch=1;fontFamily=Comic Sans MS;fontSize=20;" vertex="1" parent="1">
          <mxGeometry x="-91.5" y="3203" width="73" height="20" as="geometry" />
        </mxCell>
        <mxCell id="U9mmGLhQqzgiAe78-ZDL-315" value="NULL" style="text;html=1;strokeColor=none;fillColor=none;align=center;verticalAlign=middle;whiteSpace=wrap;rounded=0;shadow=0;dashed=1;labelBackgroundColor=none;sketch=1;fontFamily=Comic Sans MS;fontSize=20;" vertex="1" parent="1">
          <mxGeometry x="126.5" y="3112" width="40" height="20" as="geometry" />
        </mxCell>
        <mxCell id="U9mmGLhQqzgiAe78-ZDL-316" style="edgeStyle=none;rounded=0;orthogonalLoop=1;jettySize=auto;html=1;fontFamily=Comic Sans MS;fontSize=20;" edge="1" parent="1">
          <mxGeometry relative="1" as="geometry">
            <mxPoint x="146.5000000000001" y="3108" as="targetPoint" />
            <mxPoint x="208.5000000000001" y="3066" as="sourcePoint" />
          </mxGeometry>
        </mxCell>
        <mxCell id="U9mmGLhQqzgiAe78-ZDL-317" value="root" style="text;html=1;strokeColor=none;fillColor=none;align=center;verticalAlign=middle;whiteSpace=wrap;rounded=0;shadow=0;dashed=1;sketch=1;fontFamily=Comic Sans MS;fontSize=20;" vertex="1" parent="1">
          <mxGeometry x="210.5" y="3057" width="40" height="20" as="geometry" />
        </mxCell>
        <mxCell id="U9mmGLhQqzgiAe78-ZDL-340" value="" style="group" vertex="1" connectable="0" parent="1">
          <mxGeometry x="56.99999999999999" y="3274" width="33.37" height="75" as="geometry" />
        </mxCell>
        <mxCell id="U9mmGLhQqzgiAe78-ZDL-341" value="C" style="rounded=0;whiteSpace=wrap;html=1;shadow=0;dashed=1;labelBackgroundColor=none;sketch=1;fillColor=#A9C4EB;fontFamily=Comic Sans MS;fontSize=20;" vertex="1" parent="U9mmGLhQqzgiAe78-ZDL-340">
          <mxGeometry width="32.37" height="36" as="geometry" />
        </mxCell>
        <mxCell id="U9mmGLhQqzgiAe78-ZDL-409" style="edgeStyle=none;rounded=0;orthogonalLoop=1;jettySize=auto;html=1;exitX=0.5;exitY=0;exitDx=0;exitDy=0;fontFamily=Comic Sans MS;fontSize=20;" edge="1" parent="U9mmGLhQqzgiAe78-ZDL-340" source="U9mmGLhQqzgiAe78-ZDL-342" target="U9mmGLhQqzgiAe78-ZDL-341">
          <mxGeometry relative="1" as="geometry" />
        </mxCell>
        <mxCell id="U9mmGLhQqzgiAe78-ZDL-342" value="5" style="rounded=0;whiteSpace=wrap;html=1;shadow=0;dashed=1;labelBackgroundColor=none;sketch=1;fontFamily=Comic Sans MS;fontSize=20;fillColor=none;" vertex="1" parent="U9mmGLhQqzgiAe78-ZDL-340">
          <mxGeometry x="0.36999999999999744" y="36" width="33" height="39" as="geometry" />
        </mxCell>
        <mxCell id="U9mmGLhQqzgiAe78-ZDL-355" value="" style="group" vertex="1" connectable="0" parent="1">
          <mxGeometry x="64" y="3426" width="124.37" height="278" as="geometry" />
        </mxCell>
        <mxCell id="U9mmGLhQqzgiAe78-ZDL-356" value="H" style="rounded=0;whiteSpace=wrap;html=1;shadow=0;dashed=1;labelBackgroundColor=none;sketch=1;fillColor=#A9C4EB;fontFamily=Comic Sans MS;fontSize=20;" vertex="1" parent="U9mmGLhQqzgiAe78-ZDL-355">
          <mxGeometry x="-5" y="81" width="32.37" height="36" as="geometry" />
        </mxCell>
        <mxCell id="U9mmGLhQqzgiAe78-ZDL-357" value="19" style="rounded=0;whiteSpace=wrap;html=1;shadow=0;dashed=1;labelBackgroundColor=none;sketch=1;fontFamily=Comic Sans MS;fontSize=20;fillColor=none;" vertex="1" parent="U9mmGLhQqzgiAe78-ZDL-355">
          <mxGeometry x="-4.6299999999999955" y="117" width="33" height="39" as="geometry" />
        </mxCell>
        <mxCell id="U9mmGLhQqzgiAe78-ZDL-438" value="" style="group" vertex="1" connectable="0" parent="U9mmGLhQqzgiAe78-ZDL-355">
          <mxGeometry x="40" y="-4" width="33.37" height="75" as="geometry" />
        </mxCell>
        <mxCell id="U9mmGLhQqzgiAe78-ZDL-439" value="" style="rounded=0;whiteSpace=wrap;html=1;shadow=0;dashed=1;labelBackgroundColor=none;sketch=1;fillColor=#A9C4EB;fontFamily=Comic Sans MS;fontSize=20;" vertex="1" parent="U9mmGLhQqzgiAe78-ZDL-438">
          <mxGeometry width="32.37" height="36" as="geometry" />
        </mxCell>
        <mxCell id="U9mmGLhQqzgiAe78-ZDL-440" value="42" style="rounded=0;whiteSpace=wrap;html=1;shadow=0;dashed=1;labelBackgroundColor=none;sketch=1;fontFamily=Comic Sans MS;fontSize=20;fillColor=none;" vertex="1" parent="U9mmGLhQqzgiAe78-ZDL-438">
          <mxGeometry x="0.36999999999999744" y="36" width="33" height="39" as="geometry" />
        </mxCell>
        <mxCell id="U9mmGLhQqzgiAe78-ZDL-441" style="edgeStyle=none;rounded=0;orthogonalLoop=1;jettySize=auto;html=1;exitX=0.5;exitY=1;exitDx=0;exitDy=0;entryX=0.5;entryY=0;entryDx=0;entryDy=0;fontFamily=Comic Sans MS;fontSize=20;" edge="1" parent="U9mmGLhQqzgiAe78-ZDL-355" source="U9mmGLhQqzgiAe78-ZDL-440" target="U9mmGLhQqzgiAe78-ZDL-356">
          <mxGeometry relative="1" as="geometry" />
        </mxCell>
        <mxCell id="U9mmGLhQqzgiAe78-ZDL-358" value="" style="group" vertex="1" connectable="0" parent="U9mmGLhQqzgiAe78-ZDL-355">
          <mxGeometry x="46" y="83" width="33.37" height="75" as="geometry" />
        </mxCell>
        <mxCell id="U9mmGLhQqzgiAe78-ZDL-359" value="I" style="rounded=0;whiteSpace=wrap;html=1;shadow=0;dashed=1;labelBackgroundColor=none;sketch=1;fillColor=#A9C4EB;fontFamily=Comic Sans MS;fontSize=20;" vertex="1" parent="U9mmGLhQqzgiAe78-ZDL-358">
          <mxGeometry width="32.37" height="36" as="geometry" />
        </mxCell>
        <mxCell id="U9mmGLhQqzgiAe78-ZDL-360" value="23" style="rounded=0;whiteSpace=wrap;html=1;shadow=0;dashed=1;labelBackgroundColor=none;sketch=1;fontFamily=Comic Sans MS;fontSize=20;fillColor=none;" vertex="1" parent="U9mmGLhQqzgiAe78-ZDL-358">
          <mxGeometry x="0.36999999999999744" y="36" width="33" height="39" as="geometry" />
        </mxCell>
        <mxCell id="U9mmGLhQqzgiAe78-ZDL-367" value="" style="group" vertex="1" connectable="0" parent="U9mmGLhQqzgiAe78-ZDL-355">
          <mxGeometry x="-8" y="-4" width="33.37" height="75" as="geometry" />
        </mxCell>
        <mxCell id="U9mmGLhQqzgiAe78-ZDL-368" value="L" style="rounded=0;whiteSpace=wrap;html=1;shadow=0;dashed=1;labelBackgroundColor=none;sketch=1;fillColor=#A9C4EB;fontFamily=Comic Sans MS;fontSize=20;" vertex="1" parent="U9mmGLhQqzgiAe78-ZDL-367">
          <mxGeometry width="32.37" height="36" as="geometry" />
        </mxCell>
        <mxCell id="U9mmGLhQqzgiAe78-ZDL-369" value="41" style="rounded=0;whiteSpace=wrap;html=1;shadow=0;dashed=1;labelBackgroundColor=none;sketch=1;fontFamily=Comic Sans MS;fontSize=20;fillColor=none;" vertex="1" parent="U9mmGLhQqzgiAe78-ZDL-367">
          <mxGeometry x="0.36999999999999744" y="36" width="33" height="39" as="geometry" />
        </mxCell>
        <mxCell id="U9mmGLhQqzgiAe78-ZDL-442" style="edgeStyle=none;rounded=0;orthogonalLoop=1;jettySize=auto;html=1;exitX=0.75;exitY=1;exitDx=0;exitDy=0;fontFamily=Comic Sans MS;fontSize=20;" edge="1" parent="U9mmGLhQqzgiAe78-ZDL-355" source="U9mmGLhQqzgiAe78-ZDL-440" target="U9mmGLhQqzgiAe78-ZDL-359">
          <mxGeometry relative="1" as="geometry" />
        </mxCell>
        <mxCell id="U9mmGLhQqzgiAe78-ZDL-347" value="E" style="rounded=0;whiteSpace=wrap;html=1;shadow=0;dashed=1;labelBackgroundColor=none;sketch=1;fillColor=#A9C4EB;fontFamily=Comic Sans MS;fontSize=20;" vertex="1" parent="U9mmGLhQqzgiAe78-ZDL-355">
          <mxGeometry x="73" y="174" width="32.37" height="36" as="geometry" />
        </mxCell>
        <mxCell id="U9mmGLhQqzgiAe78-ZDL-348" value="11" style="rounded=0;whiteSpace=wrap;html=1;shadow=0;dashed=1;labelBackgroundColor=none;sketch=1;fontFamily=Comic Sans MS;fontSize=20;fillColor=none;" vertex="1" parent="U9mmGLhQqzgiAe78-ZDL-355">
          <mxGeometry x="73.37" y="210" width="33" height="39" as="geometry" />
        </mxCell>
        <mxCell id="U9mmGLhQqzgiAe78-ZDL-349" value="" style="group" vertex="1" connectable="0" parent="U9mmGLhQqzgiAe78-ZDL-355">
          <mxGeometry x="121.24000000000001" y="173" width="33.37" height="75" as="geometry" />
        </mxCell>
        <mxCell id="U9mmGLhQqzgiAe78-ZDL-350" value="F" style="rounded=0;whiteSpace=wrap;html=1;shadow=0;dashed=1;labelBackgroundColor=none;sketch=1;fillColor=#A9C4EB;fontFamily=Comic Sans MS;fontSize=20;" vertex="1" parent="U9mmGLhQqzgiAe78-ZDL-349">
          <mxGeometry width="32.37" height="36" as="geometry" />
        </mxCell>
        <mxCell id="U9mmGLhQqzgiAe78-ZDL-351" value="13" style="rounded=0;whiteSpace=wrap;html=1;shadow=0;dashed=1;labelBackgroundColor=none;sketch=1;fontFamily=Comic Sans MS;fontSize=20;fillColor=none;" vertex="1" parent="U9mmGLhQqzgiAe78-ZDL-349">
          <mxGeometry x="0.36999999999999744" y="36" width="33" height="39" as="geometry" />
        </mxCell>
        <mxCell id="U9mmGLhQqzgiAe78-ZDL-361" value="" style="group" vertex="1" connectable="0" parent="U9mmGLhQqzgiAe78-ZDL-355">
          <mxGeometry x="148" y="86" width="33.37" height="75" as="geometry" />
        </mxCell>
        <mxCell id="U9mmGLhQqzgiAe78-ZDL-362" value="J" style="rounded=0;whiteSpace=wrap;html=1;shadow=0;dashed=1;labelBackgroundColor=none;sketch=1;fillColor=#A9C4EB;fontFamily=Comic Sans MS;fontSize=20;" vertex="1" parent="U9mmGLhQqzgiAe78-ZDL-361">
          <mxGeometry width="32.37" height="36" as="geometry" />
        </mxCell>
        <mxCell id="U9mmGLhQqzgiAe78-ZDL-363" value="31" style="rounded=0;whiteSpace=wrap;html=1;shadow=0;dashed=1;labelBackgroundColor=none;sketch=1;fontFamily=Comic Sans MS;fontSize=20;fillColor=none;" vertex="1" parent="U9mmGLhQqzgiAe78-ZDL-361">
          <mxGeometry x="0.36999999999999744" y="36" width="33" height="39" as="geometry" />
        </mxCell>
        <mxCell id="U9mmGLhQqzgiAe78-ZDL-428" value="" style="rounded=0;whiteSpace=wrap;html=1;shadow=0;dashed=1;labelBackgroundColor=none;sketch=1;fillColor=#A9C4EB;fontFamily=Comic Sans MS;fontSize=20;" vertex="1" parent="U9mmGLhQqzgiAe78-ZDL-355">
          <mxGeometry x="104" y="86" width="32.37" height="36" as="geometry" />
        </mxCell>
        <mxCell id="U9mmGLhQqzgiAe78-ZDL-429" value="24" style="rounded=0;whiteSpace=wrap;html=1;shadow=0;dashed=1;labelBackgroundColor=none;sketch=1;fontFamily=Comic Sans MS;fontSize=20;fillColor=none;" vertex="1" parent="U9mmGLhQqzgiAe78-ZDL-355">
          <mxGeometry x="104.37" y="122" width="33" height="39" as="geometry" />
        </mxCell>
        <mxCell id="U9mmGLhQqzgiAe78-ZDL-430" style="edgeStyle=none;rounded=0;orthogonalLoop=1;jettySize=auto;html=1;exitX=0.25;exitY=1;exitDx=0;exitDy=0;entryX=0.5;entryY=0;entryDx=0;entryDy=0;fontFamily=Comic Sans MS;fontSize=20;" edge="1" parent="U9mmGLhQqzgiAe78-ZDL-355" source="U9mmGLhQqzgiAe78-ZDL-429" target="U9mmGLhQqzgiAe78-ZDL-347">
          <mxGeometry relative="1" as="geometry" />
        </mxCell>
        <mxCell id="U9mmGLhQqzgiAe78-ZDL-431" style="edgeStyle=none;rounded=0;orthogonalLoop=1;jettySize=auto;html=1;exitX=0.5;exitY=1;exitDx=0;exitDy=0;entryX=0.5;entryY=0;entryDx=0;entryDy=0;fontFamily=Comic Sans MS;fontSize=20;" edge="1" parent="U9mmGLhQqzgiAe78-ZDL-355" source="U9mmGLhQqzgiAe78-ZDL-429" target="U9mmGLhQqzgiAe78-ZDL-350">
          <mxGeometry relative="1" as="geometry" />
        </mxCell>
        <mxCell id="U9mmGLhQqzgiAe78-ZDL-443" value="" style="group" vertex="1" connectable="0" parent="U9mmGLhQqzgiAe78-ZDL-355">
          <mxGeometry x="116" y="-3" width="33.37" height="75" as="geometry" />
        </mxCell>
        <mxCell id="U9mmGLhQqzgiAe78-ZDL-444" value="" style="rounded=0;whiteSpace=wrap;html=1;shadow=0;dashed=1;labelBackgroundColor=none;sketch=1;fillColor=#A9C4EB;fontFamily=Comic Sans MS;fontSize=20;" vertex="1" parent="U9mmGLhQqzgiAe78-ZDL-443">
          <mxGeometry width="32.37" height="36" as="geometry" />
        </mxCell>
        <mxCell id="U9mmGLhQqzgiAe78-ZDL-445" value="55" style="rounded=0;whiteSpace=wrap;html=1;shadow=0;dashed=1;labelBackgroundColor=none;sketch=1;fontFamily=Comic Sans MS;fontSize=20;fillColor=none;" vertex="1" parent="U9mmGLhQqzgiAe78-ZDL-443">
          <mxGeometry x="0.36999999999999744" y="36" width="33" height="39" as="geometry" />
        </mxCell>
        <mxCell id="U9mmGLhQqzgiAe78-ZDL-446" style="edgeStyle=none;rounded=0;orthogonalLoop=1;jettySize=auto;html=1;exitX=0.5;exitY=1;exitDx=0;exitDy=0;entryX=0.5;entryY=0;entryDx=0;entryDy=0;fontFamily=Comic Sans MS;fontSize=20;" edge="1" parent="U9mmGLhQqzgiAe78-ZDL-355" source="U9mmGLhQqzgiAe78-ZDL-445" target="U9mmGLhQqzgiAe78-ZDL-428">
          <mxGeometry relative="1" as="geometry" />
        </mxCell>
        <mxCell id="U9mmGLhQqzgiAe78-ZDL-447" style="edgeStyle=none;rounded=0;orthogonalLoop=1;jettySize=auto;html=1;exitX=0.75;exitY=1;exitDx=0;exitDy=0;fontFamily=Comic Sans MS;fontSize=20;" edge="1" parent="U9mmGLhQqzgiAe78-ZDL-355" source="U9mmGLhQqzgiAe78-ZDL-445" target="U9mmGLhQqzgiAe78-ZDL-362">
          <mxGeometry relative="1" as="geometry" />
        </mxCell>
        <mxCell id="U9mmGLhQqzgiAe78-ZDL-377" value="" style="group" vertex="1" connectable="0" parent="1">
          <mxGeometry x="-43.739999999999995" y="3272" width="33.37" height="75" as="geometry" />
        </mxCell>
        <mxCell id="U9mmGLhQqzgiAe78-ZDL-378" value="A" style="rounded=0;whiteSpace=wrap;html=1;shadow=0;dashed=1;labelBackgroundColor=none;sketch=1;fillColor=#A9C4EB;fontFamily=Comic Sans MS;fontSize=20;" vertex="1" parent="U9mmGLhQqzgiAe78-ZDL-377">
          <mxGeometry width="32.37" height="36" as="geometry" />
        </mxCell>
        <mxCell id="U9mmGLhQqzgiAe78-ZDL-379" value="2" style="rounded=0;whiteSpace=wrap;html=1;shadow=0;dashed=1;labelBackgroundColor=none;sketch=1;fontFamily=Comic Sans MS;fontSize=20;fillColor=none;" vertex="1" parent="U9mmGLhQqzgiAe78-ZDL-377">
          <mxGeometry x="0.36999999999999744" y="36" width="33" height="39" as="geometry" />
        </mxCell>
        <mxCell id="U9mmGLhQqzgiAe78-ZDL-380" value="B" style="rounded=0;whiteSpace=wrap;html=1;shadow=0;dashed=1;labelBackgroundColor=none;sketch=1;fillColor=#A9C4EB;fontFamily=Comic Sans MS;fontSize=20;" vertex="1" parent="1">
          <mxGeometry x="8.629999999999995" y="3271" width="32.37" height="36" as="geometry" />
        </mxCell>
        <mxCell id="U9mmGLhQqzgiAe78-ZDL-381" value="3" style="rounded=0;whiteSpace=wrap;html=1;shadow=0;dashed=1;labelBackgroundColor=none;sketch=1;fontFamily=Comic Sans MS;fontSize=20;fillColor=none;" vertex="1" parent="1">
          <mxGeometry x="9" y="3307" width="33" height="39" as="geometry" />
        </mxCell>
        <mxCell id="U9mmGLhQqzgiAe78-ZDL-382" value="" style="group" vertex="1" connectable="0" parent="1">
          <mxGeometry x="107" y="3274" width="33.37" height="75" as="geometry" />
        </mxCell>
        <mxCell id="U9mmGLhQqzgiAe78-ZDL-383" value="D" style="rounded=0;whiteSpace=wrap;html=1;shadow=0;dashed=1;labelBackgroundColor=none;sketch=1;fillColor=#A9C4EB;fontFamily=Comic Sans MS;fontSize=20;" vertex="1" parent="U9mmGLhQqzgiAe78-ZDL-382">
          <mxGeometry width="32.37" height="36" as="geometry" />
        </mxCell>
        <mxCell id="U9mmGLhQqzgiAe78-ZDL-384" value="7" style="rounded=0;whiteSpace=wrap;html=1;shadow=0;dashed=1;labelBackgroundColor=none;sketch=1;fontFamily=Comic Sans MS;fontSize=20;fillColor=none;" vertex="1" parent="U9mmGLhQqzgiAe78-ZDL-382">
          <mxGeometry x="0.36999999999999744" y="36" width="33" height="39" as="geometry" />
        </mxCell>
        <mxCell id="U9mmGLhQqzgiAe78-ZDL-385" value="" style="group" vertex="1" connectable="0" parent="1">
          <mxGeometry x="161" y="3274" width="33.37" height="75" as="geometry" />
        </mxCell>
        <mxCell id="U9mmGLhQqzgiAe78-ZDL-386" value="E" style="rounded=0;whiteSpace=wrap;html=1;shadow=0;dashed=1;labelBackgroundColor=none;sketch=1;fillColor=#A9C4EB;fontFamily=Comic Sans MS;fontSize=20;" vertex="1" parent="U9mmGLhQqzgiAe78-ZDL-385">
          <mxGeometry width="32.37" height="36" as="geometry" />
        </mxCell>
        <mxCell id="U9mmGLhQqzgiAe78-ZDL-387" value="11" style="rounded=0;whiteSpace=wrap;html=1;shadow=0;dashed=1;labelBackgroundColor=none;sketch=1;fontFamily=Comic Sans MS;fontSize=20;fillColor=none;" vertex="1" parent="U9mmGLhQqzgiAe78-ZDL-385">
          <mxGeometry x="0.36999999999999744" y="36" width="33" height="39" as="geometry" />
        </mxCell>
        <mxCell id="U9mmGLhQqzgiAe78-ZDL-388" value="" style="group" vertex="1" connectable="0" parent="1">
          <mxGeometry x="212" y="3274" width="33.37" height="75" as="geometry" />
        </mxCell>
        <mxCell id="U9mmGLhQqzgiAe78-ZDL-389" value="F" style="rounded=0;whiteSpace=wrap;html=1;shadow=0;dashed=1;labelBackgroundColor=none;sketch=1;fillColor=#A9C4EB;fontFamily=Comic Sans MS;fontSize=20;" vertex="1" parent="U9mmGLhQqzgiAe78-ZDL-388">
          <mxGeometry width="32.37" height="36" as="geometry" />
        </mxCell>
        <mxCell id="U9mmGLhQqzgiAe78-ZDL-390" value="13" style="rounded=0;whiteSpace=wrap;html=1;shadow=0;dashed=1;labelBackgroundColor=none;sketch=1;fontFamily=Comic Sans MS;fontSize=20;fillColor=none;" vertex="1" parent="U9mmGLhQqzgiAe78-ZDL-388">
          <mxGeometry x="0.36999999999999744" y="36" width="33" height="39" as="geometry" />
        </mxCell>
        <mxCell id="U9mmGLhQqzgiAe78-ZDL-391" value="" style="group" vertex="1" connectable="0" parent="1">
          <mxGeometry x="261" y="3272" width="33.37" height="75" as="geometry" />
        </mxCell>
        <mxCell id="U9mmGLhQqzgiAe78-ZDL-392" value="G" style="rounded=0;whiteSpace=wrap;html=1;shadow=0;dashed=1;labelBackgroundColor=none;sketch=1;fillColor=#A9C4EB;fontFamily=Comic Sans MS;fontSize=20;" vertex="1" parent="U9mmGLhQqzgiAe78-ZDL-391">
          <mxGeometry width="32.37" height="36" as="geometry" />
        </mxCell>
        <mxCell id="U9mmGLhQqzgiAe78-ZDL-393" value="17" style="rounded=0;whiteSpace=wrap;html=1;shadow=0;dashed=1;labelBackgroundColor=none;sketch=1;fontFamily=Comic Sans MS;fontSize=20;fillColor=none;" vertex="1" parent="U9mmGLhQqzgiAe78-ZDL-391">
          <mxGeometry x="0.36999999999999744" y="36" width="33" height="39" as="geometry" />
        </mxCell>
        <mxCell id="U9mmGLhQqzgiAe78-ZDL-394" value="" style="group" vertex="1" connectable="0" parent="1">
          <mxGeometry x="315" y="3272" width="33.37" height="75" as="geometry" />
        </mxCell>
        <mxCell id="U9mmGLhQqzgiAe78-ZDL-395" value="H" style="rounded=0;whiteSpace=wrap;html=1;shadow=0;dashed=1;labelBackgroundColor=none;sketch=1;fillColor=#A9C4EB;fontFamily=Comic Sans MS;fontSize=20;" vertex="1" parent="U9mmGLhQqzgiAe78-ZDL-394">
          <mxGeometry width="32.37" height="36" as="geometry" />
        </mxCell>
        <mxCell id="U9mmGLhQqzgiAe78-ZDL-396" value="19" style="rounded=0;whiteSpace=wrap;html=1;shadow=0;dashed=1;labelBackgroundColor=none;sketch=1;fontFamily=Comic Sans MS;fontSize=20;fillColor=none;" vertex="1" parent="U9mmGLhQqzgiAe78-ZDL-394">
          <mxGeometry x="0.36999999999999744" y="36" width="33" height="39" as="geometry" />
        </mxCell>
        <mxCell id="U9mmGLhQqzgiAe78-ZDL-397" value="" style="group" vertex="1" connectable="0" parent="1">
          <mxGeometry x="366" y="3274" width="33.37" height="75" as="geometry" />
        </mxCell>
        <mxCell id="U9mmGLhQqzgiAe78-ZDL-398" value="I" style="rounded=0;whiteSpace=wrap;html=1;shadow=0;dashed=1;labelBackgroundColor=none;sketch=1;fillColor=#A9C4EB;fontFamily=Comic Sans MS;fontSize=20;" vertex="1" parent="U9mmGLhQqzgiAe78-ZDL-397">
          <mxGeometry width="32.37" height="36" as="geometry" />
        </mxCell>
        <mxCell id="U9mmGLhQqzgiAe78-ZDL-399" value="23" style="rounded=0;whiteSpace=wrap;html=1;shadow=0;dashed=1;labelBackgroundColor=none;sketch=1;fontFamily=Comic Sans MS;fontSize=20;fillColor=none;" vertex="1" parent="U9mmGLhQqzgiAe78-ZDL-397">
          <mxGeometry x="0.36999999999999744" y="36" width="33" height="39" as="geometry" />
        </mxCell>
        <mxCell id="U9mmGLhQqzgiAe78-ZDL-400" value="" style="group" vertex="1" connectable="0" parent="1">
          <mxGeometry x="418" y="3273" width="33.37" height="75" as="geometry" />
        </mxCell>
        <mxCell id="U9mmGLhQqzgiAe78-ZDL-401" value="J" style="rounded=0;whiteSpace=wrap;html=1;shadow=0;dashed=1;labelBackgroundColor=none;sketch=1;fillColor=#A9C4EB;fontFamily=Comic Sans MS;fontSize=20;" vertex="1" parent="U9mmGLhQqzgiAe78-ZDL-400">
          <mxGeometry width="32.37" height="36" as="geometry" />
        </mxCell>
        <mxCell id="U9mmGLhQqzgiAe78-ZDL-402" value="31" style="rounded=0;whiteSpace=wrap;html=1;shadow=0;dashed=1;labelBackgroundColor=none;sketch=1;fontFamily=Comic Sans MS;fontSize=20;fillColor=none;" vertex="1" parent="U9mmGLhQqzgiAe78-ZDL-400">
          <mxGeometry x="0.36999999999999744" y="36" width="33" height="39" as="geometry" />
        </mxCell>
        <mxCell id="U9mmGLhQqzgiAe78-ZDL-403" value="" style="group" vertex="1" connectable="0" parent="1">
          <mxGeometry x="473" y="3272" width="33.37" height="75" as="geometry" />
        </mxCell>
        <mxCell id="U9mmGLhQqzgiAe78-ZDL-404" value="K" style="rounded=0;whiteSpace=wrap;html=1;shadow=0;dashed=1;labelBackgroundColor=none;sketch=1;fillColor=#A9C4EB;fontFamily=Comic Sans MS;fontSize=20;" vertex="1" parent="U9mmGLhQqzgiAe78-ZDL-403">
          <mxGeometry width="32.37" height="36" as="geometry" />
        </mxCell>
        <mxCell id="U9mmGLhQqzgiAe78-ZDL-405" value="37" style="rounded=0;whiteSpace=wrap;html=1;shadow=0;dashed=1;labelBackgroundColor=none;sketch=1;fontFamily=Comic Sans MS;fontSize=20;fillColor=none;" vertex="1" parent="U9mmGLhQqzgiAe78-ZDL-403">
          <mxGeometry x="0.36999999999999744" y="36" width="33" height="39" as="geometry" />
        </mxCell>
        <mxCell id="U9mmGLhQqzgiAe78-ZDL-406" value="" style="group" vertex="1" connectable="0" parent="1">
          <mxGeometry x="527" y="3272" width="33.37" height="75" as="geometry" />
        </mxCell>
        <mxCell id="U9mmGLhQqzgiAe78-ZDL-407" value="L" style="rounded=0;whiteSpace=wrap;html=1;shadow=0;dashed=1;labelBackgroundColor=none;sketch=1;fillColor=#A9C4EB;fontFamily=Comic Sans MS;fontSize=20;" vertex="1" parent="U9mmGLhQqzgiAe78-ZDL-406">
          <mxGeometry width="32.37" height="36" as="geometry" />
        </mxCell>
        <mxCell id="U9mmGLhQqzgiAe78-ZDL-408" value="41" style="rounded=0;whiteSpace=wrap;html=1;shadow=0;dashed=1;labelBackgroundColor=none;sketch=1;fontFamily=Comic Sans MS;fontSize=20;fillColor=none;" vertex="1" parent="U9mmGLhQqzgiAe78-ZDL-406">
          <mxGeometry x="0.36999999999999744" y="36" width="33" height="39" as="geometry" />
        </mxCell>
        <mxCell id="U9mmGLhQqzgiAe78-ZDL-370" value="" style="rounded=1;whiteSpace=wrap;html=1;shadow=0;dashed=1;labelBackgroundColor=none;sketch=1;fillColor=none;fontFamily=Comic Sans MS;fontSize=20;" vertex="1" parent="1">
          <mxGeometry x="35" y="3895" width="133.25" height="61.5" as="geometry" />
        </mxCell>
        <mxCell id="U9mmGLhQqzgiAe78-ZDL-421" style="edgeStyle=none;rounded=0;orthogonalLoop=1;jettySize=auto;html=1;exitX=0;exitY=0.5;exitDx=0;exitDy=0;fontFamily=Comic Sans MS;fontSize=20;" edge="1" parent="1" source="U9mmGLhQqzgiAe78-ZDL-370" target="U9mmGLhQqzgiAe78-ZDL-370">
          <mxGeometry relative="1" as="geometry" />
        </mxCell>
        <mxCell id="U9mmGLhQqzgiAe78-ZDL-343" value="" style="group" vertex="1" connectable="0" parent="1">
          <mxGeometry x="206" y="3687" width="101.63" height="88.5" as="geometry" />
        </mxCell>
        <mxCell id="U9mmGLhQqzgiAe78-ZDL-344" value="D" style="rounded=0;whiteSpace=wrap;html=1;shadow=0;dashed=1;labelBackgroundColor=none;sketch=1;fillColor=#A9C4EB;fontFamily=Comic Sans MS;fontSize=20;" vertex="1" parent="U9mmGLhQqzgiAe78-ZDL-343">
          <mxGeometry width="32.37" height="36" as="geometry" />
        </mxCell>
        <mxCell id="U9mmGLhQqzgiAe78-ZDL-345" value="7" style="rounded=0;whiteSpace=wrap;html=1;shadow=0;dashed=1;labelBackgroundColor=none;sketch=1;fontFamily=Comic Sans MS;fontSize=20;fillColor=none;" vertex="1" parent="U9mmGLhQqzgiAe78-ZDL-343">
          <mxGeometry x="0.36999999999999744" y="36" width="33" height="39" as="geometry" />
        </mxCell>
        <mxCell id="U9mmGLhQqzgiAe78-ZDL-352" value="" style="group" vertex="1" connectable="0" parent="1">
          <mxGeometry x="283" y="3602" width="48" height="85" as="geometry" />
        </mxCell>
        <mxCell id="U9mmGLhQqzgiAe78-ZDL-353" value="G" style="rounded=0;whiteSpace=wrap;html=1;shadow=0;dashed=1;labelBackgroundColor=none;sketch=1;fillColor=#A9C4EB;fontFamily=Comic Sans MS;fontSize=20;" vertex="1" parent="U9mmGLhQqzgiAe78-ZDL-352">
          <mxGeometry width="32.37" height="36" as="geometry" />
        </mxCell>
        <mxCell id="U9mmGLhQqzgiAe78-ZDL-354" value="17" style="rounded=0;whiteSpace=wrap;html=1;shadow=0;dashed=1;labelBackgroundColor=none;sketch=1;fontFamily=Comic Sans MS;fontSize=20;fillColor=none;" vertex="1" parent="U9mmGLhQqzgiAe78-ZDL-352">
          <mxGeometry x="0.36999999999999744" y="36" width="33" height="39" as="geometry" />
        </mxCell>
        <mxCell id="U9mmGLhQqzgiAe78-ZDL-365" value="K" style="rounded=0;whiteSpace=wrap;html=1;shadow=0;dashed=1;labelBackgroundColor=none;sketch=1;fillColor=#A9C4EB;fontFamily=Comic Sans MS;fontSize=20;" vertex="1" parent="1">
          <mxGeometry x="317" y="3514" width="32.37" height="36" as="geometry" />
        </mxCell>
        <mxCell id="U9mmGLhQqzgiAe78-ZDL-366" value="37" style="rounded=0;whiteSpace=wrap;html=1;shadow=0;dashed=1;labelBackgroundColor=none;sketch=1;fontFamily=Comic Sans MS;fontSize=20;fillColor=none;" vertex="1" parent="1">
          <mxGeometry x="317.37" y="3550" width="33" height="39" as="geometry" />
        </mxCell>
        <mxCell id="U9mmGLhQqzgiAe78-ZDL-371" value="" style="group" vertex="1" connectable="0" parent="1">
          <mxGeometry x="238.74" y="3766" width="33.37" height="75" as="geometry" />
        </mxCell>
        <mxCell id="U9mmGLhQqzgiAe78-ZDL-372" value="" style="rounded=0;whiteSpace=wrap;html=1;shadow=0;dashed=1;labelBackgroundColor=none;sketch=1;fillColor=#A9C4EB;fontFamily=Comic Sans MS;fontSize=20;" vertex="1" parent="U9mmGLhQqzgiAe78-ZDL-371">
          <mxGeometry width="32.37" height="36" as="geometry" />
        </mxCell>
        <mxCell id="U9mmGLhQqzgiAe78-ZDL-373" value="5" style="rounded=0;whiteSpace=wrap;html=1;shadow=0;dashed=1;labelBackgroundColor=none;sketch=1;fontFamily=Comic Sans MS;fontSize=20;fillColor=none;" vertex="1" parent="U9mmGLhQqzgiAe78-ZDL-371">
          <mxGeometry x="0.36999999999999744" y="36" width="33" height="39" as="geometry" />
        </mxCell>
        <mxCell id="U9mmGLhQqzgiAe78-ZDL-324" value="" style="group" vertex="1" connectable="0" parent="1">
          <mxGeometry x="106.63" y="3967" width="33.37" height="75" as="geometry" />
        </mxCell>
        <mxCell id="U9mmGLhQqzgiAe78-ZDL-321" value="A" style="rounded=0;whiteSpace=wrap;html=1;shadow=0;dashed=1;labelBackgroundColor=none;sketch=1;fillColor=#A9C4EB;fontFamily=Comic Sans MS;fontSize=20;" vertex="1" parent="U9mmGLhQqzgiAe78-ZDL-324">
          <mxGeometry width="32.37" height="36" as="geometry" />
        </mxCell>
        <mxCell id="U9mmGLhQqzgiAe78-ZDL-323" value="2" style="rounded=0;whiteSpace=wrap;html=1;shadow=0;dashed=1;labelBackgroundColor=none;sketch=1;fontFamily=Comic Sans MS;fontSize=20;fillColor=none;" vertex="1" parent="U9mmGLhQqzgiAe78-ZDL-324">
          <mxGeometry x="0.36999999999999744" y="36" width="33" height="39" as="geometry" />
        </mxCell>
        <mxCell id="U9mmGLhQqzgiAe78-ZDL-338" value="B" style="rounded=0;whiteSpace=wrap;html=1;shadow=0;dashed=1;labelBackgroundColor=none;sketch=1;fillColor=#A9C4EB;fontFamily=Comic Sans MS;fontSize=20;" vertex="1" parent="1">
          <mxGeometry x="259" y="3851" width="32.37" height="36" as="geometry" />
        </mxCell>
        <mxCell id="U9mmGLhQqzgiAe78-ZDL-339" value="3" style="rounded=0;whiteSpace=wrap;html=1;shadow=0;dashed=1;labelBackgroundColor=none;sketch=1;fontFamily=Comic Sans MS;fontSize=20;fillColor=none;" vertex="1" parent="1">
          <mxGeometry x="111" y="4064" width="33" height="39" as="geometry" />
        </mxCell>
        <mxCell id="U9mmGLhQqzgiAe78-ZDL-374" style="edgeStyle=none;rounded=0;orthogonalLoop=1;jettySize=auto;html=1;exitX=0.5;exitY=1;exitDx=0;exitDy=0;entryX=0.75;entryY=0;entryDx=0;entryDy=0;fontFamily=Comic Sans MS;fontSize=20;" edge="1" parent="1" source="U9mmGLhQqzgiAe78-ZDL-373" target="U9mmGLhQqzgiAe78-ZDL-321">
          <mxGeometry relative="1" as="geometry" />
        </mxCell>
        <mxCell id="U9mmGLhQqzgiAe78-ZDL-375" style="edgeStyle=none;rounded=0;orthogonalLoop=1;jettySize=auto;html=1;exitX=0.5;exitY=1;exitDx=0;exitDy=0;entryX=0.5;entryY=0;entryDx=0;entryDy=0;fontFamily=Comic Sans MS;fontSize=20;" edge="1" parent="1" source="U9mmGLhQqzgiAe78-ZDL-373" target="U9mmGLhQqzgiAe78-ZDL-338">
          <mxGeometry relative="1" as="geometry" />
        </mxCell>
        <mxCell id="U9mmGLhQqzgiAe78-ZDL-410" value="" style="group" vertex="1" connectable="0" parent="1">
          <mxGeometry x="295.11" y="3766" width="33.37" height="75" as="geometry" />
        </mxCell>
        <mxCell id="U9mmGLhQqzgiAe78-ZDL-411" value="C" style="rounded=0;whiteSpace=wrap;html=1;shadow=0;dashed=1;labelBackgroundColor=none;sketch=1;fillColor=#A9C4EB;fontFamily=Comic Sans MS;fontSize=20;" vertex="1" parent="U9mmGLhQqzgiAe78-ZDL-410">
          <mxGeometry width="32.37" height="36" as="geometry" />
        </mxCell>
        <mxCell id="U9mmGLhQqzgiAe78-ZDL-412" style="edgeStyle=none;rounded=0;orthogonalLoop=1;jettySize=auto;html=1;exitX=0.5;exitY=0;exitDx=0;exitDy=0;fontFamily=Comic Sans MS;fontSize=20;" edge="1" parent="U9mmGLhQqzgiAe78-ZDL-410" source="U9mmGLhQqzgiAe78-ZDL-413" target="U9mmGLhQqzgiAe78-ZDL-411">
          <mxGeometry relative="1" as="geometry" />
        </mxCell>
        <mxCell id="U9mmGLhQqzgiAe78-ZDL-413" value="5" style="rounded=0;whiteSpace=wrap;html=1;shadow=0;dashed=1;labelBackgroundColor=none;sketch=1;fontFamily=Comic Sans MS;fontSize=20;fillColor=none;" vertex="1" parent="U9mmGLhQqzgiAe78-ZDL-410">
          <mxGeometry x="0.37" y="36" width="33" height="39" as="geometry" />
        </mxCell>
        <mxCell id="U9mmGLhQqzgiAe78-ZDL-416" value="" style="group" vertex="1" connectable="0" parent="1">
          <mxGeometry x="264.37" y="3685" width="33.37" height="75" as="geometry" />
        </mxCell>
        <mxCell id="U9mmGLhQqzgiAe78-ZDL-417" value="" style="rounded=0;whiteSpace=wrap;html=1;shadow=0;dashed=1;labelBackgroundColor=none;sketch=1;fillColor=#A9C4EB;fontFamily=Comic Sans MS;fontSize=20;" vertex="1" parent="U9mmGLhQqzgiAe78-ZDL-416">
          <mxGeometry width="32.37" height="36" as="geometry" />
        </mxCell>
        <mxCell id="U9mmGLhQqzgiAe78-ZDL-418" value="10" style="rounded=0;whiteSpace=wrap;html=1;shadow=0;dashed=1;labelBackgroundColor=none;sketch=1;fontFamily=Comic Sans MS;fontSize=20;fillColor=none;" vertex="1" parent="U9mmGLhQqzgiAe78-ZDL-416">
          <mxGeometry x="0.36999999999999744" y="36" width="33" height="39" as="geometry" />
        </mxCell>
        <mxCell id="U9mmGLhQqzgiAe78-ZDL-419" style="edgeStyle=none;rounded=0;orthogonalLoop=1;jettySize=auto;html=1;exitX=0.25;exitY=1;exitDx=0;exitDy=0;entryX=0.5;entryY=0;entryDx=0;entryDy=0;fontFamily=Comic Sans MS;fontSize=20;" edge="1" parent="1" source="U9mmGLhQqzgiAe78-ZDL-418" target="U9mmGLhQqzgiAe78-ZDL-372">
          <mxGeometry relative="1" as="geometry" />
        </mxCell>
        <mxCell id="U9mmGLhQqzgiAe78-ZDL-420" style="edgeStyle=none;rounded=0;orthogonalLoop=1;jettySize=auto;html=1;exitX=0.5;exitY=1;exitDx=0;exitDy=0;entryX=0.5;entryY=0;entryDx=0;entryDy=0;fontFamily=Comic Sans MS;fontSize=20;" edge="1" parent="1" source="U9mmGLhQqzgiAe78-ZDL-418" target="U9mmGLhQqzgiAe78-ZDL-411">
          <mxGeometry relative="1" as="geometry" />
        </mxCell>
        <mxCell id="U9mmGLhQqzgiAe78-ZDL-422" value="" style="group" vertex="1" connectable="0" parent="1">
          <mxGeometry x="231" y="3602" width="33.37" height="75" as="geometry" />
        </mxCell>
        <mxCell id="U9mmGLhQqzgiAe78-ZDL-423" value="" style="rounded=0;whiteSpace=wrap;html=1;shadow=0;dashed=1;labelBackgroundColor=none;sketch=1;fillColor=#A9C4EB;fontFamily=Comic Sans MS;fontSize=20;" vertex="1" parent="U9mmGLhQqzgiAe78-ZDL-422">
          <mxGeometry width="32.37" height="36" as="geometry" />
        </mxCell>
        <mxCell id="U9mmGLhQqzgiAe78-ZDL-424" value="17" style="rounded=0;whiteSpace=wrap;html=1;shadow=0;dashed=1;labelBackgroundColor=none;sketch=1;fontFamily=Comic Sans MS;fontSize=20;fillColor=none;" vertex="1" parent="U9mmGLhQqzgiAe78-ZDL-422">
          <mxGeometry x="0.36999999999999744" y="36" width="33" height="39" as="geometry" />
        </mxCell>
        <mxCell id="U9mmGLhQqzgiAe78-ZDL-425" style="edgeStyle=none;rounded=0;orthogonalLoop=1;jettySize=auto;html=1;exitX=0.5;exitY=1;exitDx=0;exitDy=0;entryX=0.5;entryY=0;entryDx=0;entryDy=0;fontFamily=Comic Sans MS;fontSize=20;" edge="1" parent="1" source="U9mmGLhQqzgiAe78-ZDL-424" target="U9mmGLhQqzgiAe78-ZDL-344">
          <mxGeometry relative="1" as="geometry" />
        </mxCell>
        <mxCell id="U9mmGLhQqzgiAe78-ZDL-426" style="edgeStyle=none;rounded=0;orthogonalLoop=1;jettySize=auto;html=1;exitX=0.5;exitY=1;exitDx=0;exitDy=0;fontFamily=Comic Sans MS;fontSize=20;entryX=0.5;entryY=0;entryDx=0;entryDy=0;" edge="1" parent="1" source="U9mmGLhQqzgiAe78-ZDL-424" target="U9mmGLhQqzgiAe78-ZDL-417">
          <mxGeometry relative="1" as="geometry" />
        </mxCell>
        <mxCell id="U9mmGLhQqzgiAe78-ZDL-432" value="" style="group" vertex="1" connectable="0" parent="1">
          <mxGeometry x="260" y="3516" width="33.37" height="75" as="geometry" />
        </mxCell>
        <mxCell id="U9mmGLhQqzgiAe78-ZDL-433" value="" style="rounded=0;whiteSpace=wrap;html=1;shadow=0;dashed=1;labelBackgroundColor=none;sketch=1;fillColor=#A9C4EB;fontFamily=Comic Sans MS;fontSize=20;" vertex="1" parent="U9mmGLhQqzgiAe78-ZDL-432">
          <mxGeometry width="32.37" height="36" as="geometry" />
        </mxCell>
        <mxCell id="U9mmGLhQqzgiAe78-ZDL-434" value="34" style="rounded=0;whiteSpace=wrap;html=1;shadow=0;dashed=1;labelBackgroundColor=none;sketch=1;fontFamily=Comic Sans MS;fontSize=20;fillColor=none;" vertex="1" parent="U9mmGLhQqzgiAe78-ZDL-432">
          <mxGeometry x="0.36999999999999744" y="36" width="33" height="39" as="geometry" />
        </mxCell>
        <mxCell id="U9mmGLhQqzgiAe78-ZDL-435" style="edgeStyle=none;rounded=0;orthogonalLoop=1;jettySize=auto;html=1;exitX=0.5;exitY=1;exitDx=0;exitDy=0;entryX=0.75;entryY=0;entryDx=0;entryDy=0;fontFamily=Comic Sans MS;fontSize=20;" edge="1" parent="1" source="U9mmGLhQqzgiAe78-ZDL-434" target="U9mmGLhQqzgiAe78-ZDL-423">
          <mxGeometry relative="1" as="geometry" />
        </mxCell>
        <mxCell id="U9mmGLhQqzgiAe78-ZDL-436" style="edgeStyle=none;rounded=0;orthogonalLoop=1;jettySize=auto;html=1;exitX=0.5;exitY=1;exitDx=0;exitDy=0;fontFamily=Comic Sans MS;fontSize=20;" edge="1" parent="1" source="U9mmGLhQqzgiAe78-ZDL-434" target="U9mmGLhQqzgiAe78-ZDL-353">
          <mxGeometry relative="1" as="geometry" />
        </mxCell>
        <mxCell id="U9mmGLhQqzgiAe78-ZDL-448" value="" style="group" vertex="1" connectable="0" parent="1">
          <mxGeometry x="289" y="3430" width="33.37" height="75" as="geometry" />
        </mxCell>
        <mxCell id="U9mmGLhQqzgiAe78-ZDL-449" value="" style="rounded=0;whiteSpace=wrap;html=1;shadow=0;dashed=1;labelBackgroundColor=none;sketch=1;fillColor=#A9C4EB;fontFamily=Comic Sans MS;fontSize=20;" vertex="1" parent="U9mmGLhQqzgiAe78-ZDL-448">
          <mxGeometry width="32.37" height="36" as="geometry" />
        </mxCell>
        <mxCell id="U9mmGLhQqzgiAe78-ZDL-450" value="71" style="rounded=0;whiteSpace=wrap;html=1;shadow=0;dashed=1;labelBackgroundColor=none;sketch=1;fontFamily=Comic Sans MS;fontSize=20;fillColor=none;" vertex="1" parent="U9mmGLhQqzgiAe78-ZDL-448">
          <mxGeometry x="0.36999999999999744" y="36" width="33" height="39" as="geometry" />
        </mxCell>
        <mxCell id="U9mmGLhQqzgiAe78-ZDL-451" style="edgeStyle=none;rounded=0;orthogonalLoop=1;jettySize=auto;html=1;exitX=0.5;exitY=1;exitDx=0;exitDy=0;entryX=0.5;entryY=0;entryDx=0;entryDy=0;fontFamily=Comic Sans MS;fontSize=20;" edge="1" parent="1" source="U9mmGLhQqzgiAe78-ZDL-450" target="U9mmGLhQqzgiAe78-ZDL-433">
          <mxGeometry relative="1" as="geometry" />
        </mxCell>
        <mxCell id="U9mmGLhQqzgiAe78-ZDL-452" style="edgeStyle=none;rounded=0;orthogonalLoop=1;jettySize=auto;html=1;exitX=0.5;exitY=1;exitDx=0;exitDy=0;fontFamily=Comic Sans MS;fontSize=20;" edge="1" parent="1" source="U9mmGLhQqzgiAe78-ZDL-450" target="U9mmGLhQqzgiAe78-ZDL-365">
          <mxGeometry relative="1" as="geometry" />
        </mxCell>
        <mxCell id="U9mmGLhQqzgiAe78-ZDL-505" value="" style="edgeStyle=none;rounded=0;orthogonalLoop=1;jettySize=auto;html=1;fontFamily=Comic Sans MS;fontSize=20;" edge="1" parent="1" source="U9mmGLhQqzgiAe78-ZDL-453" target="U9mmGLhQqzgiAe78-ZDL-504">
          <mxGeometry relative="1" as="geometry" />
        </mxCell>
        <mxCell id="U9mmGLhQqzgiAe78-ZDL-453" value="2" style="ellipse;whiteSpace=wrap;html=1;shadow=0;dashed=1;labelBackgroundColor=none;sketch=1;fontFamily=Comic Sans MS;fontSize=20;fillColor=#97D077;" vertex="1" parent="1">
          <mxGeometry x="541.18" y="4317" width="53.5" height="39" as="geometry" />
        </mxCell>
        <mxCell id="U9mmGLhQqzgiAe78-ZDL-507" value="" style="edgeStyle=none;rounded=0;orthogonalLoop=1;jettySize=auto;html=1;fontFamily=Comic Sans MS;fontSize=20;" edge="1" parent="1" source="U9mmGLhQqzgiAe78-ZDL-454" target="U9mmGLhQqzgiAe78-ZDL-506">
          <mxGeometry relative="1" as="geometry" />
        </mxCell>
        <mxCell id="U9mmGLhQqzgiAe78-ZDL-454" value="3" style="ellipse;whiteSpace=wrap;html=1;shadow=0;dashed=1;labelBackgroundColor=none;sketch=1;fontFamily=Comic Sans MS;fontSize=20;fillColor=#97D077;" vertex="1" parent="1">
          <mxGeometry x="650.06" y="4317" width="53.5" height="39" as="geometry" />
        </mxCell>
        <mxCell id="U9mmGLhQqzgiAe78-ZDL-520" style="edgeStyle=none;rounded=0;orthogonalLoop=1;jettySize=auto;html=1;exitX=0.5;exitY=1;exitDx=0;exitDy=0;fontFamily=Comic Sans MS;fontSize=20;" edge="1" parent="1" source="U9mmGLhQqzgiAe78-ZDL-455" target="U9mmGLhQqzgiAe78-ZDL-510">
          <mxGeometry relative="1" as="geometry" />
        </mxCell>
        <mxCell id="U9mmGLhQqzgiAe78-ZDL-455" value="5" style="ellipse;whiteSpace=wrap;html=1;shadow=0;dashed=1;labelBackgroundColor=none;sketch=1;fontFamily=Comic Sans MS;fontSize=20;fillColor=#97D077;" vertex="1" parent="1">
          <mxGeometry x="702.3099999999998" y="4261" width="53.5" height="39" as="geometry" />
        </mxCell>
        <mxCell id="U9mmGLhQqzgiAe78-ZDL-529" style="edgeStyle=none;rounded=0;orthogonalLoop=1;jettySize=auto;html=1;exitX=0.5;exitY=1;exitDx=0;exitDy=0;fontFamily=Comic Sans MS;fontSize=20;" edge="1" parent="1" source="U9mmGLhQqzgiAe78-ZDL-456" target="U9mmGLhQqzgiAe78-ZDL-511">
          <mxGeometry relative="1" as="geometry" />
        </mxCell>
        <mxCell id="U9mmGLhQqzgiAe78-ZDL-456" value="7" style="ellipse;whiteSpace=wrap;html=1;shadow=0;dashed=1;labelBackgroundColor=none;sketch=1;fontFamily=Comic Sans MS;fontSize=20;fillColor=#97D077;" vertex="1" parent="1">
          <mxGeometry x="551.2499999999999" y="4211" width="53.5" height="39" as="geometry" />
        </mxCell>
        <mxCell id="U9mmGLhQqzgiAe78-ZDL-527" style="edgeStyle=none;rounded=0;orthogonalLoop=1;jettySize=auto;html=1;exitX=0.5;exitY=1;exitDx=0;exitDy=0;fontFamily=Comic Sans MS;fontSize=20;" edge="1" parent="1" source="U9mmGLhQqzgiAe78-ZDL-457" target="U9mmGLhQqzgiAe78-ZDL-512">
          <mxGeometry relative="1" as="geometry" />
        </mxCell>
        <mxCell id="U9mmGLhQqzgiAe78-ZDL-457" value="11" style="ellipse;whiteSpace=wrap;html=1;shadow=0;dashed=1;labelBackgroundColor=none;sketch=1;fontFamily=Comic Sans MS;fontSize=20;fillColor=#97D077;" vertex="1" parent="1">
          <mxGeometry x="430" y="4148" width="53.5" height="39" as="geometry" />
        </mxCell>
        <mxCell id="U9mmGLhQqzgiAe78-ZDL-528" style="edgeStyle=none;rounded=0;orthogonalLoop=1;jettySize=auto;html=1;exitX=0.5;exitY=1;exitDx=0;exitDy=0;fontFamily=Comic Sans MS;fontSize=20;" edge="1" parent="1" source="U9mmGLhQqzgiAe78-ZDL-458" target="U9mmGLhQqzgiAe78-ZDL-513">
          <mxGeometry relative="1" as="geometry" />
        </mxCell>
        <mxCell id="U9mmGLhQqzgiAe78-ZDL-458" value="13" style="ellipse;whiteSpace=wrap;html=1;shadow=0;dashed=1;labelBackgroundColor=none;sketch=1;fontFamily=Comic Sans MS;fontSize=20;fillColor=#97D077;" vertex="1" parent="1">
          <mxGeometry x="503" y="4150" width="53.5" height="39" as="geometry" />
        </mxCell>
        <mxCell id="U9mmGLhQqzgiAe78-ZDL-521" style="edgeStyle=none;rounded=0;orthogonalLoop=1;jettySize=auto;html=1;exitX=0.5;exitY=1;exitDx=0;exitDy=0;fontFamily=Comic Sans MS;fontSize=20;" edge="1" parent="1" source="U9mmGLhQqzgiAe78-ZDL-459" target="U9mmGLhQqzgiAe78-ZDL-514">
          <mxGeometry relative="1" as="geometry" />
        </mxCell>
        <mxCell id="U9mmGLhQqzgiAe78-ZDL-459" value="17" style="ellipse;whiteSpace=wrap;html=1;shadow=0;dashed=1;labelBackgroundColor=none;sketch=1;fontFamily=Comic Sans MS;fontSize=20;fillColor=#97D077;" vertex="1" parent="1">
          <mxGeometry x="687.9999999999999" y="4148" width="53.5" height="39" as="geometry" />
        </mxCell>
        <mxCell id="U9mmGLhQqzgiAe78-ZDL-525" style="edgeStyle=none;rounded=0;orthogonalLoop=1;jettySize=auto;html=1;exitX=0.5;exitY=1;exitDx=0;exitDy=0;fontFamily=Comic Sans MS;fontSize=20;" edge="1" parent="1" source="U9mmGLhQqzgiAe78-ZDL-460" target="U9mmGLhQqzgiAe78-ZDL-515">
          <mxGeometry relative="1" as="geometry" />
        </mxCell>
        <mxCell id="U9mmGLhQqzgiAe78-ZDL-460" value="19" style="ellipse;whiteSpace=wrap;html=1;shadow=0;dashed=1;labelBackgroundColor=none;sketch=1;fontFamily=Comic Sans MS;fontSize=20;fillColor=#97D077;" vertex="1" parent="1">
          <mxGeometry x="301" y="4080" width="53.5" height="39" as="geometry" />
        </mxCell>
        <mxCell id="U9mmGLhQqzgiAe78-ZDL-524" style="edgeStyle=none;rounded=0;orthogonalLoop=1;jettySize=auto;html=1;exitX=0.5;exitY=1;exitDx=0;exitDy=0;fontFamily=Comic Sans MS;fontSize=20;" edge="1" parent="1" source="U9mmGLhQqzgiAe78-ZDL-461" target="U9mmGLhQqzgiAe78-ZDL-516">
          <mxGeometry relative="1" as="geometry" />
        </mxCell>
        <mxCell id="U9mmGLhQqzgiAe78-ZDL-461" value="23" style="ellipse;whiteSpace=wrap;html=1;shadow=0;dashed=1;labelBackgroundColor=none;sketch=1;fontFamily=Comic Sans MS;fontSize=20;fillColor=#97D077;" vertex="1" parent="1">
          <mxGeometry x="391" y="4080" width="53.5" height="39" as="geometry" />
        </mxCell>
        <mxCell id="U9mmGLhQqzgiAe78-ZDL-523" style="edgeStyle=none;rounded=0;orthogonalLoop=1;jettySize=auto;html=1;exitX=0.5;exitY=1;exitDx=0;exitDy=0;fontFamily=Comic Sans MS;fontSize=20;" edge="1" parent="1" source="U9mmGLhQqzgiAe78-ZDL-462" target="U9mmGLhQqzgiAe78-ZDL-517">
          <mxGeometry relative="1" as="geometry" />
        </mxCell>
        <mxCell id="U9mmGLhQqzgiAe78-ZDL-462" value="31" style="ellipse;whiteSpace=wrap;html=1;shadow=0;dashed=1;labelBackgroundColor=none;sketch=1;fontFamily=Comic Sans MS;fontSize=20;fillColor=#97D077;" vertex="1" parent="1">
          <mxGeometry x="549" y="4080" width="53.5" height="39" as="geometry" />
        </mxCell>
        <mxCell id="U9mmGLhQqzgiAe78-ZDL-522" style="edgeStyle=none;rounded=0;orthogonalLoop=1;jettySize=auto;html=1;exitX=0.5;exitY=1;exitDx=0;exitDy=0;fontFamily=Comic Sans MS;fontSize=20;" edge="1" parent="1" source="U9mmGLhQqzgiAe78-ZDL-463" target="U9mmGLhQqzgiAe78-ZDL-518">
          <mxGeometry relative="1" as="geometry" />
        </mxCell>
        <mxCell id="U9mmGLhQqzgiAe78-ZDL-463" value="37" style="ellipse;whiteSpace=wrap;html=1;shadow=0;dashed=1;labelBackgroundColor=none;sketch=1;fontFamily=Comic Sans MS;fontSize=20;fillColor=#97D077;" vertex="1" parent="1">
          <mxGeometry x="731" y="4080" width="53.5" height="39" as="geometry" />
        </mxCell>
        <mxCell id="U9mmGLhQqzgiAe78-ZDL-526" style="edgeStyle=none;rounded=0;orthogonalLoop=1;jettySize=auto;html=1;exitX=0.5;exitY=1;exitDx=0;exitDy=0;fontFamily=Comic Sans MS;fontSize=20;" edge="1" parent="1" source="U9mmGLhQqzgiAe78-ZDL-464" target="U9mmGLhQqzgiAe78-ZDL-519">
          <mxGeometry relative="1" as="geometry" />
        </mxCell>
        <mxCell id="U9mmGLhQqzgiAe78-ZDL-464" value="41" style="ellipse;whiteSpace=wrap;html=1;shadow=0;dashed=1;labelBackgroundColor=none;sketch=1;fontFamily=Comic Sans MS;fontSize=20;fillColor=#97D077;" vertex="1" parent="1">
          <mxGeometry x="266.5" y="4013" width="53.5" height="39" as="geometry" />
        </mxCell>
        <mxCell id="U9mmGLhQqzgiAe78-ZDL-466" value="0" style="edgeStyle=none;rounded=0;orthogonalLoop=1;jettySize=auto;html=1;exitX=0.5;exitY=1;exitDx=0;exitDy=0;fontFamily=Comic Sans MS;fontSize=20;" edge="1" parent="1" source="U9mmGLhQqzgiAe78-ZDL-465" target="U9mmGLhQqzgiAe78-ZDL-453">
          <mxGeometry relative="1" as="geometry" />
        </mxCell>
        <mxCell id="U9mmGLhQqzgiAe78-ZDL-467" value="1" style="edgeStyle=none;rounded=0;orthogonalLoop=1;jettySize=auto;html=1;exitX=0.5;exitY=1;exitDx=0;exitDy=0;fontFamily=Comic Sans MS;fontSize=20;" edge="1" parent="1" source="U9mmGLhQqzgiAe78-ZDL-465" target="U9mmGLhQqzgiAe78-ZDL-454">
          <mxGeometry relative="1" as="geometry" />
        </mxCell>
        <mxCell id="U9mmGLhQqzgiAe78-ZDL-465" value="5" style="ellipse;whiteSpace=wrap;html=1;shadow=0;dashed=1;labelBackgroundColor=none;sketch=1;fontFamily=Comic Sans MS;fontSize=20;fillColor=#97D077;" vertex="1" parent="1">
          <mxGeometry x="599.81" y="4263" width="53.5" height="39" as="geometry" />
        </mxCell>
        <mxCell id="U9mmGLhQqzgiAe78-ZDL-472" value="0" style="edgeStyle=none;rounded=0;orthogonalLoop=1;jettySize=auto;html=1;exitX=0.5;exitY=1;exitDx=0;exitDy=0;entryX=1;entryY=0;entryDx=0;entryDy=0;fontFamily=Comic Sans MS;fontSize=20;" edge="1" parent="1" source="U9mmGLhQqzgiAe78-ZDL-471" target="U9mmGLhQqzgiAe78-ZDL-465">
          <mxGeometry relative="1" as="geometry" />
        </mxCell>
        <mxCell id="U9mmGLhQqzgiAe78-ZDL-473" value="1" style="edgeStyle=none;rounded=0;orthogonalLoop=1;jettySize=auto;html=1;exitX=0.5;exitY=1;exitDx=0;exitDy=0;fontFamily=Comic Sans MS;fontSize=20;" edge="1" parent="1" source="U9mmGLhQqzgiAe78-ZDL-471" target="U9mmGLhQqzgiAe78-ZDL-455">
          <mxGeometry relative="1" as="geometry" />
        </mxCell>
        <mxCell id="U9mmGLhQqzgiAe78-ZDL-471" value="10" style="ellipse;whiteSpace=wrap;html=1;shadow=0;dashed=1;labelBackgroundColor=none;sketch=1;fontFamily=Comic Sans MS;fontSize=20;fillColor=#97D077;" vertex="1" parent="1">
          <mxGeometry x="648.8099999999998" y="4211" width="53.5" height="39" as="geometry" />
        </mxCell>
        <mxCell id="U9mmGLhQqzgiAe78-ZDL-475" value="0" style="edgeStyle=none;rounded=0;orthogonalLoop=1;jettySize=auto;html=1;exitX=0.5;exitY=1;exitDx=0;exitDy=0;fontFamily=Comic Sans MS;fontSize=20;" edge="1" parent="1" source="U9mmGLhQqzgiAe78-ZDL-474" target="U9mmGLhQqzgiAe78-ZDL-456">
          <mxGeometry relative="1" as="geometry" />
        </mxCell>
        <mxCell id="U9mmGLhQqzgiAe78-ZDL-476" value="1" style="edgeStyle=none;rounded=0;orthogonalLoop=1;jettySize=auto;html=1;exitX=0.5;exitY=1;exitDx=0;exitDy=0;fontFamily=Comic Sans MS;fontSize=20;" edge="1" parent="1" source="U9mmGLhQqzgiAe78-ZDL-474" target="U9mmGLhQqzgiAe78-ZDL-471">
          <mxGeometry relative="1" as="geometry" />
        </mxCell>
        <mxCell id="U9mmGLhQqzgiAe78-ZDL-474" value="17" style="ellipse;whiteSpace=wrap;html=1;shadow=0;dashed=1;labelBackgroundColor=none;sketch=1;fontFamily=Comic Sans MS;fontSize=20;fillColor=#97D077;" vertex="1" parent="1">
          <mxGeometry x="593.6799999999998" y="4147" width="53.5" height="39" as="geometry" />
        </mxCell>
        <mxCell id="U9mmGLhQqzgiAe78-ZDL-478" value="0" style="edgeStyle=none;rounded=0;orthogonalLoop=1;jettySize=auto;html=1;exitX=0.5;exitY=1;exitDx=0;exitDy=0;fontFamily=Comic Sans MS;fontSize=20;" edge="1" parent="1" source="U9mmGLhQqzgiAe78-ZDL-477" target="U9mmGLhQqzgiAe78-ZDL-457">
          <mxGeometry relative="1" as="geometry" />
        </mxCell>
        <mxCell id="U9mmGLhQqzgiAe78-ZDL-479" value="1" style="edgeStyle=none;rounded=0;orthogonalLoop=1;jettySize=auto;html=1;exitX=0.5;exitY=1;exitDx=0;exitDy=0;fontFamily=Comic Sans MS;fontSize=20;" edge="1" parent="1" source="U9mmGLhQqzgiAe78-ZDL-477" target="U9mmGLhQqzgiAe78-ZDL-458">
          <mxGeometry relative="1" as="geometry" />
        </mxCell>
        <mxCell id="U9mmGLhQqzgiAe78-ZDL-477" value="24" style="ellipse;whiteSpace=wrap;html=1;shadow=0;dashed=1;labelBackgroundColor=none;sketch=1;fontFamily=Comic Sans MS;fontSize=20;fillColor=#97D077;" vertex="1" parent="1">
          <mxGeometry x="473" y="4078" width="53.5" height="39" as="geometry" />
        </mxCell>
        <mxCell id="U9mmGLhQqzgiAe78-ZDL-482" value="0" style="edgeStyle=none;rounded=0;orthogonalLoop=1;jettySize=auto;html=1;exitX=0.5;exitY=1;exitDx=0;exitDy=0;fontFamily=Comic Sans MS;fontSize=20;" edge="1" parent="1" source="U9mmGLhQqzgiAe78-ZDL-481" target="U9mmGLhQqzgiAe78-ZDL-474">
          <mxGeometry relative="1" as="geometry" />
        </mxCell>
        <mxCell id="U9mmGLhQqzgiAe78-ZDL-483" value="1" style="edgeStyle=none;rounded=0;orthogonalLoop=1;jettySize=auto;html=1;exitX=0.5;exitY=1;exitDx=0;exitDy=0;fontFamily=Comic Sans MS;fontSize=20;" edge="1" parent="1" source="U9mmGLhQqzgiAe78-ZDL-481" target="U9mmGLhQqzgiAe78-ZDL-459">
          <mxGeometry relative="1" as="geometry" />
        </mxCell>
        <mxCell id="U9mmGLhQqzgiAe78-ZDL-481" value="34" style="ellipse;whiteSpace=wrap;html=1;shadow=0;dashed=1;labelBackgroundColor=none;sketch=1;fontFamily=Comic Sans MS;fontSize=20;fillColor=#97D077;" vertex="1" parent="1">
          <mxGeometry x="614.5" y="4080" width="53.5" height="39" as="geometry" />
        </mxCell>
        <mxCell id="U9mmGLhQqzgiAe78-ZDL-485" value="0" style="edgeStyle=none;rounded=0;orthogonalLoop=1;jettySize=auto;html=1;exitX=0.5;exitY=1;exitDx=0;exitDy=0;fontFamily=Comic Sans MS;fontSize=20;" edge="1" parent="1" source="U9mmGLhQqzgiAe78-ZDL-484" target="U9mmGLhQqzgiAe78-ZDL-460">
          <mxGeometry relative="1" as="geometry" />
        </mxCell>
        <mxCell id="U9mmGLhQqzgiAe78-ZDL-486" value="1" style="edgeStyle=none;rounded=0;orthogonalLoop=1;jettySize=auto;html=1;exitX=0.5;exitY=1;exitDx=0;exitDy=0;fontFamily=Comic Sans MS;fontSize=20;" edge="1" parent="1" source="U9mmGLhQqzgiAe78-ZDL-484" target="U9mmGLhQqzgiAe78-ZDL-461">
          <mxGeometry relative="1" as="geometry" />
        </mxCell>
        <mxCell id="U9mmGLhQqzgiAe78-ZDL-484" value="42" style="ellipse;whiteSpace=wrap;html=1;shadow=0;dashed=1;labelBackgroundColor=none;sketch=1;fontFamily=Comic Sans MS;fontSize=20;fillColor=#97D077;" vertex="1" parent="1">
          <mxGeometry x="367.38" y="4015" width="53.5" height="39" as="geometry" />
        </mxCell>
        <mxCell id="U9mmGLhQqzgiAe78-ZDL-488" value="0" style="edgeStyle=none;rounded=0;orthogonalLoop=1;jettySize=auto;html=1;exitX=0.5;exitY=1;exitDx=0;exitDy=0;fontFamily=Comic Sans MS;fontSize=20;" edge="1" parent="1" source="U9mmGLhQqzgiAe78-ZDL-487" target="U9mmGLhQqzgiAe78-ZDL-477">
          <mxGeometry relative="1" as="geometry" />
        </mxCell>
        <mxCell id="U9mmGLhQqzgiAe78-ZDL-489" value="1" style="edgeStyle=none;rounded=0;orthogonalLoop=1;jettySize=auto;html=1;exitX=0.5;exitY=1;exitDx=0;exitDy=0;fontFamily=Comic Sans MS;fontSize=20;" edge="1" parent="1" source="U9mmGLhQqzgiAe78-ZDL-487" target="U9mmGLhQqzgiAe78-ZDL-462">
          <mxGeometry relative="1" as="geometry" />
        </mxCell>
        <mxCell id="U9mmGLhQqzgiAe78-ZDL-487" value="55" style="ellipse;whiteSpace=wrap;html=1;shadow=0;dashed=1;labelBackgroundColor=none;sketch=1;fontFamily=Comic Sans MS;fontSize=20;fillColor=#97D077;" vertex="1" parent="1">
          <mxGeometry x="512" y="4017" width="53.5" height="39" as="geometry" />
        </mxCell>
        <mxCell id="U9mmGLhQqzgiAe78-ZDL-491" value="0" style="edgeStyle=none;rounded=0;orthogonalLoop=1;jettySize=auto;html=1;exitX=0.5;exitY=1;exitDx=0;exitDy=0;fontFamily=Comic Sans MS;fontSize=20;" edge="1" parent="1" source="U9mmGLhQqzgiAe78-ZDL-490" target="U9mmGLhQqzgiAe78-ZDL-481">
          <mxGeometry relative="1" as="geometry" />
        </mxCell>
        <mxCell id="U9mmGLhQqzgiAe78-ZDL-492" value="1" style="edgeStyle=none;rounded=0;orthogonalLoop=1;jettySize=auto;html=1;exitX=0.5;exitY=1;exitDx=0;exitDy=0;fontFamily=Comic Sans MS;fontSize=20;" edge="1" parent="1" source="U9mmGLhQqzgiAe78-ZDL-490" target="U9mmGLhQqzgiAe78-ZDL-463">
          <mxGeometry relative="1" as="geometry" />
        </mxCell>
        <mxCell id="U9mmGLhQqzgiAe78-ZDL-490" value="71" style="ellipse;whiteSpace=wrap;html=1;shadow=0;dashed=1;labelBackgroundColor=none;sketch=1;fontFamily=Comic Sans MS;fontSize=20;fillColor=#97D077;" vertex="1" parent="1">
          <mxGeometry x="662" y="4015" width="53.5" height="39" as="geometry" />
        </mxCell>
        <mxCell id="U9mmGLhQqzgiAe78-ZDL-494" value="0" style="edgeStyle=none;rounded=0;orthogonalLoop=1;jettySize=auto;html=1;exitX=0.5;exitY=1;exitDx=0;exitDy=0;fontFamily=Comic Sans MS;fontSize=20;" edge="1" parent="1" source="U9mmGLhQqzgiAe78-ZDL-493" target="U9mmGLhQqzgiAe78-ZDL-464">
          <mxGeometry relative="1" as="geometry" />
        </mxCell>
        <mxCell id="U9mmGLhQqzgiAe78-ZDL-496" value="1" style="edgeStyle=none;rounded=0;orthogonalLoop=1;jettySize=auto;html=1;exitX=0.5;exitY=1;exitDx=0;exitDy=0;fontFamily=Comic Sans MS;fontSize=20;" edge="1" parent="1" source="U9mmGLhQqzgiAe78-ZDL-493" target="U9mmGLhQqzgiAe78-ZDL-484">
          <mxGeometry relative="1" as="geometry" />
        </mxCell>
        <mxCell id="U9mmGLhQqzgiAe78-ZDL-493" value="83" style="ellipse;whiteSpace=wrap;html=1;shadow=0;dashed=1;labelBackgroundColor=none;sketch=1;fontFamily=Comic Sans MS;fontSize=20;fillColor=#97D077;" vertex="1" parent="1">
          <mxGeometry x="334.13" y="3950" width="53.5" height="39" as="geometry" />
        </mxCell>
        <mxCell id="U9mmGLhQqzgiAe78-ZDL-498" value="0" style="edgeStyle=none;rounded=0;orthogonalLoop=1;jettySize=auto;html=1;exitX=0.5;exitY=1;exitDx=0;exitDy=0;fontFamily=Comic Sans MS;fontSize=20;" edge="1" parent="1" target="U9mmGLhQqzgiAe78-ZDL-487">
          <mxGeometry relative="1" as="geometry">
            <mxPoint x="606.13" y="3987" as="sourcePoint" />
          </mxGeometry>
        </mxCell>
        <mxCell id="U9mmGLhQqzgiAe78-ZDL-499" value="1" style="edgeStyle=none;rounded=0;orthogonalLoop=1;jettySize=auto;html=1;exitX=0.5;exitY=1;exitDx=0;exitDy=0;fontFamily=Comic Sans MS;fontSize=20;" edge="1" parent="1" target="U9mmGLhQqzgiAe78-ZDL-490">
          <mxGeometry relative="1" as="geometry">
            <mxPoint x="606.13" y="3987" as="sourcePoint" />
          </mxGeometry>
        </mxCell>
        <mxCell id="U9mmGLhQqzgiAe78-ZDL-497" value="126" style="ellipse;whiteSpace=wrap;html=1;shadow=0;dashed=1;labelBackgroundColor=none;sketch=1;fontFamily=Comic Sans MS;fontSize=20;fillColor=#97D077;" vertex="1" parent="1">
          <mxGeometry x="577" y="3947" width="53.5" height="39" as="geometry" />
        </mxCell>
        <mxCell id="U9mmGLhQqzgiAe78-ZDL-501" value="0" style="edgeStyle=none;rounded=0;orthogonalLoop=1;jettySize=auto;html=1;exitX=0.5;exitY=1;exitDx=0;exitDy=0;entryX=1;entryY=0;entryDx=0;entryDy=0;fontFamily=Comic Sans MS;fontSize=20;" edge="1" parent="1" source="U9mmGLhQqzgiAe78-ZDL-500" target="U9mmGLhQqzgiAe78-ZDL-493">
          <mxGeometry relative="1" as="geometry" />
        </mxCell>
        <mxCell id="U9mmGLhQqzgiAe78-ZDL-502" value="1" style="edgeStyle=none;rounded=0;orthogonalLoop=1;jettySize=auto;html=1;exitX=0.5;exitY=1;exitDx=0;exitDy=0;fontFamily=Comic Sans MS;fontSize=20;" edge="1" parent="1" source="U9mmGLhQqzgiAe78-ZDL-500" target="U9mmGLhQqzgiAe78-ZDL-497">
          <mxGeometry relative="1" as="geometry" />
        </mxCell>
        <mxCell id="U9mmGLhQqzgiAe78-ZDL-500" value="209" style="ellipse;whiteSpace=wrap;html=1;shadow=0;dashed=1;labelBackgroundColor=none;sketch=1;fontFamily=Comic Sans MS;fontSize=20;fillColor=#97D077;" vertex="1" parent="1">
          <mxGeometry x="456" y="3895" width="53.5" height="39" as="geometry" />
        </mxCell>
        <mxCell id="U9mmGLhQqzgiAe78-ZDL-504" value="A" style="whiteSpace=wrap;html=1;shadow=0;dashed=1;fontFamily=Comic Sans MS;fontSize=20;sketch=1;fillColor=#FF9933;" vertex="1" parent="1">
          <mxGeometry x="554.93" y="4375" width="28.38" height="37.5" as="geometry" />
        </mxCell>
        <mxCell id="U9mmGLhQqzgiAe78-ZDL-506" value="B" style="whiteSpace=wrap;html=1;shadow=0;dashed=1;fontFamily=Comic Sans MS;fontSize=20;sketch=1;fillColor=#FF9933;" vertex="1" parent="1">
          <mxGeometry x="662.56" y="4375" width="28.5" height="36.5" as="geometry" />
        </mxCell>
        <mxCell id="U9mmGLhQqzgiAe78-ZDL-510" value="C" style="whiteSpace=wrap;html=1;shadow=0;dashed=1;fontFamily=Comic Sans MS;fontSize=20;sketch=1;fillColor=#FF9933;" vertex="1" parent="1">
          <mxGeometry x="721.31" y="4317" width="28.5" height="36.5" as="geometry" />
        </mxCell>
        <mxCell id="U9mmGLhQqzgiAe78-ZDL-511" value="D" style="whiteSpace=wrap;html=1;shadow=0;dashed=1;fontFamily=Comic Sans MS;fontSize=20;sketch=1;fillColor=#FF9933;" vertex="1" parent="1">
          <mxGeometry x="555.81" y="4270" width="28.5" height="36.5" as="geometry" />
        </mxCell>
        <mxCell id="U9mmGLhQqzgiAe78-ZDL-512" value="E" style="whiteSpace=wrap;html=1;shadow=0;dashed=1;fontFamily=Comic Sans MS;fontSize=20;sketch=1;fillColor=#FF9933;" vertex="1" parent="1">
          <mxGeometry x="442.49999999999994" y="4216" width="28.5" height="36.5" as="geometry" />
        </mxCell>
        <mxCell id="U9mmGLhQqzgiAe78-ZDL-513" value="F" style="whiteSpace=wrap;html=1;shadow=0;dashed=1;fontFamily=Comic Sans MS;fontSize=20;sketch=1;fillColor=#FF9933;" vertex="1" parent="1">
          <mxGeometry x="518" y="4216" width="28.5" height="36.5" as="geometry" />
        </mxCell>
        <mxCell id="U9mmGLhQqzgiAe78-ZDL-514" value="G" style="whiteSpace=wrap;html=1;shadow=0;dashed=1;fontFamily=Comic Sans MS;fontSize=20;sketch=1;fillColor=#FF9933;" vertex="1" parent="1">
          <mxGeometry x="713" y="4208" width="28.5" height="36.5" as="geometry" />
        </mxCell>
        <mxCell id="U9mmGLhQqzgiAe78-ZDL-515" value="H" style="whiteSpace=wrap;html=1;shadow=0;dashed=1;fontFamily=Comic Sans MS;fontSize=20;sketch=1;fillColor=#FF9933;" vertex="1" parent="1">
          <mxGeometry x="305.62999999999994" y="4145" width="28.5" height="36.5" as="geometry" />
        </mxCell>
        <mxCell id="U9mmGLhQqzgiAe78-ZDL-516" value="I" style="whiteSpace=wrap;html=1;shadow=0;dashed=1;fontFamily=Comic Sans MS;fontSize=20;sketch=1;fillColor=#FF9933;" vertex="1" parent="1">
          <mxGeometry x="390.99999999999994" y="4145" width="28.5" height="36.5" as="geometry" />
        </mxCell>
        <mxCell id="U9mmGLhQqzgiAe78-ZDL-517" value="J" style="whiteSpace=wrap;html=1;shadow=0;dashed=1;fontFamily=Comic Sans MS;fontSize=20;sketch=1;fillColor=#FF9933;" vertex="1" parent="1">
          <mxGeometry x="560.3699999999999" y="4150" width="28.5" height="36.5" as="geometry" />
        </mxCell>
        <mxCell id="U9mmGLhQqzgiAe78-ZDL-518" value="K" style="whiteSpace=wrap;html=1;shadow=0;dashed=1;fontFamily=Comic Sans MS;fontSize=20;sketch=1;fillColor=#FF9933;" vertex="1" parent="1">
          <mxGeometry x="759" y="4150" width="28.5" height="36.5" as="geometry" />
        </mxCell>
        <mxCell id="U9mmGLhQqzgiAe78-ZDL-519" value="L" style="whiteSpace=wrap;html=1;shadow=0;dashed=1;fontFamily=Comic Sans MS;fontSize=20;sketch=1;fillColor=#FF9933;" vertex="1" parent="1">
          <mxGeometry x="259.36999999999995" y="4085" width="28.5" height="36.5" as="geometry" />
        </mxCell>
        <mxCell id="U9mmGLhQqzgiAe78-ZDL-530" value="字母&lt;br&gt;A: 1100100&amp;nbsp;&lt;br&gt;B: 1100101&lt;br&gt;C: 110011&lt;br&gt;D: 11000&lt;br&gt;E: 1000&lt;br&gt;F: 1001&lt;br&gt;G: 1101&lt;br&gt;H: 010&lt;br&gt;I: 011&lt;br&gt;J: 101&lt;br&gt;K: 111&lt;br&gt;L: 00" style="text;html=1;strokeColor=none;fillColor=none;align=left;verticalAlign=middle;whiteSpace=wrap;rounded=0;shadow=0;dashed=1;labelBackgroundColor=none;sketch=1;fontFamily=Comic Sans MS;fontSize=20;" vertex="1" parent="1">
          <mxGeometry x="324" y="4427" width="150" height="320" as="geometry" />
        </mxCell>
        <mxCell id="U9mmGLhQqzgiAe78-ZDL-532" value="编码长度&lt;br&gt;7&lt;br&gt;7&lt;br&gt;6&lt;br&gt;5&lt;br&gt;4&lt;br&gt;4&lt;br&gt;4&lt;br&gt;3&lt;br&gt;3&lt;br&gt;3&lt;br&gt;3&lt;br&gt;2" style="text;html=1;strokeColor=none;fillColor=none;align=center;verticalAlign=middle;whiteSpace=wrap;rounded=0;shadow=0;dashed=1;labelBackgroundColor=none;sketch=1;fontFamily=Comic Sans MS;fontSize=20;" vertex="1" parent="1">
          <mxGeometry x="464.5" y="4427" width="93.5" height="320" as="geometry" />
        </mxCell>
        <mxCell id="U9mmGLhQqzgiAe78-ZDL-533" value="分布频率（/209）&lt;br&gt;2&lt;br&gt;3&lt;br&gt;5&lt;br&gt;7&lt;br&gt;11&lt;br&gt;13&lt;br&gt;17&lt;br&gt;19&lt;br&gt;23&lt;br&gt;31&lt;br&gt;37&lt;br&gt;41" style="text;html=1;strokeColor=none;fillColor=none;align=center;verticalAlign=middle;whiteSpace=wrap;rounded=0;shadow=0;dashed=1;labelBackgroundColor=none;sketch=1;fontFamily=Comic Sans MS;fontSize=20;" vertex="1" parent="1">
          <mxGeometry x="598" y="4427" width="175.5" height="320" as="geometry" />
        </mxCell>
        <mxCell id="U9mmGLhQqzgiAe78-ZDL-534" value="&lt;br&gt;x&lt;br&gt;x&lt;br&gt;x&lt;br&gt;x&lt;br&gt;x&lt;br&gt;x&lt;br&gt;x&lt;br&gt;x&lt;br&gt;x&lt;br&gt;x&lt;br&gt;x&lt;br&gt;x" style="text;html=1;strokeColor=none;fillColor=none;align=left;verticalAlign=middle;whiteSpace=wrap;rounded=0;shadow=0;dashed=1;labelBackgroundColor=none;sketch=1;fontFamily=Comic Sans MS;fontSize=20;" vertex="1" parent="1">
          <mxGeometry x="577.25" y="4425" width="27.5" height="320" as="geometry" />
        </mxCell>
        <mxCell id="U9mmGLhQqzgiAe78-ZDL-535" value="n x 676 / 209 ≈ 3.23n (bits)" style="text;html=1;strokeColor=none;fillColor=none;align=center;verticalAlign=middle;whiteSpace=wrap;rounded=0;shadow=0;dashed=1;labelBackgroundColor=none;sketch=1;fontFamily=Comic Sans MS;fontSize=20;" vertex="1" parent="1">
          <mxGeometry x="429" y="4757" width="272" height="20" as="geometry" />
        </mxCell>
        <mxCell id="U9mmGLhQqzgiAe78-ZDL-537" style="rounded=0;orthogonalLoop=1;jettySize=auto;html=1;exitX=0;exitY=1;exitDx=0;exitDy=0;entryX=1;entryY=0;entryDx=0;entryDy=0;fontFamily=Comic Sans MS;fontSize=20;shape=link;sketch=1;" edge="1" parent="1" source="U9mmGLhQqzgiAe78-ZDL-539" target="U9mmGLhQqzgiAe78-ZDL-542">
          <mxGeometry relative="1" as="geometry" />
        </mxCell>
        <mxCell id="U9mmGLhQqzgiAe78-ZDL-538" style="edgeStyle=none;shape=link;rounded=0;orthogonalLoop=1;jettySize=auto;html=1;exitX=1;exitY=1;exitDx=0;exitDy=0;fontFamily=Comic Sans MS;fontSize=20;sketch=1;" edge="1" parent="1" source="U9mmGLhQqzgiAe78-ZDL-539" target="U9mmGLhQqzgiAe78-ZDL-545">
          <mxGeometry relative="1" as="geometry" />
        </mxCell>
        <mxCell id="U9mmGLhQqzgiAe78-ZDL-539" value="1" style="ellipse;whiteSpace=wrap;html=1;shadow=0;sketch=1;fillStyle=hachure;fontSize=20;fontFamily=Comic Sans MS;fillColor=#7EA6E0;" vertex="1" parent="1">
          <mxGeometry x="742.5" y="1769" width="68" height="57" as="geometry" />
        </mxCell>
        <mxCell id="U9mmGLhQqzgiAe78-ZDL-540" style="edgeStyle=none;shape=link;rounded=0;orthogonalLoop=1;jettySize=auto;html=1;exitX=0;exitY=1;exitDx=0;exitDy=0;fontFamily=Comic Sans MS;fontSize=20;sketch=1;" edge="1" parent="1" source="U9mmGLhQqzgiAe78-ZDL-542" target="U9mmGLhQqzgiAe78-ZDL-548">
          <mxGeometry relative="1" as="geometry" />
        </mxCell>
        <mxCell id="U9mmGLhQqzgiAe78-ZDL-541" style="edgeStyle=none;shape=link;rounded=0;orthogonalLoop=1;jettySize=auto;html=1;exitX=1;exitY=1;exitDx=0;exitDy=0;fontFamily=Comic Sans MS;fontSize=20;sketch=1;" edge="1" parent="1" source="U9mmGLhQqzgiAe78-ZDL-542" target="U9mmGLhQqzgiAe78-ZDL-550">
          <mxGeometry relative="1" as="geometry" />
        </mxCell>
        <mxCell id="U9mmGLhQqzgiAe78-ZDL-542" value="2" style="ellipse;whiteSpace=wrap;html=1;shadow=0;sketch=1;fillStyle=hachure;fontSize=20;fontFamily=Comic Sans MS;fillColor=#7EA6E0;" vertex="1" parent="1">
          <mxGeometry x="643.5" y="1842" width="68" height="57" as="geometry" />
        </mxCell>
        <mxCell id="U9mmGLhQqzgiAe78-ZDL-543" style="edgeStyle=none;shape=link;rounded=0;orthogonalLoop=1;jettySize=auto;html=1;exitX=0;exitY=1;exitDx=0;exitDy=0;fontFamily=Comic Sans MS;fontSize=20;sketch=1;" edge="1" parent="1" source="U9mmGLhQqzgiAe78-ZDL-545" target="U9mmGLhQqzgiAe78-ZDL-551">
          <mxGeometry relative="1" as="geometry" />
        </mxCell>
        <mxCell id="U9mmGLhQqzgiAe78-ZDL-545" value="3" style="ellipse;whiteSpace=wrap;html=1;shadow=0;sketch=1;fillStyle=hachure;fontSize=20;fontFamily=Comic Sans MS;fillColor=#7EA6E0;" vertex="1" parent="1">
          <mxGeometry x="839.5" y="1842" width="68" height="57" as="geometry" />
        </mxCell>
        <mxCell id="U9mmGLhQqzgiAe78-ZDL-546" style="edgeStyle=none;shape=link;rounded=0;orthogonalLoop=1;jettySize=auto;html=1;exitX=0;exitY=1;exitDx=0;exitDy=0;entryX=0.632;entryY=0.035;entryDx=0;entryDy=0;entryPerimeter=0;fontFamily=Comic Sans MS;fontSize=20;sketch=1;" edge="1" parent="1" source="U9mmGLhQqzgiAe78-ZDL-548" target="U9mmGLhQqzgiAe78-ZDL-553">
          <mxGeometry relative="1" as="geometry" />
        </mxCell>
        <mxCell id="U9mmGLhQqzgiAe78-ZDL-548" value="4" style="ellipse;whiteSpace=wrap;html=1;shadow=0;sketch=1;fillStyle=hachure;fontSize=20;fontFamily=Comic Sans MS;fillColor=#7EA6E0;" vertex="1" parent="1">
          <mxGeometry x="564.5" y="1928" width="68" height="57" as="geometry" />
        </mxCell>
        <mxCell id="U9mmGLhQqzgiAe78-ZDL-550" value="5" style="ellipse;whiteSpace=wrap;html=1;shadow=0;sketch=1;fillStyle=hachure;fontSize=20;fontFamily=Comic Sans MS;fillColor=#7EA6E0;" vertex="1" parent="1">
          <mxGeometry x="690.5" y="1933" width="68" height="57" as="geometry" />
        </mxCell>
        <mxCell id="U9mmGLhQqzgiAe78-ZDL-551" value="6" style="ellipse;whiteSpace=wrap;html=1;shadow=0;sketch=1;fillStyle=hachure;fontSize=20;fontFamily=Comic Sans MS;fillColor=#7EA6E0;" vertex="1" parent="1">
          <mxGeometry x="781.5" y="1931" width="68" height="57" as="geometry" />
        </mxCell>
        <mxCell id="U9mmGLhQqzgiAe78-ZDL-553" value="7" style="ellipse;whiteSpace=wrap;html=1;shadow=0;sketch=1;fillStyle=hachure;fontSize=20;fontFamily=Comic Sans MS;fillColor=#7EA6E0;" vertex="1" parent="1">
          <mxGeometry x="498.5" y="2020" width="68" height="57" as="geometry" />
        </mxCell>
        <mxCell id="U9mmGLhQqzgiAe78-ZDL-557" value="" style="rounded=1;whiteSpace=wrap;html=1;shadow=0;dashed=1;labelBackgroundColor=none;sketch=1;fontFamily=Comic Sans MS;fontSize=20;align=center;fillColor=none;" vertex="1" parent="1">
          <mxGeometry x="952.69" y="1761" width="344.5" height="67" as="geometry" />
        </mxCell>
        <mxCell id="U9mmGLhQqzgiAe78-ZDL-559" value="1" style="ellipse;whiteSpace=wrap;html=1;shadow=0;sketch=1;fillStyle=hachure;fontSize=20;fontFamily=Comic Sans MS;fillColor=#7EA6E0;" vertex="1" parent="1">
          <mxGeometry x="966.94" y="1766" width="68" height="57" as="geometry" />
        </mxCell>
        <mxCell id="U9mmGLhQqzgiAe78-ZDL-560" style="rounded=0;orthogonalLoop=1;jettySize=auto;html=1;exitX=0;exitY=1;exitDx=0;exitDy=0;entryX=1;entryY=0;entryDx=0;entryDy=0;fontFamily=Comic Sans MS;fontSize=20;shape=link;sketch=1;" edge="1" parent="1" source="U9mmGLhQqzgiAe78-ZDL-562" target="U9mmGLhQqzgiAe78-ZDL-565">
          <mxGeometry relative="1" as="geometry" />
        </mxCell>
        <mxCell id="U9mmGLhQqzgiAe78-ZDL-561" style="edgeStyle=none;shape=link;rounded=0;orthogonalLoop=1;jettySize=auto;html=1;exitX=1;exitY=1;exitDx=0;exitDy=0;fontFamily=Comic Sans MS;fontSize=20;sketch=1;" edge="1" parent="1" source="U9mmGLhQqzgiAe78-ZDL-562" target="U9mmGLhQqzgiAe78-ZDL-567">
          <mxGeometry relative="1" as="geometry" />
        </mxCell>
        <mxCell id="U9mmGLhQqzgiAe78-ZDL-562" value="1" style="ellipse;whiteSpace=wrap;html=1;shadow=0;sketch=1;fillStyle=hachure;fontSize=20;fontFamily=Comic Sans MS;fillColor=#7EA6E0;" vertex="1" parent="1">
          <mxGeometry x="709.31" y="2133" width="68" height="57" as="geometry" />
        </mxCell>
        <mxCell id="U9mmGLhQqzgiAe78-ZDL-563" style="edgeStyle=none;shape=link;rounded=0;orthogonalLoop=1;jettySize=auto;html=1;exitX=0;exitY=1;exitDx=0;exitDy=0;fontFamily=Comic Sans MS;fontSize=20;sketch=1;" edge="1" parent="1" source="U9mmGLhQqzgiAe78-ZDL-565" target="U9mmGLhQqzgiAe78-ZDL-569">
          <mxGeometry relative="1" as="geometry" />
        </mxCell>
        <mxCell id="U9mmGLhQqzgiAe78-ZDL-564" style="edgeStyle=none;shape=link;rounded=0;orthogonalLoop=1;jettySize=auto;html=1;exitX=1;exitY=1;exitDx=0;exitDy=0;fontFamily=Comic Sans MS;fontSize=20;sketch=1;" edge="1" parent="1" source="U9mmGLhQqzgiAe78-ZDL-565" target="U9mmGLhQqzgiAe78-ZDL-570">
          <mxGeometry relative="1" as="geometry" />
        </mxCell>
        <mxCell id="U9mmGLhQqzgiAe78-ZDL-565" value="2" style="ellipse;whiteSpace=wrap;html=1;shadow=0;sketch=1;fillStyle=hachure;fontSize=20;fontFamily=Comic Sans MS;fillColor=#7EA6E0;" vertex="1" parent="1">
          <mxGeometry x="610.31" y="2206" width="68" height="57" as="geometry" />
        </mxCell>
        <mxCell id="U9mmGLhQqzgiAe78-ZDL-566" style="edgeStyle=none;shape=link;rounded=0;orthogonalLoop=1;jettySize=auto;html=1;exitX=0;exitY=1;exitDx=0;exitDy=0;fontFamily=Comic Sans MS;fontSize=20;sketch=1;" edge="1" parent="1" source="U9mmGLhQqzgiAe78-ZDL-567" target="U9mmGLhQqzgiAe78-ZDL-571">
          <mxGeometry relative="1" as="geometry" />
        </mxCell>
        <mxCell id="U9mmGLhQqzgiAe78-ZDL-567" value="3" style="ellipse;whiteSpace=wrap;html=1;shadow=0;sketch=1;fillStyle=hachure;fontSize=20;fontFamily=Comic Sans MS;fillColor=#7EA6E0;" vertex="1" parent="1">
          <mxGeometry x="806.31" y="2206" width="68" height="57" as="geometry" />
        </mxCell>
        <mxCell id="U9mmGLhQqzgiAe78-ZDL-568" style="edgeStyle=none;shape=link;rounded=0;orthogonalLoop=1;jettySize=auto;html=1;exitX=0;exitY=1;exitDx=0;exitDy=0;entryX=0.632;entryY=0.035;entryDx=0;entryDy=0;entryPerimeter=0;fontFamily=Comic Sans MS;fontSize=20;sketch=1;" edge="1" parent="1" source="U9mmGLhQqzgiAe78-ZDL-569" target="U9mmGLhQqzgiAe78-ZDL-572">
          <mxGeometry relative="1" as="geometry" />
        </mxCell>
        <mxCell id="U9mmGLhQqzgiAe78-ZDL-569" value="4" style="ellipse;whiteSpace=wrap;html=1;shadow=0;sketch=1;fillStyle=hachure;fontSize=20;fontFamily=Comic Sans MS;fillColor=#7EA6E0;" vertex="1" parent="1">
          <mxGeometry x="531.31" y="2292" width="68" height="57" as="geometry" />
        </mxCell>
        <mxCell id="U9mmGLhQqzgiAe78-ZDL-570" value="5" style="ellipse;whiteSpace=wrap;html=1;shadow=0;sketch=1;fillStyle=hachure;fontSize=20;fontFamily=Comic Sans MS;fillColor=#7EA6E0;" vertex="1" parent="1">
          <mxGeometry x="657.31" y="2297" width="68" height="57" as="geometry" />
        </mxCell>
        <mxCell id="U9mmGLhQqzgiAe78-ZDL-571" value="6" style="ellipse;whiteSpace=wrap;html=1;shadow=0;sketch=1;fillStyle=hachure;fontSize=20;fontFamily=Comic Sans MS;fillColor=#7EA6E0;" vertex="1" parent="1">
          <mxGeometry x="748.31" y="2295" width="68" height="57" as="geometry" />
        </mxCell>
        <mxCell id="U9mmGLhQqzgiAe78-ZDL-572" value="7" style="ellipse;whiteSpace=wrap;html=1;shadow=0;sketch=1;fillStyle=hachure;fontSize=20;fontFamily=Comic Sans MS;fillColor=#7EA6E0;" vertex="1" parent="1">
          <mxGeometry x="465.31" y="2384" width="68" height="57" as="geometry" />
        </mxCell>
        <mxCell id="U9mmGLhQqzgiAe78-ZDL-573" value="" style="rounded=1;whiteSpace=wrap;html=1;shadow=0;dashed=1;labelBackgroundColor=none;sketch=1;fontFamily=Comic Sans MS;fontSize=20;align=center;fillColor=none;" vertex="1" parent="1">
          <mxGeometry x="879" y="2125" width="344.5" height="67" as="geometry" />
        </mxCell>
        <mxCell id="U9mmGLhQqzgiAe78-ZDL-574" value="1" style="ellipse;whiteSpace=wrap;html=1;shadow=0;sketch=1;fillStyle=hachure;fontSize=20;fontFamily=Comic Sans MS;fillColor=#7EA6E0;" vertex="1" parent="1">
          <mxGeometry x="1290" y="2130" width="68" height="57" as="geometry" />
        </mxCell>
        <mxCell id="U9mmGLhQqzgiAe78-ZDL-575" value="" style="shape=singleArrow;whiteSpace=wrap;html=1;shadow=0;dashed=1;labelBackgroundColor=none;sketch=1;fillColor=none;fontFamily=Comic Sans MS;fontSize=20;align=center;" vertex="1" parent="1">
          <mxGeometry x="868.94" y="1784" width="73.5" height="33" as="geometry" />
        </mxCell>
        <mxCell id="U9mmGLhQqzgiAe78-ZDL-576" value="" style="shape=singleArrow;whiteSpace=wrap;html=1;shadow=0;dashed=1;labelBackgroundColor=none;sketch=1;fillColor=none;fontFamily=Comic Sans MS;fontSize=20;align=center;" vertex="1" parent="1">
          <mxGeometry x="1233" y="2145" width="44" height="33" as="geometry" />
        </mxCell>
        <mxCell id="U9mmGLhQqzgiAe78-ZDL-577" value="根节点放入容器" style="text;html=1;strokeColor=none;fillColor=none;align=center;verticalAlign=middle;whiteSpace=wrap;rounded=0;shadow=0;dashed=1;labelBackgroundColor=none;sketch=1;fontFamily=Comic Sans MS;fontSize=20;" vertex="1" parent="1">
          <mxGeometry x="985" y="1914" width="200" height="27" as="geometry" />
        </mxCell>
        <mxCell id="U9mmGLhQqzgiAe78-ZDL-578" value="从容器中取出根节点，访问之" style="text;html=1;strokeColor=none;fillColor=none;align=center;verticalAlign=middle;whiteSpace=wrap;rounded=0;shadow=0;dashed=1;labelBackgroundColor=none;sketch=1;fontFamily=Comic Sans MS;fontSize=20;" vertex="1" parent="1">
          <mxGeometry x="966.94" y="2259" width="287" height="29" as="geometry" />
        </mxCell>
        <mxCell id="U9mmGLhQqzgiAe78-ZDL-580" style="rounded=0;orthogonalLoop=1;jettySize=auto;html=1;exitX=0;exitY=1;exitDx=0;exitDy=0;entryX=1;entryY=0;entryDx=0;entryDy=0;fontFamily=Comic Sans MS;fontSize=20;shape=link;sketch=1;" edge="1" parent="1" source="U9mmGLhQqzgiAe78-ZDL-582" target="U9mmGLhQqzgiAe78-ZDL-585">
          <mxGeometry relative="1" as="geometry" />
        </mxCell>
        <mxCell id="U9mmGLhQqzgiAe78-ZDL-581" style="edgeStyle=none;shape=link;rounded=0;orthogonalLoop=1;jettySize=auto;html=1;exitX=1;exitY=1;exitDx=0;exitDy=0;fontFamily=Comic Sans MS;fontSize=20;sketch=1;" edge="1" parent="1" source="U9mmGLhQqzgiAe78-ZDL-582" target="U9mmGLhQqzgiAe78-ZDL-587">
          <mxGeometry relative="1" as="geometry" />
        </mxCell>
        <mxCell id="U9mmGLhQqzgiAe78-ZDL-582" value="1" style="ellipse;whiteSpace=wrap;html=1;shadow=0;sketch=1;fillStyle=hachure;fontSize=20;fontFamily=Comic Sans MS;strokeColor=#333333;fillColor=#333333;" vertex="1" parent="1">
          <mxGeometry x="703.5" y="2507" width="68" height="57" as="geometry" />
        </mxCell>
        <mxCell id="U9mmGLhQqzgiAe78-ZDL-583" style="edgeStyle=none;shape=link;rounded=0;orthogonalLoop=1;jettySize=auto;html=1;exitX=0;exitY=1;exitDx=0;exitDy=0;fontFamily=Comic Sans MS;fontSize=20;sketch=1;" edge="1" parent="1" source="U9mmGLhQqzgiAe78-ZDL-585" target="U9mmGLhQqzgiAe78-ZDL-589">
          <mxGeometry relative="1" as="geometry" />
        </mxCell>
        <mxCell id="U9mmGLhQqzgiAe78-ZDL-584" style="edgeStyle=none;shape=link;rounded=0;orthogonalLoop=1;jettySize=auto;html=1;exitX=1;exitY=1;exitDx=0;exitDy=0;fontFamily=Comic Sans MS;fontSize=20;sketch=1;" edge="1" parent="1" source="U9mmGLhQqzgiAe78-ZDL-585" target="U9mmGLhQqzgiAe78-ZDL-590">
          <mxGeometry relative="1" as="geometry" />
        </mxCell>
        <mxCell id="U9mmGLhQqzgiAe78-ZDL-585" value="2" style="ellipse;whiteSpace=wrap;html=1;shadow=0;sketch=1;fillStyle=hachure;fontSize=20;fontFamily=Comic Sans MS;fillColor=#7EA6E0;" vertex="1" parent="1">
          <mxGeometry x="604.5" y="2580" width="68" height="57" as="geometry" />
        </mxCell>
        <mxCell id="U9mmGLhQqzgiAe78-ZDL-586" style="edgeStyle=none;shape=link;rounded=0;orthogonalLoop=1;jettySize=auto;html=1;exitX=0;exitY=1;exitDx=0;exitDy=0;fontFamily=Comic Sans MS;fontSize=20;sketch=1;" edge="1" parent="1" source="U9mmGLhQqzgiAe78-ZDL-587" target="U9mmGLhQqzgiAe78-ZDL-591">
          <mxGeometry relative="1" as="geometry" />
        </mxCell>
        <mxCell id="U9mmGLhQqzgiAe78-ZDL-587" value="3" style="ellipse;whiteSpace=wrap;html=1;shadow=0;sketch=1;fillStyle=hachure;fontSize=20;fontFamily=Comic Sans MS;fillColor=#7EA6E0;" vertex="1" parent="1">
          <mxGeometry x="800.5" y="2580" width="68" height="57" as="geometry" />
        </mxCell>
        <mxCell id="U9mmGLhQqzgiAe78-ZDL-588" style="edgeStyle=none;shape=link;rounded=0;orthogonalLoop=1;jettySize=auto;html=1;exitX=0;exitY=1;exitDx=0;exitDy=0;entryX=0.632;entryY=0.035;entryDx=0;entryDy=0;entryPerimeter=0;fontFamily=Comic Sans MS;fontSize=20;sketch=1;" edge="1" parent="1" source="U9mmGLhQqzgiAe78-ZDL-589" target="U9mmGLhQqzgiAe78-ZDL-592">
          <mxGeometry relative="1" as="geometry" />
        </mxCell>
        <mxCell id="U9mmGLhQqzgiAe78-ZDL-589" value="4" style="ellipse;whiteSpace=wrap;html=1;shadow=0;sketch=1;fillStyle=hachure;fontSize=20;fontFamily=Comic Sans MS;fillColor=#7EA6E0;" vertex="1" parent="1">
          <mxGeometry x="525.5" y="2666" width="68" height="57" as="geometry" />
        </mxCell>
        <mxCell id="U9mmGLhQqzgiAe78-ZDL-590" value="5" style="ellipse;whiteSpace=wrap;html=1;shadow=0;sketch=1;fillStyle=hachure;fontSize=20;fontFamily=Comic Sans MS;fillColor=#7EA6E0;" vertex="1" parent="1">
          <mxGeometry x="651.5" y="2671" width="68" height="57" as="geometry" />
        </mxCell>
        <mxCell id="U9mmGLhQqzgiAe78-ZDL-591" value="6" style="ellipse;whiteSpace=wrap;html=1;shadow=0;sketch=1;fillStyle=hachure;fontSize=20;fontFamily=Comic Sans MS;fillColor=#7EA6E0;" vertex="1" parent="1">
          <mxGeometry x="742.5" y="2669" width="68" height="57" as="geometry" />
        </mxCell>
        <mxCell id="U9mmGLhQqzgiAe78-ZDL-592" value="7" style="ellipse;whiteSpace=wrap;html=1;shadow=0;sketch=1;fillStyle=hachure;fontSize=20;fontFamily=Comic Sans MS;fillColor=#7EA6E0;" vertex="1" parent="1">
          <mxGeometry x="459.5" y="2758" width="68" height="57" as="geometry" />
        </mxCell>
        <mxCell id="U9mmGLhQqzgiAe78-ZDL-593" value="" style="rounded=1;whiteSpace=wrap;html=1;shadow=0;dashed=1;labelBackgroundColor=none;sketch=1;fontFamily=Comic Sans MS;fontSize=20;align=center;fillColor=none;" vertex="1" parent="1">
          <mxGeometry x="963.5" y="2568" width="344.5" height="67" as="geometry" />
        </mxCell>
        <mxCell id="U9mmGLhQqzgiAe78-ZDL-595" value="" style="shape=singleArrow;whiteSpace=wrap;html=1;shadow=0;dashed=1;labelBackgroundColor=none;sketch=1;fillColor=none;fontFamily=Comic Sans MS;fontSize=20;align=center;" vertex="1" parent="1">
          <mxGeometry x="890" y="2592" width="44" height="33" as="geometry" />
        </mxCell>
        <mxCell id="U9mmGLhQqzgiAe78-ZDL-597" value="此时，我们可以访问根节点的左右孩子，将其放入容器" style="text;html=1;strokeColor=none;fillColor=none;align=center;verticalAlign=middle;whiteSpace=wrap;rounded=0;shadow=0;dashed=1;labelBackgroundColor=none;sketch=1;fontFamily=Comic Sans MS;fontSize=20;" vertex="1" parent="1">
          <mxGeometry x="970.19" y="2687" width="363.81" height="35" as="geometry" />
        </mxCell>
        <mxCell id="U9mmGLhQqzgiAe78-ZDL-598" value="2" style="ellipse;whiteSpace=wrap;html=1;shadow=0;sketch=1;fillStyle=hachure;fontSize=20;fontFamily=Comic Sans MS;fillColor=#7EA6E0;" vertex="1" parent="1">
          <mxGeometry x="1079" y="2573" width="68" height="57" as="geometry" />
        </mxCell>
        <mxCell id="U9mmGLhQqzgiAe78-ZDL-599" value="3" style="ellipse;whiteSpace=wrap;html=1;shadow=0;sketch=1;fillStyle=hachure;fontSize=20;fontFamily=Comic Sans MS;fillColor=#7EA6E0;" vertex="1" parent="1">
          <mxGeometry x="996" y="2573" width="68" height="57" as="geometry" />
        </mxCell>
        <mxCell id="U9mmGLhQqzgiAe78-ZDL-600" value="节点被访问的顺序和被放入容器的顺序一致。" style="text;html=1;strokeColor=none;fillColor=none;align=center;verticalAlign=middle;whiteSpace=wrap;rounded=0;shadow=0;dashed=1;labelBackgroundColor=none;sketch=1;fontFamily=Comic Sans MS;fontSize=20;" vertex="1" parent="1">
          <mxGeometry x="668" y="2768" width="410.56" height="63" as="geometry" />
        </mxCell>
        <mxCell id="U9mmGLhQqzgiAe78-ZDL-601" value="" style="shape=singleArrow;whiteSpace=wrap;html=1;shadow=0;dashed=1;labelBackgroundColor=none;sketch=1;fontFamily=Comic Sans MS;fontSize=20;align=center;fillColor=#99FF33;" vertex="1" parent="1">
          <mxGeometry x="1082" y="2788" width="44" height="33" as="geometry" />
        </mxCell>
        <mxCell id="U9mmGLhQqzgiAe78-ZDL-602" value="队列" style="text;html=1;strokeColor=none;fillColor=none;align=center;verticalAlign=middle;whiteSpace=wrap;rounded=0;shadow=0;dashed=1;labelBackgroundColor=none;sketch=1;fontFamily=Comic Sans MS;fontSize=20;fontStyle=1" vertex="1" parent="1">
          <mxGeometry x="1149" y="2790" width="68" height="29" as="geometry" />
        </mxCell>
      </root>
    </mxGraphModel>
  </diagram>
</mxfile>
